<svg height="511pt" viewBox="-117 0 511 511.99758" width="511pt" xmlns="http://www.w3.org/2000/svg"><path d="m247.945312 477.863281h-.085937c.070313.222657.097656.453125.085937.683594 0 13.738281-49.664062 24.917969-110.933593 24.917969-4.351563 0-8.621094-.085938-12.800781-.171875-55.210938-1.449219-98.132813-11.945313-98.132813-24.746094-.015625-.230469.015625-.460937.085937-.683594h-.085937v-256h221.867187zm0 0" fill="#a4c2f7"/><path d="m222.34375 477.863281h-.085938c.070313.222657.101563.453125.085938.683594 0 12.800781-42.921875 23.296875-98.132812 24.746094-55.210938-1.449219-98.132813-11.945313-98.132813-24.746094-.015625-.230469.015625-.460937.085937-.683594h-.085937v-256h196.265625zm0 0" fill="#e3e7f2"/><path d="m52.785156 204.96875c-16.640625 4.351562-26.707031 10.070312-26.707031 16.210938-.015625.234374.015625.464843.085937.683593.851563 7.511719 16.722657 14.25 41.128907 18.6875 11.265625 1.964844 24.40625 3.5 38.742187 4.523438 9.8125.597656 20.222656.9375 30.976563.9375 5.375 0 10.664062-.082031 15.871093-.253907 2.902344-.085937 5.71875-.171874 8.53125-.339843 12.714844-.683594 24.578126-1.792969 35.160157-3.328125 30.121093-4.269532 50.261719-11.691406 51.285156-20.226563.070313-.21875.097656-.449219.085937-.683593 0-7.167969-13.398437-13.566407-34.902343-18.089844l-48.214844-6.058594c-8.875-.511719-18.175781-.765625-27.816406-.765625-4.78125 0-9.386719.082031-13.996094.167969zm0 0" fill="#a4c2f7"/><path d="m143.9375 245.996094c-5.195312.171875-1.550781 0-6.925781 0-7.679688 0-15.191407-.171875-22.445313-.511719-2.898437-.085937-5.714844-.257813-8.53125-.425781-3.242187-.257813-6.484375-.511719-9.558594-.769532-10.667968-.9375-20.480468-2.21875-29.183593-3.753906l-14.507813-35.585937-36.007812-88.214844-5.890625-61.441406-1.792969-18.773438c-.476562-5.007812 2.359375-9.746093 7-11.691406h.085938c4.679687-1.890625 10.046874-.507813 13.226562 3.414063l11.859375 14.679687 38.742187 48.039063 43.007813 105.472656 15.019531 36.78125zm0 0" fill="#e3e7f2"/><path d="m244.105469 108.710938v.085937c-.34375 2.132813-5.71875 31.316406-31.0625 94.292969-4.777344 11.777344-10.269531 24.777344-16.46875 39l-23.125 1.960937-20.566407 1.707031c.171876-.9375.425782-1.792968.597657-2.644531.9375-3.753906 1.707031-7.339843 2.558593-10.921875 2.988282-12.714844 5.886719-24.40625 8.789063-35.160156 7.582031-29.910156 17.335937-59.230469 29.183594-87.722656 1.023437-2.386719 2.050781-4.523438 2.902343-6.3125 2.304688-4.949219 3.839844-7.765625 4.351563-8.621094.035156-.125.089844-.238281.171875-.339844l24.574219 8.449219zm0 0" fill="#7fabfa"/><path d="m268.082031 86.527344c-3.847656 10.910156-12.8125 19.238281-23.976562 22.269531-7.878907 2.199219-16.238281 1.964844-23.980469-.683594-.769531-.253906-1.535156-.597656-2.304688-.851562-6.570312-2.738281-12.289062-7.1875-16.554687-12.886719-7.210937-9.308594-9.292969-21.605469-5.546875-32.765625 5.5625-16.460937 16.621094-30.503906 31.316406-39.765625 10.792969-6.890625 22.921875-11.429688 35.585938-13.3125-11.007813 13.824219-1.792969 39.253906 2.902344 50.003906.085937.085938 0 .171875.085937.171875 1.023437 2.390625 1.789063 3.925781 2.132813 4.609375.03125.121094.089843.238282.167968.339844 2.660156 7.382812 2.722656 15.449219.171875 22.871094zm0 0" fill="#a4c2f7"/><g fill="#e3e7f2"><path d="m213.554688 108.710938v.085937c-.339844 2.132813-5.71875 31.316406-31.0625 94.292969-4.777344 11.777344-10.269532 24.777344-16.46875 39l-12.542969 1.023437c.9375-3.753906 1.707031-7.339843 2.558593-10.921875 2.988282-12.714844 5.886719-24.40625 8.789063-35.160156 7.582031-29.910156 17.335937-59.230469 29.183594-87.722656 1.023437-2.386719 2.050781-4.523438 2.902343-6.3125zm0 0"/><path d="m237.53125 86.527344c-3.347656 9.382812-10.507812 16.914062-19.710938 20.734375-1.363281.597656-21.757812-2.476563-20.90625-4.265625 2.304688-4.949219 3.839844-7.765625 4.351563-8.621094-7.210937-9.308594-9.292969-21.605469-5.546875-32.765625 5.5625-16.460937 16.621094-30.503906 31.316406-39.765625-.207031 12.675781 2.511719 25.234375 7.9375 36.691406 0 .085938 0 .171875.085938.171875 1.023437 2.390625 1.792968 3.925781 2.046875 4.609375.078125.121094.164062.234375.257812.339844 2.660157 7.382812 2.71875 15.449219.167969 22.871094zm0 0"/><path d="m80.007812 90.960938c-2.378906 5.980468-7.089843 10.730468-13.046874 13.164062-5.953126 2.429688-12.644532 2.328125-18.527344-.277344-2.394532 5.984375-7.121094 10.738282-13.089844 13.167969-5.972656 2.433594-12.675781 2.328125-18.566406-.28125l-5.890625-61.441406c5.601562 3.007812 12.230469 3.445312 18.175781 1.195312 5.808594-2.589843 10.242188-7.519531 12.203125-13.566406zm0 0"/></g><path d="m41.265625 42.921875c-1.960937 6.046875-6.394531 10.976563-12.203125 13.566406-5.945312 2.25-12.574219 1.8125-18.175781-1.195312l-1.792969-18.773438c-.476562-5.007812 2.359375-9.746093 7-11.691406h.085938c4.679687-1.890625 10.046874-.507813 13.226562 3.414063zm0 0" fill="#a4c2f7"/><path d="m29.40625 28.242188c-3.179688-3.921876-8.546875-5.304688-13.226562-3.414063h-.085938c-4.640625 1.945313-7.476562 6.683594-7 11.691406l1.792969 18.773438 5.890625 61.441406 36.007812 88.234375c-16.640625 4.351562-26.707031 10.070312-26.707031 16.210938-.015625.234374.015625.464843.085937.683593h-.085937v256h.085937c-.070312.222657-.101562.453125-.085937.683594 0 12.800781 42.921875 23.296875 98.132813 24.746094 4.179687.085937 8.449218.171875 12.800781.171875 4.351562 0 8.53125-.070313 12.6875-.179688-55.160157-1.460937-98.023438-11.945312-98.023438-24.738281-.011719-.230469.015625-.460937.085938-.683594h-.085938v-256h.085938c-.070313-.21875-.097657-.449219-.085938-.683593 0-6.140626 10.070313-11.859376 26.710938-16.210938l-36.011719-88.234375-5.886719-61.441406-1.792969-18.773438c-.007812-.535156.027344-1.074219.101563-1.605469zm0 0" fill="#fff"/><path d="m31.777344 478.546875c.402344.046875.8125-.023437 1.175781-.203125.128906-.070312.242187-.15625.34375-.257812.390625-.09375 1.449219-.605469 1.261719-.484376.128906 0-.050782.1875.632812.628907 1.171875.992187 2.445313 1.847656 3.804688 2.5625 3.679687 1.789062 7.503906 3.261719 11.433594 4.394531 8.496093 2.4375 17.140624 4.304688 25.882812 5.585938 17.921875 2.5625 35.996094 3.925781 54.101562 4.082031l6.597657.074219v17.066406l-6.828125-.074219c-18.882813-.167969-37.738282-1.589844-56.429688-4.269531-9.5625-1.398438-19.015625-3.449219-28.296875-6.132813-4.953125-1.4375-9.769531-3.316406-14.386719-5.605469-2.726562-1.429687-5.265624-3.195312-7.554687-5.25-3.550781-3.0625-5.707031-7.433593-5.972656-12.117187zm0 0" fill="#fff"/><path d="m128.734375 187.832031-40.824219-100.085937c-.316406-.773438-.742187-1.492188-1.261718-2.140625l-50.597657-62.714844c-5.320312-6.636719-14.273437-9.15625-22.277343-6.269531-.351563.097656-.691407.21875-1.027344.359375-8.082032 3.375-13.011719 11.632812-12.148438 20.351562l1.707032 17.542969c.003906.039062.003906.074219 0 .113281l5.972656 62.554688c.074218.832031.273437 1.644531.589844 2.417969l32.46875 79.582031c-15.925782 5.503906-23.792969 12.609375-23.792969 21.636719v.480468.203125 256 .207031.476563c0 .1875.09375.339844.101562.519531.546875 5.273438 3.328125 10.058594 7.640625 13.140625 2.828125 2.113281 5.898438 3.882813 9.144532 5.273438 5.679687 2.457031 11.5625 4.414062 17.582031 5.847656 2.230469.609375 4.613281.269531 6.585937-.941406 1.972656-1.207031 3.359375-3.175781 3.832032-5.441407.90625-4.492187-1.800782-8.921874-6.214844-10.164062-5.054688-1.191406-9.996094-2.816406-14.769532-4.863281-1.992187-.832031-3.882812-1.886719-5.640624-3.140625-.417969-.453125-1.347657-1.050782-1.160157-1.109375 0-.222657 0-.433594 0-.648438v-47.785156c30.738281 13.96875 93.210938 14.496094 102.367188 14.496094s71.628906-.527344 102.398437-14.453125v47.734375.546875c0 .175781-.058594.253906-.058594.382812-5.128906 6.324219-42.265624 16.988282-102.339843 16.988282l-6.597657-.074219c-2.800781 0-5.597656-.0625-8.386718-.179688-4.664063-.085937-8.550782 3.542969-8.789063 8.199219-.101562 2.277344.714844 4.496094 2.269531 6.164062 1.554688 1.664063 3.710938 2.636719 5.988282 2.695313 2.894531.117187 5.792968.167969 8.6875.1875l6.828125.074219c12.226562 0 119.464843-.9375 119.464843-33.449219 0-.128906 0-.324219-.042968-.476563-.042969-.15625.042968-.128906.042968-.207031v-256c0-.074219-.042968-.136719-.042968-.203125 0-.070312.042968-.351562.042968-.480468 0-10.570313-10.1875-18.328126-31.871093-24.113282 10.964843-26.628906 19.957031-54.023437 26.90625-81.972656 11.535156-4.652344 20.515625-14.035156 24.660156-25.761719 3.195313-9.257812 3.117187-19.335937-.230469-28.542969-.066406-.179687-.332031-.734374-.410156-.90625l-.570312-1.226562c-.359376-.734375-.855469-1.835938-1.484376-3.234375-.078124-.179687-.15625-.339844-.238281-.511719-6.28125-14.421875-10.601562-32.71875-3.953125-41.0625 2.144532-2.691406 2.460938-6.410156.800782-9.425781-1.65625-3.015625-4.964844-4.738281-8.386719-4.375-2.285157.242187-56.089844 6.589844-74.078125 58.738281-3.90625 11.378906-2.882813 23.871094 2.824218 34.464844.28125.527344.675782.972656.972657 1.484375-13.945313 30.039063-25 61.335937-33.015625 93.464844-9.617188-.382813-19.683594-.46875-29.667969-.367188zm88.644531-71.679687c5.050782 1.746094 10.355469 2.648437 15.699219 2.671875-7.59375 27.585937-16.925781 54.660156-27.945313 81.066406-4.265624 10.445313-9.105468 21.992187-14.507812 34.382813-8.234375 1.054687-17.238281 1.882812-26.90625 2.457031l.605469-2.5625c3.140625-13.371094 5.976562-24.789063 8.722656-34.910157 7.71875-30.980468 17.957031-61.277343 30.617187-90.589843 4.140626 3.210937 8.769532 5.734375 13.714844 7.476562zm22.03125 258.824218c0 .199219-.085937.367188-.085937.566407-5.101563 6.320312-42.238281 16.988281-102.3125 16.988281s-97.214844-10.667969-102.316407-16.988281c0-.199219-.078124-.378907-.085937-.566407v-13.96875c30.773437 13.925782 93.246094 14.457032 102.402344 14.457032s71.628906-.53125 102.398437-14.457032zm0-34.132812c0 .195312-.085937.367188-.085937.5625-5.101563 6.324219-42.238281 16.992188-102.3125 16.992188s-97.214844-10.667969-102.316407-16.992188c0-.195312-.078124-.375-.085937-.5625v-14.070312c21.460937 9.789062 57.839844 12.953124 77.101563 13.960937l7.0625.246094c5.589843.265625 11.445312.351562 17.296874.351562h.941407c5.722656 0 11.355469-.085937 16.929687-.257812 16.980469-.597657 61.003906-3.15625 85.46875-14.335938zm0-34.132812c0 .1875-.085937.359374-.085937.554687-4.265625 5.207031-32.597657 14.949219-85.9375 16.75-5.375.167969-10.835938.25-16.375.25h-.941407c-5.578124 0-11.160156-.078125-16.597656-.34375l-7.019531-.238281c-50.835937-2.644532-74.078125-12.074219-77.757813-16.433594 0-.199219-.078124-.375-.085937-.574219v-66.558593c10.019531 4.179687 20.496094 7.148437 31.214844 8.847656 13.148437 2.207031 26.398437 3.753906 39.699219 4.636718h.535156c10.242187.613282 20.652344.9375 30.953125.9375 5.464843 0 10.851562-.089843 16.152343-.265624 2.988282-.085938 5.871094-.171876 8.703126-.347657 13.097656-.703125 25.183593-1.84375 35.902343-3.414062 14.277344-1.566407 28.285157-5.039063 41.640625-10.328125zm-197.316406-249.148438 27.582031 34.183594c-4.019531 5.777344-11.734375 7.613281-17.921875 4.269531-.640625-.210937-1.300781-.347656-1.972656-.402344-.429688-.121093-.867188-.207031-1.3125-.253906-1.019531.003906-2.03125.203125-2.976562.578125-.078126 0-.15625 0-.222657 0-.785156.355469-1.515625.828125-2.160156 1.398438-.179687.15625-.417969.222656-.589844.394531-.410156.484375-.773437 1.007812-1.074219 1.570312-.320312.378907-.605468.78125-.851562 1.210938-2.050781 6.792969-8.917969 10.929687-15.882812 9.566406l-4.1875-43.726563c.3125 0 .628906.113282.945312.113282 7.816406.046875 15.292969-3.179688 20.625-8.894532zm4.054688 63.371094 26.589843 65.160156c1.308594 3.214844 4.4375 5.316406 7.910157 5.316406 1.101562-.003906 2.195312-.21875 3.214843-.640625 4.347657-1.78125 6.4375-6.738281 4.679688-11.09375l-26.625-65.289062c5.773437-.644531 11.234375-2.953125 15.726562-6.640625l52.496094 128.691406c.140625.335938.300781.664062.476563.984375h-.433594c-6.144532-.078125-12.246094-.359375-18.3125-.667969l-10.386719-25.53125c-1.855469-4.230468-6.746094-6.210937-11.023437-4.472656-4.28125 1.742188-6.398438 6.570312-4.777344 10.898438l7.183594 17.679687c-.714844-.074219-1.492188-.125-2.203126-.203125-.707031-.078125-1.507812-.144531-2.242187-.230469-4.851563-.570312-9.480469-1.179687-13.882813-1.835937l-1.152343-.179688-43.164063-105.8125c5.800782-.410156 11.347656-2.546875 15.925782-6.132812zm107.742187 84.164062c-1.121094 4.359375-2.261719 8.933594-3.414063 13.789063l-7.75 3.183593-7.023437-17.214843c6.09375-.007813 12.230469.054687 18.1875.242187zm-134.785156-172.246094.238281-.101562c1.203125-.484375 2.582031-.140625 3.414062.851562l8.398438 10.410157c-2.5625 4.183593-7.539062 6.222656-12.296875 5.042969l-1.28125-13.394532c-.097656-1.160156.503906-2.261718 1.527344-2.808594zm28.6875 182.492188 5.429687 13.3125c-6.378906-1.402344-12.480468-3.859375-18.050781-7.269531 3.820313-2.742188 8.09375-4.785157 12.621094-6.042969zm191.53125 194.332031c-5.101563 6.320313-42.238281 16.988281-102.3125 16.988281s-97.214844-10.667968-102.316407-16.988281c0-.199219-.078124-.375-.085937-.566406v-13.96875c30.773437 13.929687 93.246094 14.457031 102.402344 14.457031s71.628906-.527344 102.398437-14.457031v13.96875c0 .199219-.085937.367187-.085937.566406zm-28.6875-178.699219c2.671875-6.257812 5.183593-12.230468 7.527343-17.917968 7.277344 1.378906 14.230469 4.132812 20.476563 8.113281-8.570313 5.136719-18.101563 8.472656-28.003906 9.804687zm-6.886719-166.621093c7.410156-20.949219 24.234375-37.203125 45.429688-43.878907-.605469 14.125 2.246093 28.1875 8.304687 40.960938.128906.386719.285156.765625.476563 1.125.65625 1.527344 1.265624 2.785156 1.914062 4.125l.152344.324219c1.867187 5.4375 1.867187 11.34375 0 16.78125-5.8125 14.679687-22.375 21.917969-37.09375 16.214843-5.34375-1.828124-10.09375-5.074218-13.738282-9.386718-.40625-.96875-.984374-1.859375-1.707031-2.621094-.078125-.074219-.179687-.101562-.257812-.167969-.613281-.824219-1.183594-1.675781-1.707031-2.5625-3.476563-6.417969-4.117188-14-1.773438-20.914062zm0 0" fill="#428dff"/><path d="m82.492188 494.078125-1.171876 1.132813c-.378906.429687-.699218.90625-.953124 1.417968-.304688.449219-.542969.941406-.710938 1.460938-.175781.554687-.308594 1.125-.398438 1.703125-.277343 2.257812.335938 4.53125 1.707032 6.34375.71875.886719 1.609375 1.617187 2.617187 2.15625 3.085938 1.636719 6.835938 1.339843 9.625-.757813.855469-.742187 1.554688-1.644531 2.066407-2.65625.535156-.980468.867187-2.058594.972656-3.171875.167968-2.246093-.511719-4.476562-1.902344-6.246093-1.417969-1.710938-3.4375-2.820313-5.640625-3.097657-2.210937-.199219-4.417969.410157-6.210937 1.714844zm0 0" fill="#428dff"/></svg>