<?xml version="1.0" encoding="utf-8"?>
<!-- Generator: Adobe Illustrator 22.1.0, SVG Export Plug-In . SVG Version: 6.00 Build 0)  -->
<svg version="1.1" xmlns="http://www.w3.org/2000/svg" xmlns:xlink="http://www.w3.org/1999/xlink" x="0px" y="0px"
   viewBox="0 0 799.9 799.9" style="enable-background:new 0 0 799.9 799.9;" xml:space="preserve">
<style type="text/css">
  .st0{fill:#214A81;}
  .st1{fill:#F2F2F2;}
  .st2{fill:#DDDDDD;}
  .st3{fill:#E6E6E6;}
  .st4{fill:#84B4FE;}
  .st5{fill:url(#SVGID_1_);}
  .st6{fill:url(#SVGID_2_);}
  .st7{fill:#FFD474;}
  .st8{fill:#F9CD53;}
  .st9{fill:#C7B299;}
  .st10{fill:#FFF0C2;}
  .st11{fill:#4D4D4D;}
  .st12{fill:none;stroke:#84B4FE;stroke-width:7;stroke-miterlimit:10;}
</style>
<g id="Background">
</g>
<g id="Objects">
  <g>

      <rect x="180.9" y="185.2" transform="matrix(0.139 -0.9903 0.9903 0.139 10.1158 760.3503)" class="st0" width="522.8" height="378.4"/>
    <polygon class="st1" points="622.3,636.4 243.3,636.4 243.3,156.3 297.4,113.4 622.3,113.4    "/>
    <polygon class="st2" points="244,156.4 285.9,169.3 297.4,113.4    "/>
    <rect x="273.3" y="198.4" class="st3" width="319" height="11"/>
    <rect x="273.3" y="240.4" class="st3" width="319" height="11"/>
    <rect x="273.3" y="282.4" class="st3" width="319" height="10"/>
    <rect x="273.3" y="323.4" class="st3" width="319" height="11"/>
    <rect x="273.3" y="365.4" class="st3" width="319" height="10"/>
    <rect x="273.3" y="405.4" class="st3" width="319" height="11"/>
    <rect x="273.3" y="447.4" class="st3" width="163" height="11"/>
    <rect x="288.3" y="517.4" class="st4" width="91" height="9"/>
    <linearGradient id="SVGID_1_" gradientUnits="userSpaceOnUse" x1="138.764" y1="348.636" x2="304.2411" y2="348.636">
      <stop  offset="0.3818" style="stop-color:#000000;stop-opacity:0"/>
      <stop  offset="1" style="stop-color:#000000;stop-opacity:0.4"/>
    </linearGradient>
    <path class="st5" d="M304.2,379.9l-7.8-21l0,0l-3.4-8.7c-1.7-4.4-6.7-6.7-11.2-5L243,360.1c-30.2-10.2-30.3-56.9-30.3-56.9l-0.1,0
      c0.6-4.4,0.1-9.1-1.6-13.6c-5.5-14.3-21.5-21.4-35.8-15.9c-14.3,5.5-21.4,21.5-15.9,35.8c1.7,4.5,4.5,8.2,7.9,11.1l-0.2,0.2
      c0,0,31.2,34.8,15.6,62.6l-38.2,14.7c-4.4,1.7-6.7,6.7-5,11.1l4.6,11.9l1.7,4.3L304.2,379.9z"/>
    <rect x="288.3" y="532.4" class="st4" width="45" height="9"/>
    <linearGradient id="SVGID_2_" gradientUnits="userSpaceOnUse" x1="436.2005" y1="576.7375" x2="673.1595" y2="576.7375">
      <stop  offset="0.3818" style="stop-color:#000000;stop-opacity:0"/>
      <stop  offset="1" style="stop-color:#000000;stop-opacity:0.4"/>
    </linearGradient>
    <path class="st6" d="M660,671l-7.9-8.4L476.5,474.8l-0.1,0.1l-30.1-18l0.1-0.1l-10.2-6.1l5.5,10.5l15.9,31.3l-0.1,0.1l175.6,187.8
      l7.9,8.4l13.2,14.1l19-17.8L660,671z"/>
    <g>

        <rect x="538.6" y="458.2" transform="matrix(0.7606 -0.6492 0.6492 0.7606 -250.9248 492.8949)" class="st7" width="8.7" height="257.1"/>

        <rect x="545.2" y="452.6" transform="matrix(0.7606 -0.6492 0.6492 0.7606 -245.7035 495.9027)" class="st8" width="8.7" height="257.1"/>

        <rect x="551.8" y="446.9" transform="matrix(0.7607 -0.6491 0.6491 0.7607 -240.4606 498.7057)" class="st7" width="8.7" height="257.1"/>
      <polygon class="st9" points="437.2,449.5 437.2,449.5 456.3,491.7 475.9,475      "/>

        <rect x="623.7" y="677.5" transform="matrix(0.7606 -0.6492 0.6492 0.7606 -291.1461 576.8937)" class="st10" width="26" height="11.6"/>

        <rect x="633.7" y="685.3" transform="matrix(0.7606 -0.6492 0.6492 0.7606 -296.3646 586.2391)" class="st4" width="26" height="19.3"/>
      <polygon class="st11" points="436.8,449 441.7,459.8 446.7,455.5       "/>
    </g>
    <rect x="278.8" y="507.9" class="st12" width="134" height="41"/>
    <g>

        <rect x="128.4" y="393.5" transform="matrix(0.9639 -0.2663 0.2663 0.9639 -98.9863 70.5766)" class="st4" width="164.7" height="13.7"/>
      <path class="st10" d="M210,294.6c4.1,14.8-4.6,30-19.3,34.1c-14.8,4.1-30-4.6-34.1-19.3c-4.1-14.8,4.6-30,19.3-34.1
        C190.7,271.2,205.9,279.8,210,294.6z"/>
      <path class="st10" d="M163.1,321.3c0,0,31.3,42.6,5.4,68.7l31.4,9.7l10.1-9.1l-22.7-82.1L163.1,321.3z"/>
      <path class="st10" d="M210.4,308.2c0,0-5,52.7,30.6,61.7l-21.9,24.4l-13.4-2.6l-22.7-82.1L210.4,308.2z"/>
      <path class="st10" d="M285.8,362.8c-1.3-4.6-6-7.3-10.6-6L133.1,396c-4.6,1.3-7.3,6-6,10.6l4,14.6l158.7-43.9L285.8,362.8z"/>
    </g>
  </g>
</g>
</svg>
