<?xml version="1.0" encoding="utf-8"?>
<!-- Generator: Adobe Illustrator 22.1.0, SVG Export Plug-In . SVG Version: 6.00 Build 0)  -->
<svg version="1.1" id="Capa_1" xmlns="http://www.w3.org/2000/svg" xmlns:xlink="http://www.w3.org/1999/xlink" x="0px" y="0px"
	 viewBox="0 0 13 13" style="enable-background:new 0 0 13 13;" xml:space="preserve">
<style type="text/css">
	.st0{fill:#FF7474;}
</style>
<path class="st0" d="M7.8,6.5l3.7-3.7c0.3-0.3,0.3-0.9,0-1.3c-0.3-0.3-0.9-0.3-1.3,0L6.5,5.3L2.8,1.6c-0.3-0.3-0.9-0.3-1.3,0
	s-0.3,0.9,0,1.3l3.7,3.7l-3.7,3.7c-0.3,0.3-0.3,0.9,0,1.3c0.3,0.3,0.9,0.3,1.3,0l3.7-3.7l3.7,3.7c0.3,0.3,0.9,0.3,1.3,0
	c0.3-0.3,0.3-0.9,0-1.3L7.8,6.5z"/>
</svg>
