<svg height="512.00003pt" viewBox="0 0 512.00003 512.00003" width="512.00003pt" xmlns="http://www.w3.org/2000/svg"><path d="m25.601562 110.933594h460.796876c9.425781 0 17.066406 7.640625 17.066406 17.066406v34.132812c0 9.425782-7.640625 17.066407-17.066406 17.066407h-460.796876c-9.425781 0-17.066406-7.640625-17.066406-17.066407v-34.132812c0-9.425781 7.640625-17.066406 17.066406-17.066406zm0 0" fill="#7fabfa"/><path d="m25.601562 332.800781h460.796876c9.425781 0 17.066406 7.640625 17.066406 17.066407v34.132812c0 9.425781-7.640625 17.066406-17.066406 17.066406h-460.796876c-9.425781 0-17.066406-7.640625-17.066406-17.066406v-34.132812c0-9.425782 7.640625-17.066407 17.066406-17.066407zm0 0" fill="#7fabfa"/><path d="m460.800781 128v34.132812c.140625 9.242188-7.203125 16.867188-16.445312 17.066407h-419.378907c-9.242187-.199219-16.585937-7.824219-16.441406-17.066407v-34.132812c-.144531-9.242188 7.199219-16.867188 16.441406-17.066406h419.378907c9.242187.199218 16.585937 7.824218 16.445312 17.066406zm0 0" fill="#a4c2f7"/><path d="m460.800781 349.867188v34.132812c.140625 9.242188-7.203125 16.867188-16.445312 17.066406h-419.378907c-9.242187-.199218-16.585937-7.824218-16.441406-17.066406v-34.132812c-.144531-9.242188 7.199219-16.867188 16.441406-17.066407h419.378907c9.242187.199219 16.585937 7.824219 16.445312 17.066407zm0 0" fill="#a4c2f7"/><path d="m170.667969 26.113281v221.867188c.097656-9.550781-7.519531-17.398438-17.066407-17.582031h-25.601562c-9.550781.183593-17.167969 8.03125-17.066406 17.582031v-221.867188c-.101563-9.550781 7.515625-17.398437 17.066406-17.578125h25.601562c9.546876.179688 17.164063 8.027344 17.066407 17.578125zm0 0" fill="#d4e1f4"/><path d="m110.933594 66.988281v156.414063c-.558594 8.9375-8.117188 15.816406-17.066406 15.53125h-25.601563c-9.058594.320312-16.683594-6.730469-17.066406-15.785156v-156.160157c.382812-9.058593 8.007812-16.109375 17.066406-15.789062h25.601563c9.058593-.320313 16.683593 6.730469 17.066406 15.789062zm0 0" fill="#d4e1f4"/><path d="m401.066406 26.113281v221.867188c.101563-9.550781-7.515625-17.398438-17.066406-17.582031h-25.601562c-9.546876.183593-17.164063 8.03125-17.066407 17.582031v-221.867188c-.097656-9.550781 7.519531-17.398437 17.066407-17.578125h25.601562c9.550781.179688 17.167969 8.027344 17.066406 17.578125zm0 0" fill="#a4c2f7"/><path d="m460.800781 66.988281v156.160157c-.382812 9.054687-8.007812 16.105468-17.066406 15.785156h-25.601563c-8.949218.285156-16.507812-6.59375-17.066406-15.53125v-156.414063c.382813-9.058593 8.007813-16.109375 17.066406-15.789062h25.601563c9.058594-.320313 16.683594 6.730469 17.066406 15.789062zm0 0" fill="#a4c2f7"/><path d="m170.667969 247.980469v237.90625c.097656 9.550781-7.519531 17.398437-17.066407 17.578125h-25.601562c-9.550781-.179688-17.167969-8.027344-17.066406-17.578125v-237.90625c-.101563-9.550781 7.515625-17.398438 17.066406-17.582031h25.601562c9.546876.183593 17.164063 8.03125 17.066407 17.582031zm0 0" fill="#d4e1f4"/><path d="m110.933594 288.851562v156.417969c-.558594 8.9375-8.117188 15.816407-17.066406 15.53125h-25.601563c-9.058594.320313-16.683594-6.730469-17.066406-15.789062v-156.160157c.382812-9.054687 8.007812-16.105468 17.066406-15.785156h25.601563c9.058593-.320312 16.683593 6.730469 17.066406 15.785156zm0 0" fill="#d4e1f4"/><path d="m401.066406 247.980469v237.90625c.101563 9.550781-7.515625 17.398437-17.066406 17.578125h-25.601562c-9.546876-.179688-17.164063-8.027344-17.066407-17.578125v-237.90625c-.097656-9.550781 7.519531-17.398438 17.066407-17.582031h25.601562c9.550781.183593 17.167969 8.03125 17.066406 17.582031zm0 0" fill="#a4c2f7"/><path d="m375.464844 26.113281v221.867188c.101562-9.550781-7.515625-17.398438-17.066406-17.582031h-17.066407v-204.285157c0-9.425781 7.640625-17.066406 17.066407-17.066406 9.425781 0 17.066406 7.640625 17.066406 17.066406zm0 0" fill="#d4e1f4"/><path d="m375.464844 247.980469v237.90625c0 9.425781-7.640625 17.066406-17.066406 17.066406-9.425782 0-17.066407-7.640625-17.066407-17.066406v-255.488281h17.066407c9.550781.183593 17.167968 8.03125 17.066406 17.582031zm0 0" fill="#d4e1f4"/><path d="m460.800781 288.851562v156.160157c-.382812 9.058593-8.007812 16.109375-17.066406 15.789062h-25.601563c-8.949218.285157-16.507812-6.59375-17.066406-15.53125v-156.417969c.382813-9.054687 8.007813-16.105468 17.066406-15.785156h25.601563c9.058594-.320312 16.683594 6.730469 17.066406 15.785156zm0 0" fill="#a4c2f7"/><path d="m435.199219 66.988281v156.160157c-.671875 8.878906-8.042969 15.761718-16.949219 15.828124-8.90625.066407-16.375-6.703124-17.183594-15.574218v-156.414063c.691406-8.914062 8.125-15.796875 17.066406-15.796875 8.941407 0 16.375 6.882813 17.066407 15.796875zm0 0" fill="#d4e1f4"/><path d="m435.199219 288.851562v156.160157c-.671875 8.882812-8.042969 15.765625-16.949219 15.832031s-16.375-6.703125-17.183594-15.574219v-156.417969c.691406-8.914062 8.125-15.792968 17.066406-15.792968 8.941407 0 16.375 6.878906 17.066407 15.792968zm0 0" fill="#d4e1f4"/><g fill="#fff"><path d="m68.265625 460.800781h25.601563c-9.0625.320313-16.683594-6.730469-17.066407-15.789062v-43.945313h-25.601562v43.945313c.382812 9.058593 8.007812 16.109375 17.066406 15.789062zm0 0"/><path d="m76.800781 288.851562c.382813-9.054687 8.003907-16.105468 17.066407-15.785156h-25.601563c-9.058594-.320312-16.683594 6.730469-17.066406 15.785156v43.949219h25.601562zm0 0"/><path d="m68.265625 238.933594h25.601563c-9.0625.320312-16.683594-6.730469-17.066407-15.785156v-43.949219h-25.601562v43.949219c.382812 9.054687 8.007812 16.105468 17.066406 15.785156zm0 0"/><path d="m76.800781 66.988281c.382813-9.058593 8.003907-16.109375 17.066407-15.789062h-25.601563c-9.058594-.320313-16.683594 6.730469-17.066406 15.789062v43.945313h25.601562zm0 0"/><path d="m24.976562 179.199219h25.601563c-9.242187-.199219-16.585937-7.824219-16.445313-17.066407v-34.132812c-.140624-9.242188 7.203126-16.867188 16.445313-17.066406h-25.601563c-9.242187.199218-16.585937 7.824218-16.441406 17.066406v34.132812c-.144531 9.242188 7.199219 16.867188 16.441406 17.066407zm0 0"/><path d="m24.976562 401.066406h25.601563c-9.242187-.199218-16.585937-7.824218-16.445313-17.066406v-34.132812c-.140624-9.242188 7.203126-16.867188 16.445313-17.066407h-25.601563c-9.242187.199219-16.585937 7.824219-16.441406 17.066407v34.132812c-.144531 9.242188 7.199219 16.867188 16.441406 17.066406zm0 0"/><path d="m170.667969 392.535156h170.664062v17.066406h-170.664062zm0 0"/></g><path d="m486.398438 102.398438h-17.066407v-35.394532c-.371093-13.78125-11.816406-24.660156-25.597656-24.335937h-25.601563c-2.90625.027343-5.789062.53125-8.53125 1.492187v-18.046875c.121094-14.273437-11.328124-25.953125-25.601562-26.113281h-25.601562c-14.269532.160156-25.722657 11.839844-25.597657 26.113281v76.285157h-153.601562v-76.285157c.125-14.273437-11.328125-25.953125-25.597657-26.113281h-25.601562c-14.273438.160156-25.722656 11.839844-25.601562 26.113281v18.046875c-2.742188-.960937-5.625-1.464844-8.53125-1.492187h-25.601563c-13.78125-.324219-25.226563 10.554687-25.597656 24.335937v35.394532h-17.066407c-14.140624 0-25.601562 11.464843-25.601562 25.601562v34.132812c0 14.140626 11.460938 25.601563 25.601562 25.601563h17.066407v35.394531c.371093 13.78125 11.816406 24.664063 25.597656 24.335938h25.601563c2.90625-.023438 5.792968-.535156 8.53125-1.507813v20.070313c-2.742188-.960938-5.625-1.464844-8.53125-1.492188h-25.601563c-13.78125-.328125-25.226563 10.554688-25.597656 24.335938v35.394531h-17.066407c-14.140624 0-25.601562 11.460937-25.601562 25.601563v34.132812c0 14.136719 11.460938 25.601562 25.601562 25.601562h17.066407v35.394532c.371093 13.78125 11.816406 24.660156 25.597656 24.335937h25.601563c2.90625-.027343 5.792968-.535156 8.53125-1.507812v18.0625c-.121094 14.273437 11.328124 25.953125 25.601562 26.113281h25.601562c14.269532-.160156 25.722657-11.839844 25.597657-26.113281v-76.285157h25.601562c4.710938 0 8.53125-3.820312 8.53125-8.535156 0-4.710937-3.820312-8.53125-8.53125-8.53125h-25.601562v-51.203125h153.601562v51.203125h-59.734375c-4.710937 0-8.53125 3.820313-8.53125 8.53125 0 4.714844 3.820313 8.535156 8.53125 8.535156h59.734375v76.285157c-.125 14.273437 11.328125 25.953125 25.597657 26.113281h25.601562c14.273438-.160156 25.722656-11.839844 25.601562-26.113281v-18.0625c2.738282.972656 5.625 1.480469 8.53125 1.507812h25.601563c13.78125.324219 25.226563-10.554687 25.597656-24.335937v-35.394532h17.066407c14.140624 0 25.601562-11.464843 25.601562-25.601562v-34.132812c0-14.140626-11.460938-25.601563-25.601562-25.601563h-17.066407v-35.394531c-.371093-13.78125-11.816406-24.664063-25.597656-24.335938h-25.601563c-2.90625.027344-5.789062.53125-8.53125 1.492188v-20.070313c2.738282.972657 5.625 1.484375 8.53125 1.507813h25.601563c13.78125.328125 25.226563-10.554688 25.597656-24.335938v-35.394531h17.066407c14.140624 0 25.601562-11.460937 25.601562-25.601563v-34.132812c0-14.136719-11.460938-25.601562-25.601562-25.601562zm-128-85.332032h25.601562c4.824219.207032 8.605469 4.21875 8.535156 9.046875v197.359375c-2.730468-1.03125-5.617187-1.574218-8.535156-1.605468h-25.601562c-2.914063.03125-5.804688.574218-8.53125 1.605468v-197.359375c-.074219-4.828125 3.707031-8.839843 8.53125-9.046875zm-25.597657 102.398438v51.203125h-153.601562v-51.203125zm-213.335937-93.351563c-.070313-4.828125 3.710937-8.839843 8.535156-9.046875h25.601562c4.824219.207032 8.605469 4.21875 8.53125 9.046875v197.359375c-2.726562-1.03125-5.617187-1.574218-8.53125-1.605468h-25.601562c-2.917969.03125-5.804688.574218-8.535156 1.605468zm-93.863282 144.554688c-4.714843 0-8.535156-3.820313-8.535156-8.535157v-34.132812c0-4.710938 3.820313-8.535156 8.535156-8.535156h17.066407v51.203125zm68.265626 59.730469h-25.601563c-4.332031.261718-8.101563-2.949219-8.53125-7.269532v-156.125c.429687-4.320312 4.199219-7.53125 8.53125-7.269531h25.601563c4.335937-.261719 8.101562 2.949219 8.53125 7.269531v156.160156c-.429688 4.316407-4.203126 7.515626-8.53125 7.234376zm-68.265626 162.136718c-4.714843 0-8.535156-3.824218-8.535156-8.535156v-34.132812c0-4.714844 3.820313-8.535157 8.535156-8.535157h17.066407v51.203125zm68.265626 59.730469h-25.601563c-4.332031.261719-8.101563-2.949219-8.53125-7.269531v-156.160156c.449219-4.308594 4.210937-7.496094 8.53125-7.234376h25.601563c4.335937-.261718 8.101562 2.949219 8.53125 7.269532v156.160156c-.429688 4.316406-4.203126 7.515625-8.53125 7.234375zm68.265624 33.621094c.074219 4.828125-3.707031 8.839843-8.53125 9.046875h-25.601562c-4.824219-.207032-8.605469-4.21875-8.535156-9.046875v-237.90625c-.070313-4.828125 3.710937-8.839844 8.535156-9.046875h25.601562c4.824219.207031 8.605469 4.21875 8.53125 9.046875zm17.066407-161.621094v-136.53125h153.601562v136.53125zm307.199219 17.066406c4.714843 0 8.535156 3.820313 8.535156 8.535157v34.132812c0 4.710938-3.820313 8.535156-8.535156 8.535156h-17.066407v-51.203125zm-68.265626-59.730469h25.601563c4.332031-.261718 8.101563 2.949219 8.53125 7.269532v156.160156c-.449219 4.304688-4.210937 7.496094-8.53125 7.234375h-25.601563c-4.257812.285156-7.996093-2.796875-8.53125-7.03125v-156.363281c.429688-4.320313 4.195313-7.53125 8.53125-7.269532zm-25.597656 7.269532v197.015625c.070313 4.828125-3.710937 8.839843-8.535156 9.046875h-25.601562c-4.824219-.207032-8.605469-4.21875-8.53125-9.046875v-237.90625c-.074219-4.828125 3.707031-8.839844 8.53125-9.046875h25.601562c4.824219.207031 8.605469 4.21875 8.535156 9.046875zm59.730469-65.707032c-.449219 4.308594-4.210937 7.496094-8.53125 7.234376h-25.601563c-4.257812.285156-7.996093-2.796876-8.53125-7.03125v-156.363282c.429688-4.320312 4.195313-7.53125 8.53125-7.269531h25.601563c4.332031-.261719 8.101563 2.949219 8.53125 7.269531zm42.667969-61.03125c0 4.714844-3.820313 8.535157-8.535156 8.535157h-17.066407v-51.203125h17.066407c4.714843 0 8.535156 3.824218 8.535156 8.535156zm0 0" fill="#428dff"/><path d="m244.992188 407.125c.769531-.816406 1.378906-1.769531 1.792968-2.816406.4375-1.023438.667969-2.125.679688-3.242188.023437-3.464844-2.058594-6.601562-5.257813-7.929687-3.203125-1.332031-6.890625-.589844-9.332031 1.871093l-1.023438 1.28125c-.324218.472657-.582031.992188-.769531 1.535157-.246093.484375-.417969 1-.511719 1.535156-.09375.566406-.152343 1.136719-.171874 1.707031.035156 2.257813.917968 4.421875 2.476562 6.058594.816406.773438 1.769531 1.378906 2.816406 1.792969 3.183594 1.285156 6.824219.585937 9.300782-1.792969zm0 0" fill="#428dff"/></svg>