<?xml version="1.0" encoding="iso-8859-1"?>
<!-- Generator: Adobe Illustrator 19.0.0, SVG Export Plug-In . SVG Version: 6.00 Build 0)  -->
<svg version="1.1" id="Capa_1" xmlns="http://www.w3.org/2000/svg" xmlns:xlink="http://www.w3.org/1999/xlink" x="0px" y="0px"
	 viewBox="0 0 511.766 511.766" style="enable-background:new 0 0 511.766 511.766;" xml:space="preserve">
<g>
	<g transform="translate(0 1)">
		<g>
			<path style="fill:#46B29D;" d="M325.015,489.204c-1.877,1.28-3.84,2.475-5.717,3.499"/>
			<path style="fill:#46B29D;" d="M393.197,155.636c6.64,6.929,12.532,14.537,17.579,22.699c2.133,3.499,4.181,7.083,5.973,10.752"
				/>
			<path style="fill:#46B29D;" d="M421.869,200.522c-1.536-3.84-3.243-7.595-5.12-11.349"/>
			<path style="fill:#46B29D;" d="M426.05,212.725c-1.189-4.107-2.585-8.151-4.181-12.117"/>
		</g>
		<path style="fill:#B2CDF8;" d="M435.01,278.09c0,52.651-14.763,105.216-32.939,132.437
			c-16.093,24.216-35.577,45.999-57.856,64.683c-6.125,5.031-12.535,9.704-19.2,13.995c-1.877,1.195-3.84,2.389-5.717,3.499
			c-1.877,1.109-3.755,2.133-5.632,3.072c-12.131,6.199-26.051,7.95-39.339,4.949c-3.178-0.622-6.291-1.536-9.301-2.731
			c-13.776-5.785-28.434-9.19-43.349-10.069c-4.27,0.016-8.528,0.445-12.715,1.28c-10.482,1.889-20.746,4.834-30.635,8.789
			c-11.08,4.332-23.196,5.282-34.816,2.731c-4.81-1.021-9.459-2.686-13.824-4.949c-1.792-0.939-3.669-1.963-5.547-3.072
			s-3.84-2.304-5.717-3.499c-6.698-4.242-13.112-8.917-19.2-13.995c-22.279-18.684-41.763-40.466-57.856-64.683
			C23.191,383.306,8.429,330.741,8.429,278.09c-0.304-22.114,2.717-44.149,8.96-65.365c1.28-4.096,2.645-8.192,4.181-12.117v-0.085
			c1.621-3.84,3.328-7.68,5.12-11.349v-0.085c1.877-3.669,3.925-7.253,6.059-10.752c4.991-8.178,10.857-15.789,17.493-22.699
			c14.624-15.607,34.307-25.524,55.552-27.989c0.03-0.04,0.078-0.064,0.128-0.064s0.098,0.024,0.128,0.064
			c21.653-1.446,43.387,1.159,64.085,7.68c12.771,3.318,25.739,5.826,38.827,7.509c8.448,0.939,12.715,0.939,12.715,0.939
			c17.445-0.854,34.737-3.688,51.541-8.448c12.66-3.584,25.587-6.153,38.656-7.68c30.041-4.395,60.35,6.036,81.323,27.989
			c4.838,5.063,9.288,10.482,13.312,16.213c1.365,2.133,2.816,4.267,4.181,6.485c2.133,3.499,4.181,7.083,6.059,10.752v0.085
			c1.792,3.669,3.499,7.509,5.12,11.349v0.085c1.536,3.925,2.901,8.021,4.181,12.117C432.21,233.959,435.229,255.981,435.01,278.09z
			"/>
		<path style="fill:#E7EBF4;" d="M409.495,278.09c0,52.651-14.763,105.216-32.939,132.437
			c-16.093,24.216-35.577,45.999-57.856,64.683c-6.125,5.031-12.536,9.704-19.2,13.995c-1.877,1.195-3.84,2.389-5.717,3.499
			s-3.755,2.133-5.632,3.072c-4.365,2.264-9.015,3.928-13.824,4.949c-3.178-0.622-6.291-1.536-9.301-2.731
			c-13.776-5.785-28.434-9.19-43.349-10.069c-4.27,0.016-8.528,0.445-12.715,1.28c-4.216-0.836-8.502-1.264-12.8-1.28
			c-14.915,0.879-29.573,4.284-43.349,10.069c-3.01,1.195-6.123,2.109-9.301,2.73c-4.81-1.021-9.459-2.686-13.824-4.949
			c-1.792-0.939-3.669-1.963-5.547-3.072s-3.84-2.304-5.717-3.499c-6.698-4.242-13.112-8.917-19.2-13.995
			c-22.279-18.684-41.763-40.466-57.856-64.683C23.191,383.306,8.429,330.741,8.429,278.09c-0.304-22.114,2.717-44.149,8.96-65.365
			c1.28-4.096,2.645-8.192,4.181-12.117v-0.085c1.621-3.84,3.328-7.68,5.12-11.349v-0.085c1.877-3.669,3.925-7.253,6.059-10.752
			c4.991-8.178,10.857-15.789,17.493-22.699c14.624-15.607,34.307-25.524,55.552-27.989c0.03-0.04,0.078-0.064,0.128-0.064
			s0.098,0.024,0.128,0.064c13.033,1.577,25.927,4.144,38.571,7.68c16.805,4.76,34.096,7.595,51.541,8.448c0,0,4.267,0,12.8-0.939
			c13.053-1.72,25.991-4.228,38.741-7.509c20.727-6.526,42.489-9.131,64.171-7.68c21.344,2.38,41.136,12.307,55.808,27.989
			c6.637,6.91,12.502,14.521,17.493,22.699c2.133,3.499,4.181,7.083,6.059,10.752v0.085c1.792,3.669,3.499,7.509,5.12,11.349v0.085
			c1.536,3.925,2.901,8.021,4.181,12.117C406.696,233.959,409.714,255.981,409.495,278.09z"/>
		<g>
			<path style="fill:#46B29D;" d="M124.141,492.703c-1.877-1.024-3.84-2.219-5.717-3.499"/>
			<path style="fill:#46B29D;" d="M26.69,189.087c1.792-3.669,3.84-7.253,5.973-10.752c5.047-8.162,10.939-15.77,17.579-22.699"/>
			<path style="fill:#46B29D;" d="M26.69,189.173c-1.877,3.755-3.584,7.509-5.12,11.349"/>
			<path style="fill:#46B29D;" d="M21.57,200.607c-1.597,3.966-2.992,8.01-4.181,12.117"/>
		</g>
		<path style="fill:#14A085;" d="M251.287,81.396l-0.085,0.085"/>
		<g>
			<path style="fill:#E7EBF4;" d="M281.495,297.29v-16.981c0-4.713-3.821-8.533-8.533-8.533h-102.4c-4.713,0-8.533,3.82-8.533,8.533
				v102.4c0,4.713,3.82,8.533,8.533,8.533h103.765L281.495,297.29z"/>
			<path style="fill:#E7EBF4;" d="M383.895,318.375c25.151-45.95,75.452-45.95,100.604-22.975
				c25.151,22.974,25.151,68.925,0,114.876c-17.607,34.462-62.878,68.925-100.604,91.9c-37.726-22.975-82.997-57.438-100.604-91.9
				c-25.15-45.951-25.15-91.901,0-114.876C308.442,272.425,358.744,272.425,383.895,318.375z"/>
			<path style="fill:#E7EBF4;" d="M391.319,10.57h-0.085c-31.563-2.536-63.235-3.447-94.891-2.731
				c-37.632,1.365-62.123,33.963-56.747,56.576c1.78,6.858,5.919,12.87,11.691,16.981c14.08,10.581,38.571,14.336,64.341,8.277
				c36.693-8.704,77.824-78.933,77.824-78.933S392.685,10.655,391.319,10.57z"/>
			<path style="fill:#E7EBF4;" d="M393.453,10.74c0,0-41.131,70.229-77.824,78.933c-25.771,6.059-50.261,2.304-64.341-8.277
				c14.788-15.619,33.368-27.143,53.931-33.451c32.939-7.851,41.301-9.813,86.016-37.376h0.085
				C392.685,10.655,393.453,10.74,393.453,10.74z"/>
		</g>
		<path style="fill:#14A085;" d="M391.575,10.399c-0.085,0.085-0.171,0.085-0.256,0.171"/>
		<path style="fill:#B2CDF8;" d="M484.503,410.271c-17.579,34.475-62.891,68.949-100.608,91.904c-4.181-2.56-8.448-5.205-12.8-8.107
			c34.645-22.528,72.192-53.163,87.808-83.797c25.173-45.909,25.173-91.904,0-114.859c-7.887-7.037-17.527-11.813-27.904-13.824
			c19.015-4.008,38.81,1.106,53.504,13.824C509.677,318.367,509.677,364.362,484.503,410.271z"/>
	</g>
	<g>
		<g>
			<path style="fill:#FFFFFF;" d="M99.223,476.21c6.088,5.078,12.502,9.753,19.2,13.995c1.877,1.195,3.84,2.389,5.717,3.499
				s3.755,2.133,5.547,3.072c4.365,2.264,9.014,3.928,13.824,4.949c8.424,1.852,17.15,1.849,25.573-0.007
				c-4.8-1.02-9.441-2.683-13.797-4.942c-1.792-0.939-3.669-1.963-5.547-3.072s-3.84-2.304-5.717-3.499
				c-6.698-4.242-13.112-8.917-19.2-13.995c-22.279-18.684-41.763-40.466-57.856-64.683
				c-18.176-27.221-32.939-79.787-32.939-132.437c-0.304-22.114,2.717-44.149,8.96-65.365c1.28-4.096,2.645-8.192,4.181-12.117
				v-0.085c1.621-3.84,3.328-7.68,5.12-11.349v-0.085c1.792-3.669,3.84-7.253,5.973-10.752c5.047-8.162,10.939-15.77,17.579-22.699
				c14.624-15.607,34.307-25.524,55.552-27.989c0.03-0.04,0.078-0.064,0.128-0.064c0.05,0,0.098,0.024,0.128,0.064l0.219-0.017
				c-8.58-0.953-17.24-0.947-25.819,0.017c-0.03-0.04-0.078-0.064-0.128-0.064s-0.098,0.024-0.128,0.064
				c-21.245,2.465-40.928,12.382-55.552,27.989c-6.64,6.929-12.532,14.537-17.579,22.699c-2.133,3.499-4.182,7.083-5.973,10.752
				v0.085c-1.792,3.669-3.499,7.509-5.12,11.349v0.085c-1.536,3.925-2.901,8.021-4.181,12.117
				c-6.243,21.217-9.264,43.251-8.96,65.365c0,52.651,14.763,105.216,32.939,132.437C57.461,435.743,76.944,457.526,99.223,476.21z"
				/>
			<path style="fill:#FFFFFF;" d="M125.847,504.355c-16.963-9.249-32.572-20.79-46.386-34.298
				c-13.767-13.118-26.322-27.452-37.511-42.828c-2.497-3.353-4.844-6.818-7.211-10.268c-2.283-3.63-4.543-7.46-6.705-11.216
				l-5.586-11.583l-4.743-11.805c-5.635-15.815-9.931-32.075-12.843-48.61c-6.156-33.083-6.471-66.988-0.933-100.179
				c5.257-34.391,22.009-65.988,47.526-89.638c13.418-11.872,29.883-19.763,47.542-22.787c17.184-2.679,34.721-2.068,51.678,1.798
				c16.66,3.529,31.747,8.084,47.396,10.615c7.6,1.387,15.281,2.28,22.996,2.675c7.602-0.245,15.176-1.043,22.662-2.387
				c15.699-2.432,30.696-6.889,47.303-10.513c16.886-4.008,34.365-4.867,51.563-2.534c17.697,2.785,34.304,10.326,48.047,21.818
				c13.165,11.43,24.078,25.219,32.178,40.658c14.883,30.719,21.998,64.621,20.721,98.731l-17.066-0.198
				c1.226-31.264-5.21-62.353-18.746-90.561c-7.071-13.471-16.573-25.517-28.027-35.531c-11.369-9.521-25.117-15.764-39.767-18.059
				c-15.151-2.003-30.542-1.196-45.401,2.38c-15.197,3.292-31.503,8.085-48.016,10.646c-8.54,1.541-17.186,2.414-25.861,2.611
				c-8.548-0.408-17.06-1.383-25.479-2.918c-16.524-2.686-32.701-7.518-47.891-10.708c-14.858-3.436-30.233-4.02-45.309-1.721
				c-14.635,2.479-28.277,9.028-39.364,18.897c-11.395,10.109-20.731,22.322-27.497,35.97c-6.919,13.83-11.771,28.6-14.401,43.839
				c-5.164,31.186-4.842,63.034,0.952,94.109c5.909,31.044,14.805,61.978,34.067,86.404c10.582,14.543,22.455,28.101,35.473,40.51
				c12.654,12.396,26.945,23.001,42.477,31.519L125.847,504.355z"/>
		</g>
		<g>
			<path style="fill:#51A1FF;" d="M51.457,143.93c-25.517,23.65-42.269,55.246-47.526,89.638
				c-5.539,33.192-5.223,67.096,0.933,100.179c2.912,16.534,7.208,32.795,12.843,48.61l4.743,11.805l5.586,11.583
				c2.162,3.756,4.421,7.586,6.705,11.216c2.366,3.451,4.714,6.915,7.211,10.268c1.697,2.38,3.472,4.701,5.264,7.008
				c1.382,1.826,3.446,3.013,5.72,3.289c2.273,0.276,4.561-0.382,6.34-1.824c3.584-2.942,4.221-8.183,1.446-11.898
				c-1.698-2.186-3.38-4.383-4.984-6.637c-19.262-24.426-28.158-55.36-34.067-86.404c-5.794-31.075-6.116-62.924-0.952-94.11
				c2.63-15.239,7.483-30.009,14.402-43.84c6.766-13.647,16.103-25.86,27.497-35.97c11.087-9.869,24.729-16.418,39.364-18.897
				c15.076-2.299,30.451-1.715,45.309,1.721c15.19,3.19,31.367,8.021,47.891,10.708c3.173,0.531,6.337,0.979,9.516,1.416v34.992
				c-9.45-0.555-18.257-4.97-24.358-12.208c-1.548-2.626-4.38-4.226-7.428-4.199c-3.048,0.028-5.85,1.68-7.35,4.333
				c-1.5,2.654-1.47,5.906,0.078,8.532c7.608,12.917,26.291,21.267,47.591,21.267s39.983-8.35,47.592-21.267
				c2.393-4.059,1.043-9.29-3.017-11.683c-4.059-2.393-9.29-1.043-11.683,3.017c-6.101,7.239-14.908,11.653-24.358,12.208v-33.53
				c8.304-0.26,16.577-1.12,24.757-2.571c16.514-2.561,32.819-7.355,48.016-10.646c14.859-3.576,30.25-4.383,45.401-2.38
				c14.65,2.295,28.398,8.538,39.767,18.059c11.454,10.014,20.956,22.06,28.027,35.531c12.642,26.076,19.031,54.739,18.661,83.716
				c-17.064,4.355-32.085,14.501-42.496,28.705c-11.52-15.824-28.742-26.549-48.025-29.908c-15.688-2.663-31.817-0.037-45.85,7.466
				c-0.055-9.386-7.673-16.969-17.059-16.983v-17.067c0-4.713-3.82-8.533-8.533-8.533s-8.533,3.821-8.533,8.533v17.067h-25.6
				v-17.067c0-4.713-3.821-8.533-8.533-8.533c-4.713,0-8.533,3.821-8.533,8.533v17.067h-25.6v-17.067
				c0-4.713-3.821-8.533-8.533-8.533c-4.713,0-8.533,3.821-8.533,8.533v17.067c-9.421,0.012-17.054,7.646-17.067,17.067h-17.067
				c-4.713,0-8.533,3.82-8.533,8.533s3.821,8.533,8.533,8.533h17.067v25.6h-17.067c-4.713,0-8.533,3.821-8.533,8.533
				s3.821,8.533,8.533,8.533h17.067v25.6h-17.067c-4.713,0-8.533,3.82-8.533,8.533s3.821,8.533,8.533,8.533h17.067
				c0.012,9.421,7.646,17.054,17.067,17.067v17.067c0,4.713,3.821,8.533,8.533,8.533c4.713,0,8.533-3.821,8.533-8.533v-17.067h25.6
				v17.067c0,4.713,3.821,8.533,8.533,8.533c4.713,0,8.533-3.821,8.533-8.533v-17.067h38.395c2.099,4.791,4.381,9.591,7.005,14.383
				c13.917,23.816,32.487,44.586,54.603,61.071c-6.464,4.852-13.303,9.184-20.453,12.954c-12.992,6.533-28.157,7.203-41.675,1.842
				c-14.721-6.262-30.437-9.863-46.417-10.633c-15.985,0.773-31.707,4.376-46.433,10.642c-13.511,5.358-28.668,4.685-41.65-1.85
				l-0.009-0.003c-9.524-5.12-18.547-11.121-26.952-17.923c-3.653-2.836-8.888-2.304-11.895,1.209
				c-1.482,1.753-2.189,4.034-1.957,6.318c0.232,2.284,1.382,4.376,3.187,5.796c9.29,7.514,19.269,14.135,29.803,19.773l0.003-0.005
				l0.021,0.017c9.435,4.826,19.886,7.331,30.483,7.308c8.589-0.009,17.102-1.608,25.108-4.717
				c12.785-5.458,26.415-8.672,40.291-9.5c13.871,0.825,27.495,4.036,40.275,9.492c18.065,7.114,38.308,6.171,55.633-2.592
				c9.392-4.977,18.315-10.793,26.66-17.377c12.909,9.47,25.292,17.491,35.131,23.485c2.73,1.656,6.154,1.656,8.883,0
				c29.858-18.192,83.042-54.75,103.642-95.092c27.008-49.325,26.308-99.667-1.725-125.275
				c-12.901-11.407-29.615-17.553-46.832-17.223c0.131-31.057-6.919-61.723-20.6-89.604c-8.1-15.439-19.013-29.228-32.178-40.658
				c-13.743-11.492-30.35-19.033-48.047-21.818c-17.197-2.332-34.677-1.473-51.563,2.534c-16.606,3.624-31.604,8.081-47.303,10.513
				c-7.486,1.344-15.06,2.142-22.662,2.387l-0.101-0.009c-0.856-6.005-2.508-11.868-4.913-17.436l28.509-30.792
				c0.151,0.123,0.341,0.217,0.493,0.339c0.045,0.047,0.058,0.111,0.105,0.158c0.817,0.816,1.793,1.457,2.866,1.883
				c12.833,8.125,27.802,12.225,42.984,11.775c8.963-0.035,17.892-1.106,26.608-3.191c39.117-9.242,78.825-75.35,83.225-82.859
				c1.478-2.528,1.557-5.637,0.21-8.237c-1.348-2.6-3.934-4.328-6.851-4.578l-0.395-0.034c-1.01-0.275-2.062-0.359-3.103-0.249
				c-31.498-2.514-63.103-3.418-94.693-2.709c-21.313,0.605-41.227,10.753-54.242,27.642c-9.197,10.942-13.05,25.408-10.517,39.475
				c0.6,2.443,1.46,4.814,2.565,7.074l-26.948,29.106c-2.421-3.098-5.106-5.98-8.025-8.614l-18.35-16.308
				c-2.278-2.024-5.462-2.68-8.354-1.72c-2.892,0.96-5.052,3.39-5.667,6.375c-0.614,2.985,0.41,6.07,2.688,8.095l18.342,16.308
				c4.197,3.745,7.749,8.156,10.511,13.056l0.036,0.07c2.38,4.224,4.148,8.763,5.253,13.484c-1.748-0.266-3.501-0.483-5.231-0.778
				c-15.649-2.532-30.736-7.086-47.396-10.615c-16.957-3.867-34.493-4.477-51.678-1.798C81.34,124.167,64.876,132.059,51.457,143.93
				z M170.562,383.708v-102.4h102.4v13.505c-18.1,20.664-21.653,53.63-10.67,88.895H170.562z M478.737,302.7
				c22.125,20.2,21.425,62.184-1.842,104.692c-18.333,35.9-68.15,70.233-93,85.758c-24.85-15.525-74.675-49.867-93.117-85.975
				c-22.539-41.175-23.732-81.997-3.365-102.769l0.214-0.222c0.484-0.486,0.918-1.02,1.426-1.484
				c9.679-8.432,22.123-13.006,34.958-12.85c3.035,0.001,6.065,0.252,9.058,0.75c18.789,3.588,34.822,15.749,43.342,32.875
				c1.631,2.554,4.453,4.1,7.483,4.1s5.852-1.546,7.483-4.1c8.52-17.126,24.553-29.287,43.342-32.875
				C450.464,287.841,466.616,292.281,478.737,302.7z M313.695,82.342c-15.831,4.175-32.541,3.592-48.043-1.677
				c11.864-10.936,26.105-18.969,41.601-23.465c20.93-3.761,41.089-10.973,59.655-21.342
				C351.63,56.078,331.184,78.212,313.695,82.342z M255.345,38.267c9.998-12.735,25.118-20.396,41.3-20.925
				c6.375-0.233,12.983-0.333,19.625-0.333c16.635,0,33.374,0.637,46.98,1.347c-18.493,10.948-38.804,18.48-59.964,22.236
				c-19.494,5.635-37.323,15.931-51.949,29.997c-1.639-2.104-2.821-4.527-3.468-7.114C246.614,54.388,249.338,45.2,255.345,38.267
				L255.345,38.267z"/>
			<path style="fill:#51A1FF;" d="M76.523,446.343c-1.112-0.005-2.215,0.197-3.252,0.596c-1.051,0.372-2.019,0.944-2.852,1.685
				c-1.657,1.554-2.654,3.685-2.785,5.953c0.016,2.304,0.9,4.517,2.477,6.197c1.614,1.657,3.809,2.62,6.121,2.686l1.642-0.173
				c0.567-0.106,1.117-0.289,1.634-0.545c0.515-0.17,1.001-0.419,1.441-0.736c0.463-0.335,0.902-0.701,1.314-1.097
				c1.549-1.637,2.445-3.785,2.517-6.038c-0.018-1.1-0.248-2.187-0.676-3.2C82.857,448.548,79.883,446.457,76.523,446.343z"/>
		</g>
	</g>
</g>
<g>
</g>
<g>
</g>
<g>
</g>
<g>
</g>
<g>
</g>
<g>
</g>
<g>
</g>
<g>
</g>
<g>
</g>
<g>
</g>
<g>
</g>
<g>
</g>
<g>
</g>
<g>
</g>
<g>
</g>
</svg>
