<?xml version="1.0" encoding="iso-8859-1"?>
<!-- Generator: Adobe Illustrator 19.0.0, SVG Export Plug-In . SVG Version: 6.00 Build 0)  -->
<svg version="1.1" id="Capa_1" xmlns="http://www.w3.org/2000/svg" xmlns:xlink="http://www.w3.org/1999/xlink" x="0px" y="0px"
	 viewBox="0 0 512 512" style="enable-background:new 0 0 512 512;" xml:space="preserve">
<g>
	<g transform="translate(1 1)">
		<path style="fill:#A4C2F7;" d="M502.467,58.733v136.533c-0.028,9.414-7.653,17.039-17.067,17.067h-68.267V255l-25.6-18.261
			L357.4,212.333H212.333c-9.414-0.028-17.039-7.653-17.067-17.067V58.733c0.028-9.414,7.652-17.039,17.067-17.067H485.4
			C494.814,41.694,502.439,49.319,502.467,58.733z"/>
		<g>
			<path style="fill:#E3E7F2;" d="M476.867,58.733v136.533c-0.028,9.414-7.653,17.039-17.067,17.067h-68.267v24.405L357.4,212.333
				H212.333c-9.414-0.028-17.039-7.653-17.067-17.067V58.733c0.028-9.414,7.652-17.039,17.067-17.067H459.8
				C469.214,41.694,476.839,49.319,476.867,58.733z"/>
			<path style="fill:#E3E7F2;" d="M502.467,485.912v16.555H314.733v-16.555c0.041-10.233,5.582-19.654,14.507-24.661l49.152-27.307
				c0.922-0.551,1.595-1.438,1.877-2.475h56.663c0.282,1.037,0.955,1.924,1.877,2.475l49.152,27.307
				C496.885,466.259,502.426,475.679,502.467,485.912z"/>
			<path style="fill:#E3E7F2;" d="M118.467,438.381c0.001,1.406,0.748,2.705,1.963,3.413c8.192,5.035,19.2,10.496,27.306,15.531
				c8.414,4.251,16.197,9.65,23.126,16.043c4.67,5.211,7.279,11.947,7.339,18.944v10.155H7.533v-10.155
				c0-13.653,9.983-22.357,20.565-28.843c11.521-6.997,25.685-14.677,37.206-21.675c1.215-0.708,1.962-2.008,1.963-3.413H118.467z"
				/>
		</g>
		<g>
			<path style="fill:#A4C2F7;" d="M165.656,434.2h-43.521c-2.13,0.217-3.73,2.042-3.668,4.181v4.352
				c-0.533,11.587-10.343,20.557-21.931,20.053h-7.337c-3.13-0.009-6.23-0.617-9.131-1.792c-7.58-2.922-12.639-10.139-12.8-18.261
				v-4.352c0.034-1.104-0.384-2.174-1.157-2.963s-1.834-1.229-2.939-1.218H19.992c-3.057,0.042-5.887-1.61-7.354-4.292
				c-1.467-2.683-1.329-5.957,0.357-8.508c12.105-18.568,20.643-39.23,25.174-60.928c1.261-5.918,1.89-11.954,1.877-18.005
				c-0.047-14.121,5.507-27.685,15.445-37.717c6.734-6.855,15.244-11.701,24.576-13.995c4.176-1.105,8.48-1.651,12.8-1.621
				c14.046-0.006,27.509,5.619,37.376,15.616c9.938,10.033,15.492,23.596,15.445,37.717c-0.013,6.051,0.616,12.087,1.877,18.005
				c4.531,21.698,13.068,42.36,25.174,60.928c1.669,2.568,1.785,5.847,0.302,8.527C171.558,432.607,168.718,434.25,165.656,434.2z"
				/>
			<path style="fill:#A4C2F7;" d="M314.733,24.6v136.533c-0.028,9.414-7.652,17.039-17.067,17.067H152.6l-59.733,42.667V178.2H24.6
				c-9.414-0.028-17.039-7.653-17.067-17.067V24.6C7.561,15.186,15.186,7.561,24.6,7.533h273.067
				C307.081,7.561,314.706,15.186,314.733,24.6z"/>
		</g>
		<path style="fill:#E3E7F2;" d="M289.133,24.6v136.533c-0.028,9.414-7.653,17.039-17.067,17.067H127l-34.133,24.405V178.2H24.6
			c-9.414-0.028-17.039-7.653-17.067-17.067V24.6C7.561,15.186,15.186,7.561,24.6,7.533h247.467
			C281.481,7.561,289.106,15.186,289.133,24.6z"/>
		<path style="fill:#A4C2F7;" d="M459.8,358.424v14.592c-0.022,4.126-1.716,8.067-4.693,10.923
			c-2.264,2.158-3.812,4.957-4.437,8.021c-2.873,8.506-7.3,16.406-13.056,23.296c-0.531,0.686-0.83,1.522-0.853,2.389v12.715
			c0.008,0.376,0.066,0.749,0.171,1.109L408.6,459.8l-28.331-28.331c0.105-0.361,0.162-0.734,0.171-1.109v-12.715
			c-0.023-0.867-0.322-1.704-0.853-2.389c-5.756-6.891-10.183-14.79-13.055-23.296c-0.625-3.064-2.174-5.864-4.437-8.021
			c-2.978-2.856-4.671-6.797-4.693-10.923v-14.592c0.009-2.407,0.594-4.777,1.707-6.912l0.854-1.707
			c1.113-2.135,1.698-4.505,1.707-6.912v-20.907c0.166-8.884,3.857-17.338,10.259-23.5c6.402-6.162,14.991-9.527,23.874-9.354h25.6
			c8.884-0.173,17.472,3.192,23.874,9.354c6.402,6.162,10.092,14.616,10.259,23.5v20.907c0.009,2.407,0.594,4.777,1.707,6.912
			l0.854,1.707C459.207,353.647,459.792,356.017,459.8,358.424z"/>
		<g>
			<path style="fill:#D4E1F4;" d="M140.056,434.2H96.963c-1.105-0.011-2.166,0.429-2.939,1.218s-1.191,1.859-1.157,2.963v4.352
				c-0.161,8.122-5.22,15.34-12.8,18.261c-7.58-2.922-12.639-10.139-12.8-18.261v-4.352c0.034-1.104-0.384-2.174-1.157-2.963
				s-1.834-1.229-2.939-1.218H19.992c-3.057,0.042-5.887-1.61-7.354-4.292c-1.467-2.683-1.329-5.957,0.357-8.508
				c12.105-18.568,20.643-39.23,25.174-60.928c1.261-5.918,1.89-11.954,1.877-18.005c-0.047-14.121,5.507-27.685,15.445-37.717
				c6.734-6.855,15.244-11.701,24.576-13.995c9.332,2.294,17.842,7.139,24.576,13.995c9.938,10.033,15.492,23.596,15.445,37.717
				c-0.013,6.051,0.616,12.087,1.877,18.005c4.531,21.698,13.068,42.36,25.174,60.928c1.669,2.568,1.785,5.847,0.302,8.527
				C145.958,432.607,143.118,434.25,140.056,434.2z"/>
			<path style="fill:#D4E1F4;" d="M434.2,358.424v14.592c-0.022,4.126-1.716,8.067-4.693,10.923
				c-2.264,2.158-3.812,4.957-4.437,8.021c-2.873,8.506-7.3,16.406-13.056,23.296c-0.531,0.686-0.83,1.522-0.853,2.389v12.715
				c0.008,0.376,0.066,0.749,0.171,1.109L395.8,447l-15.531-15.531c0.105-0.361,0.162-0.734,0.171-1.109v-12.715
				c-0.023-0.867-0.322-1.704-0.853-2.389c-5.756-6.891-10.183-14.79-13.055-23.296c-0.625-3.064-2.174-5.864-4.437-8.021
				c-2.978-2.856-4.671-6.797-4.693-10.923v-14.592c0.009-2.407,0.594-4.777,1.707-6.912l0.854-1.707
				c1.113-2.135,1.698-4.505,1.707-6.912v-20.907c0.701-18.344,15.776-32.854,34.133-32.854s33.432,14.51,34.133,32.854v20.907
				c0.009,2.407,0.594,4.777,1.707,6.912l0.854,1.707C433.607,353.647,434.192,356.017,434.2,358.424z"/>
		</g>
		<g>
			<path style="fill:#FFFFFF;" d="M33.133,492.312c0-13.653,9.983-22.357,20.565-28.843c11.521-6.997,25.685-14.677,37.206-21.675
				c1.215-0.708,1.962-2.008,1.963-3.413c0.034-1.104-0.384-2.174-1.157-2.963c-0.773-0.789-1.834-1.229-2.939-1.218h-25.6
				c1.105-0.011,2.166,0.429,2.939,1.218c0.773,0.789,1.191,1.859,1.157,2.963c-0.001,1.406-0.748,2.705-1.963,3.413
				c-11.521,6.997-25.685,14.677-37.206,21.675c-10.581,6.485-20.565,15.189-20.565,28.843v10.155h25.6V492.312z"/>
			<path style="fill:#FFFFFF;" d="M24.6,178.2h25.6c-9.414-0.028-17.039-7.653-17.067-17.067V24.6
				C33.161,15.186,40.786,7.561,50.2,7.533H24.6C15.186,7.561,7.561,15.186,7.533,24.6v136.533
				C7.561,170.548,15.186,178.172,24.6,178.2z"/>
			<path style="fill:#FFFFFF;" d="M354.84,461.251l49.152-27.307c0.922-0.551,1.595-1.438,1.877-2.475
				c0.105-0.361,0.162-0.734,0.171-1.109v-12.715c-0.023-0.867-0.322-1.704-0.853-2.389c-5.756-6.891-10.183-14.79-13.055-23.296
				c-0.625-3.064-2.174-5.864-4.437-8.021c-2.978-2.856-4.671-6.797-4.694-10.923v-14.592c0.009-2.407,0.594-4.777,1.707-6.912
				l0.854-1.707c1.113-2.135,1.698-4.505,1.707-6.912v-20.907c0.166-8.884,3.857-17.338,10.259-23.5
				c6.402-6.162,14.991-9.527,23.874-9.354h-25.6c-8.884-0.173-17.473,3.192-23.874,9.354c-6.402,6.162-10.092,14.616-10.259,23.5
				v20.907c-0.009,2.407-0.594,4.777-1.707,6.912l-0.854,1.707c-1.113,2.135-1.698,4.505-1.707,6.912v14.592
				c0.022,4.126,1.716,8.067,4.693,10.923c2.264,2.158,3.812,4.957,4.437,8.021c2.873,8.506,7.3,16.406,13.056,23.296
				c0.531,0.686,0.83,1.522,0.853,2.389v12.715c-0.008,0.376-0.066,0.749-0.171,1.109c-0.282,1.037-0.955,1.924-1.877,2.475
				l-49.152,27.307c-8.924,5.008-14.466,14.428-14.507,24.661v16.555h25.6v-16.555C340.374,475.679,345.916,466.258,354.84,461.251z
				"/>
			<path style="fill:#FFFFFF;" d="M237.933,212.333c-9.414-0.028-17.039-7.653-17.067-17.067V178.2h-25.6v17.067
				c0.028,9.414,7.653,17.039,17.067,17.067H237.933z"/>
			<path style="fill:#FFFFFF;" d="M63.769,360.472c1.261-5.918,1.89-11.954,1.877-18.005c-0.047-14.121,5.507-27.685,15.445-37.717
				c6.726-6.846,15.223-11.687,24.542-13.983c-4.172-1.067-8.46-1.615-12.766-1.633c-4.32-0.029-8.624,0.516-12.8,1.621
				c-9.332,2.294-17.842,7.139-24.576,13.995c-9.938,10.033-15.492,23.596-15.445,37.717c0.013,6.051-0.616,12.087-1.877,18.005
				C33.637,382.17,25.1,402.832,12.995,421.4c-1.686,2.551-1.823,5.825-0.357,8.508c1.467,2.683,4.297,4.335,7.354,4.292h25.6
				c-3.057,0.042-5.887-1.61-7.354-4.292c-1.467-2.683-1.329-5.957,0.357-8.508C50.7,402.832,59.237,382.17,63.769,360.472z"/>
		</g>
	</g>
	<g>
		<polygon style="fill:#FFFFFF;" points="17.067,25.6 17.067,136.533 17.067,162.133 0,162.133 0,136.533 0,25.6 		"/>
		<g>
			<path style="fill:#428DFF;" d="M136.533,42.667H51.2c-4.713,0-8.533,3.821-8.533,8.533s3.821,8.533,8.533,8.533h85.333
				c4.713,0,8.533-3.821,8.533-8.533S141.246,42.667,136.533,42.667z"/>
			<path style="fill:#428DFF;" d="M273.067,59.733c4.713,0,8.533-3.821,8.533-8.533s-3.82-8.533-8.533-8.533h-102.4
				c-4.713,0-8.533,3.821-8.533,8.533s3.821,8.533,8.533,8.533H273.067z"/>
			<path style="fill:#428DFF;" d="M51.2,145.067h85.333c4.713,0,8.533-3.821,8.533-8.533S141.246,128,136.533,128H51.2
				c-4.713,0-8.533,3.821-8.533,8.533S46.487,145.067,51.2,145.067z"/>
			<path style="fill:#428DFF;" d="M273.067,128h-102.4c-4.713,0-8.533,3.821-8.533,8.533s3.821,8.533,8.533,8.533h102.4
				c4.713,0,8.533-3.821,8.533-8.533S277.78,128,273.067,128z"/>
			<path style="fill:#428DFF;" d="M110.933,93.867c-0.001,2.264,0.897,4.435,2.498,6.035c1.601,1.601,3.772,2.499,6.035,2.498h153.6
				c4.713,0,8.533-3.821,8.533-8.533s-3.82-8.533-8.533-8.533h-153.6c-2.264-0.001-4.435,0.897-6.035,2.498
				C111.831,89.432,110.932,91.603,110.933,93.867z"/>
			<path style="fill:#428DFF;" d="M460.8,68.267H358.4c-4.713,0-8.533,3.821-8.533,8.533c0,4.713,3.82,8.533,8.533,8.533h102.4
				c4.713,0,8.533-3.82,8.533-8.533C469.333,72.087,465.513,68.267,460.8,68.267z"/>
			<path style="fill:#428DFF;" d="M460.8,153.6H358.4c-4.713,0-8.533,3.821-8.533,8.533c0,4.713,3.82,8.533,8.533,8.533h102.4
				c4.713,0,8.533-3.821,8.533-8.533C469.333,157.421,465.513,153.6,460.8,153.6z"/>
			<path style="fill:#428DFF;" d="M460.8,110.933H358.4c-4.713,0-8.533,3.821-8.533,8.533c0,4.713,3.82,8.533,8.533,8.533h102.4
				c4.713,0,8.533-3.821,8.533-8.533C469.333,114.754,465.513,110.933,460.8,110.933z"/>
			<path style="fill:#428DFF;" d="M51.2,102.4h34.133c4.713,0,8.533-3.821,8.533-8.533c0-4.713-3.821-8.533-8.533-8.533H51.2
				c-4.713,0-8.533,3.821-8.533,8.533C42.667,98.579,46.487,102.4,51.2,102.4z"/>
			<path style="fill:#428DFF;" d="M493.108,454.817l-46.817-26.083v-8.567c6.091-7.586,10.748-16.219,13.742-25.475
				c0.28-1.383,0.971-2.65,1.983-3.633c4.646-4.462,7.286-10.616,7.317-17.058v-14.583c-0.011-3.777-0.922-7.496-2.658-10.85
				L465.8,346.9c-0.479-0.919-0.731-1.939-0.733-2.975V322.95c-0.396-23.187-19.479-41.681-42.667-41.35h-25.6
				c-23.188-0.331-42.271,18.163-42.667,41.35v20.975c-0.001,1.027-0.25,2.039-0.725,2.95l-0.892,1.717
				c-1.733,3.346-2.641,7.057-2.65,10.825V374c0.036,6.449,2.681,12.609,7.333,17.075c1.003,0.982,1.688,2.242,1.967,3.617
				c2.994,9.257,7.65,17.889,13.742,25.475v8.567l-46.942,26.158c-11.504,6.567-18.651,18.754-18.767,32v16.575
				c-0.001,2.264,0.897,4.435,2.498,6.035c1.601,1.601,3.772,2.499,6.035,2.498h187.733c2.264,0.001,4.435-0.897,6.035-2.498
				c1.601-1.601,2.499-3.772,2.498-6.035v-16.575C511.871,473.597,504.673,461.376,493.108,454.817z M369.017,378.758
				c-1.317-1.234-2.07-2.954-2.083-4.758v-14.583c0.005-1.027,0.253-2.038,0.725-2.95l0.892-1.717
				c1.733-3.346,2.641-7.057,2.65-10.825V322.95c0.387-13.764,11.834-24.623,25.6-24.283h25.6
				c13.766-0.339,25.213,10.519,25.6,24.283v20.975c0.011,3.777,0.922,7.496,2.658,10.85l0.875,1.667
				c0.476,0.92,0.727,1.939,0.733,2.975V374c-0.013,1.805-0.766,3.525-2.083,4.758c-3.477,3.352-5.864,7.672-6.85,12.4
				c-2.668,7.315-6.609,14.1-11.642,20.042c-1.6,2.145-2.465,4.749-2.467,7.425v10.483L409.6,448.733l-19.625-19.625v-10.483
				c-0.008-2.714-0.897-5.352-2.533-7.517c-5.006-5.914-8.925-12.669-11.575-19.95C374.883,386.43,372.495,382.109,369.017,378.758
				L369.017,378.758z M324.267,486.892c0.045-7.124,3.91-13.675,10.125-17.158l46.289-25.787l20.386,20.387v30.6h-76.8V486.892z
				 M494.933,494.933h-76.8v-30.6l20.387-20.387l46.163,25.713c6.275,3.475,10.192,10.061,10.25,17.233V494.933z"/>
			<path style="fill:#428DFF;" d="M8.533,512H179.2c2.264,0.001,4.435-0.897,6.035-2.498s2.499-3.772,2.498-6.035v-10.133
				c-0.022-9.11-3.408-17.892-9.508-24.658c-5.701-5.765-12.269-10.601-19.467-14.333c-1.858-1.084-3.7-2.158-5.475-3.258
				c-3.842-2.392-8.292-4.875-12.809-7.35h26.209c6.358,0.017,12.193-3.521,15.117-9.167c2.85-5.429,2.429-11.996-1.092-17.017
				c-11.424-17.67-19.492-37.296-23.8-57.892c-1.126-5.323-1.69-10.75-1.683-16.192c0.049-16.373-6.408-32.095-17.95-43.708
				c-11.456-11.618-27.092-18.158-43.408-18.158s-31.952,6.541-43.408,18.158c-11.542,11.613-17.999,27.335-17.95,43.708
				c0.008,5.427-0.554,10.84-1.675,16.15c-4.312,20.604-12.382,40.237-23.808,57.917c-3.536,5.019-3.967,11.595-1.117,17.033
				c2.923,5.646,8.758,9.184,15.116,9.167H47.85c-1.5,0.867-3.017,1.725-4.525,2.592c-6.433,3.683-12.858,7.358-18.625,10.85
				c-6.108,3.7-24.7,14.967-24.7,36.158v10.133c-0.001,2.264,0.897,4.435,2.498,6.035S6.27,512.001,8.533,512z M20.992,427.333
				c12.724-19.555,21.72-41.296,26.533-64.125c1.369-6.491,2.056-13.108,2.05-19.742c-0.038-11.873,4.645-23.274,13.017-31.692
				c8.246-8.385,19.514-13.108,31.275-13.108s23.029,4.723,31.275,13.108c8.372,8.418,13.055,19.819,13.016,31.692
				c-0.005,6.648,0.685,13.279,2.058,19.783c4.721,22.626,13.702,44.148,26.467,63.417H123.55c-3.23-0.164-6.386,1.002-8.733,3.226
				c-2.348,2.224-3.682,5.312-3.693,8.546c-0.083,0.311-0.146,0.626-0.191,0.945v4.35c-0.565,6.858-6.535,11.989-13.4,11.517H90.2
				c-6.865,0.473-12.835-4.659-13.4-11.517v-4.35c-0.044-0.312-0.106-0.621-0.186-0.925c-0.008-3.237-1.342-6.329-3.691-8.557
				c-2.348-2.228-5.507-3.397-8.74-3.235L20.992,427.333z M17.067,493.333c0-8.008,5.083-14.658,16.483-21.558
				c5.65-3.425,11.95-7.025,18.25-10.633c3.536-2.026,7.048-4.044,10.479-6.04c5.186,10.663,16.065,17.37,27.921,17.215h7.333
				c11.909,0.16,22.829-6.604,27.992-17.336c1.569,0.869,3.133,1.736,4.733,2.611c4.9,2.683,9.833,5.383,14,7.975
				c1.908,1.192,3.9,2.35,5.908,3.517c5.635,2.877,10.809,6.579,15.35,10.983c3.294,3.636,5.128,8.361,5.15,13.267v1.6h-153.6
				V493.333z"/>
			<path style="fill:#428DFF;" d="M8.533,102.4c2.259-0.034,4.422-0.918,6.059-2.475c3.3-3.365,3.3-8.752,0-12.117l-1.279-1.025
				c-0.476-0.324-0.993-0.583-1.538-0.771c-0.484-0.246-1.003-0.417-1.538-0.509c-0.563-0.096-1.133-0.153-1.704-0.171
				c-2.259,0.031-4.423,0.915-6.059,2.475c-3.222,3.397-3.222,8.721,0,12.117c0.815,0.77,1.77,1.379,2.813,1.792
				C6.314,102.155,7.417,102.387,8.533,102.4z"/>
			<path style="fill:#428DFF;" d="M486.4,34.133H324.267V25.6c-0.015-14.132-11.468-25.585-25.6-25.6H25.6
				C11.468,0.015,0.015,11.468,0,25.6v34.133c0,4.713,3.821,8.533,8.533,8.533s8.533-3.821,8.533-8.533V25.6
				c0.003-4.712,3.822-8.53,8.533-8.533h273.067c4.712,0.003,8.53,3.822,8.533,8.533v136.533c-0.003,4.712-3.822,8.53-8.533,8.533
				H153.6c-1.778,0.001-3.512,0.557-4.958,1.592L102.4,205.283V179.2c0.001-2.264-0.897-4.435-2.498-6.035
				c-1.601-1.601-3.772-2.499-6.035-2.498H25.6c-4.712-0.003-8.53-3.822-8.533-8.533V128c0-4.713-3.821-8.533-8.533-8.533
				S0,123.287,0,128v34.133c0.015,14.132,11.468,25.585,25.6,25.6h59.733v34.133c-0.001,3.197,1.785,6.125,4.627,7.588
				c2.842,1.462,6.264,1.213,8.864-0.646l57.509-41.075h31.4v8.533c0.015,14.132,11.468,25.585,25.6,25.6h142.333l57.509,41.075
				c1.445,1.037,3.179,1.594,4.958,1.592c1.359-0.003,2.697-0.325,3.908-0.942c2.841-1.465,4.626-4.395,4.625-7.592v-34.133H486.4
				c14.132-0.015,25.585-11.468,25.6-25.6V59.733C511.985,45.601,500.532,34.149,486.4,34.133z M494.933,196.267
				c-0.003,4.712-3.822,8.53-8.533,8.533h-68.267c-2.264-0.001-4.435,0.897-6.035,2.498c-1.601,1.601-2.499,3.772-2.498,6.035
				v26.083l-46.242-33.025c-1.446-1.034-3.18-1.591-4.958-1.592H213.333c-4.712-0.003-8.53-3.822-8.533-8.533v-8.533h93.867
				c14.132-0.015,25.585-11.468,25.6-25.6V51.2H486.4c4.712,0.003,8.53,3.822,8.533,8.533V196.267z"/>
		</g>
	</g>
</g>
<g>
</g>
<g>
</g>
<g>
</g>
<g>
</g>
<g>
</g>
<g>
</g>
<g>
</g>
<g>
</g>
<g>
</g>
<g>
</g>
<g>
</g>
<g>
</g>
<g>
</g>
<g>
</g>
<g>
</g>
</svg>
