<?xml version="1.0" encoding="utf-8"?>
<!-- Generator: Adobe Illustrator 22.1.0, SVG Export Plug-In . SVG Version: 6.00 Build 0)  -->
<svg version="1.1" xmlns="http://www.w3.org/2000/svg" xmlns:xlink="http://www.w3.org/1999/xlink" x="0px" y="0px"
   viewBox="0 0 1366 4802" style="enable-background:new 0 0 1366 4802;" xml:space="preserve">
<style type="text/css">
  .st0{display:none;}
  .st1{fill:url(#SVGID_1_);}
  .st2{fill:url(#SVGID_2_);}
  .st3{fill:url(#SVGID_3_);}
  .st4{fill:url(#SVGID_4_);}
  .st5{fill:url(#SVGID_5_);}
  .st6{fill:url(#SVGID_6_);}
  .st7{fill:url(#SVGID_7_);}
  .st8{fill:url(#SVGID_8_);}
  .st9{fill:url(#SVGID_9_);}
  .st10{fill:url(#SVGID_10_);}
  .st11{fill:url(#SVGID_11_);}
  .st12{fill:url(#SVGID_12_);}
  .st13{fill:url(#SVGID_13_);}
  .st14{fill:url(#SVGID_14_);}
  .st15{fill:url(#SVGID_15_);}
  .st16{fill:url(#SVGID_16_);}
  .st17{fill:url(#SVGID_17_);}
</style>
<g id="Capa_2" class="st0">

    <image style="display:inline;overflow:visible;" width="2502" height="4802" xlink:href="23F8B1EB547570B2.png"  transform="matrix(1 0 0 1 -635 0)">
  </image>
</g>
<g id="Capa_1" class="st0">

    <image style="display:inline;overflow:visible;opacity:0.5;" width="3214" height="5438" xlink:href="23F8B1EB547570B6.jpg"  transform="matrix(1 0 0 1 -1265 0)">
  </image>
</g>
<g id="Capa_3">
  <linearGradient id="SVGID_1_" gradientUnits="userSpaceOnUse" x1="877.4052" y1="147.4492" x2="1437.1866" y2="1042.4487">
    <stop  offset="0" style="stop-color:#C1DDF7"/>
    <stop  offset="0.5123" style="stop-color:#84B4FE"/>
    <stop  offset="1" style="stop-color:#214A81"/>
  </linearGradient>
  <path class="st1" d="M1366,207.4v539.7c-91.4-78.1-218.5-88.8-348.5,7.4c-64.9,48-126.4,58.3-181.6,47.9
    c-77.1-147.1-136.2-259.6-152.4-289.9c-0.8-1.5-1.6-3-2.4-4.4c121.1-6.9,280.6-38,349.4-147.6
    C1105.8,240.6,1262.4,212.2,1366,207.4z"/>
  <linearGradient id="SVGID_2_" gradientUnits="userSpaceOnUse" x1="1128.1661" y1="2707.8145" x2="1526.0166" y2="2353.1045">
    <stop  offset="0" style="stop-color:#C1DDF7"/>
    <stop  offset="0.5123" style="stop-color:#84B4FE"/>
    <stop  offset="1" style="stop-color:#214A81"/>
  </linearGradient>
  <path class="st2" d="M1366,2291.1v409.3c-50.5-96.2-87.2-166-99.5-188.9c-53-95,45.5-169.5,45.5-169.5L1366,2291.1z"/>
  <linearGradient id="SVGID_3_" gradientUnits="userSpaceOnUse" x1="1564.0653" y1="3624.7732" x2="846.6654" y2="3906.1841">
    <stop  offset="0" style="stop-color:#C1DDF7"/>
    <stop  offset="0.5123" style="stop-color:#84B4FE"/>
    <stop  offset="1" style="stop-color:#214A81"/>
  </linearGradient>
  <path class="st3" d="M1365.5,3610.1v277.6c-37.3-19.7-81-33.2-132.1-36.1c-31.4-59.8-53.8-102.2-62.9-119.1
    c-35.6-63.8-2.9-118.3,22.4-147.2C1246.4,3570.7,1306.9,3571.7,1365.5,3610.1z"/>
  <linearGradient id="SVGID_4_" gradientUnits="userSpaceOnUse" x1="-223.3471" y1="3267.3657" x2="219.7657" y2="3916.2095">
    <stop  offset="0" style="stop-color:#C1DDF7"/>
    <stop  offset="0.5123" style="stop-color:#84B4FE"/>
    <stop  offset="1" style="stop-color:#214A81"/>
  </linearGradient>
  <path class="st4" d="M121,3755L0,3869v-419.3c35.3,20.3,74,34.7,115.5,39.2c25.2,47.9,43.1,81.9,51,96.6
    C219.5,3680.5,121,3755,121,3755z"/>
  <linearGradient id="SVGID_5_" gradientUnits="userSpaceOnUse" x1="1001.673" y1="698.7153" x2="1605.6145" y2="1664.3193">
    <stop  offset="0" style="stop-color:#C1DDF7"/>
    <stop  offset="0.5123" style="stop-color:#84B4FE"/>
    <stop  offset="1" style="stop-color:#214A81"/>
  </linearGradient>
  <path class="st5" d="M1366,747.1V910l-0.5,904.5c0,0-326.9-625.5-529.6-1012.1c55.2,10.4,116.7,0.1,181.6-47.9
    C1147.5,658.3,1274.6,669,1366,747.1z"/>
  <linearGradient id="SVGID_6_" gradientUnits="userSpaceOnUse" x1="671.9921" y1="528.6633" x2="1534.2201" y2="-128.5822">
    <stop  offset="0" style="stop-color:#C1DDF7"/>
    <stop  offset="0.5123" style="stop-color:#84B4FE"/>
    <stop  offset="1" style="stop-color:#214A81"/>
  </linearGradient>
  <path class="st6" d="M1366,0.5v206.9c-103.6,4.8-260.2,33.2-335.5,153.1c-68.8,109.6-228.3,140.7-349.4,147.6
    C633.5,415.2,729,343,729,343L1093,0L1366,0.5z"/>
  <linearGradient id="SVGID_7_" gradientUnits="userSpaceOnUse" x1="282.9471" y1="-87.0193" x2="-155.0739" y2="284.3464">
    <stop  offset="0" style="stop-color:#C1DDF7"/>
    <stop  offset="0.5123" style="stop-color:#84B4FE"/>
    <stop  offset="1" style="stop-color:#214A81"/>
  </linearGradient>
  <path class="st7" d="M348.4,0c-31.9,43.8-92.5,93.2-207.9,158.5C94.3,184.6,42.6,213.8,0,237.8V0H348.4z"/>
  <linearGradient id="SVGID_8_" gradientUnits="userSpaceOnUse" x1="-237.1706" y1="1404.2516" x2="527.9272" y2="2399.321">
    <stop  offset="0" style="stop-color:#C1DDF7"/>
    <stop  offset="0.5123" style="stop-color:#84B4FE"/>
    <stop  offset="1" style="stop-color:#214A81"/>
  </linearGradient>
  <path class="st8" d="M532.5,1900.5L0,2417V1271c62.6,76.1,121.1,161.1,148.5,238.5c126.3,356.3,322.4,313.5,394.8,205.6
    c2.8,4.8,5.2,9,7.2,12.4C607.5,1814.5,532.5,1900.5,532.5,1900.5z"/>
  <linearGradient id="SVGID_9_" gradientUnits="userSpaceOnUse" x1="191.3714" y1="2121.7041" x2="319.64" y2="732.8646">
    <stop  offset="0" style="stop-color:#C1DDF7"/>
    <stop  offset="0.5123" style="stop-color:#84B4FE"/>
    <stop  offset="1" style="stop-color:#214A81"/>
  </linearGradient>
  <path class="st9" d="M543.3,1715.1c-72.5,107.9-268.6,150.7-394.8-205.6C121.1,1432.1,62.6,1347.1,0,1271V789.3
    C16.9,818.1,459,1569.1,543.3,1715.1z"/>
  <linearGradient id="SVGID_10_" gradientUnits="userSpaceOnUse" x1="-70.2587" y1="3177.3066" x2="108.9449" y2="3586.1147">
    <stop  offset="0" style="stop-color:#C1DDF7"/>
    <stop  offset="0.5123" style="stop-color:#84B4FE"/>
    <stop  offset="1" style="stop-color:#214A81"/>
  </linearGradient>
  <path class="st10" d="M115.5,3488.9C74,3484.4,35.3,3470,0,3449.7v-180.9C45.5,3355.7,85.6,3432.1,115.5,3488.9z"/>
  <linearGradient id="SVGID_11_" gradientUnits="userSpaceOnUse" x1="695.4596" y1="4186.1401" x2="629.4419" y2="6103.5239">
    <stop  offset="0" style="stop-color:#C1DDF7"/>
    <stop  offset="0.5123" style="stop-color:#84B4FE"/>
    <stop  offset="1" style="stop-color:#214A81"/>
  </linearGradient>
  <path class="st11" d="M1366,4361.6v326.9l-101.3-68c0,0-0.3-0.2-0.8-0.6c-6.8-5.4-56-42.6-125-44.8c-2.8-0.1-5.7-0.1-8.5-0.1
    c-1.3,0-2.6,0-3.8,0.1c-19.3,0.6-39.9,4-61.5,11.6c-48.7,16.5-277.6,92.5-544.3,180.8c-8.7,2.9-17.5,5.8-26.3,8.7l0,0L397.2,4673
    c0,0-5.2-6.8-14.5-15.9c-26.1-25.4-85-68.7-155.1-29.6C201.7,4641.4,116,4686.4,0,4747.2v-339.8c168.9-23.8,436.3-42,660.2,30.5
    C955,4533.5,1265.4,4408.8,1366,4361.6z"/>
  <linearGradient id="SVGID_12_" gradientUnits="userSpaceOnUse" x1="863.0566" y1="4559.6074" x2="794.3186" y2="5009.269">
    <stop  offset="0" style="stop-color:#C1DDF7"/>
    <stop  offset="0.5123" style="stop-color:#84B4FE"/>
    <stop  offset="1" style="stop-color:#214A81"/>
  </linearGradient>
  <path class="st12" d="M1263.4,4619.9c-26.2,30.8-61.5,61-108.9,84.6c-53.1,26.4-102.8,61.1-146.8,97.5H416.4
    c26.2-8.7,52.2-17.3,77.8-25.8c8.8-2.9,17.6-5.8,26.3-8.7c266.6-88.4,495.4-164.3,544.1-180.8
    C1170.3,4549.4,1254.4,4612.8,1263.4,4619.9z"/>
  <linearGradient id="SVGID_13_" gradientUnits="userSpaceOnUse" x1="-137.1369" y1="4724.8926" x2="596.6687" y2="4696.2285">
    <stop  offset="0" style="stop-color:#C1DDF7"/>
    <stop  offset="0.5123" style="stop-color:#84B4FE"/>
    <stop  offset="1" style="stop-color:#214A81"/>
  </linearGradient>
  <path class="st13" d="M363.5,4802H0v-54.8c116-60.8,201.6-105.9,227.5-119.7c70-39.1,129,4.2,155.1,29.6
    C353.2,4708.8,351.4,4758.1,363.5,4802z"/>
  <linearGradient id="SVGID_14_" gradientUnits="userSpaceOnUse" x1="395.4341" y1="4601.3638" x2="461.3475" y2="4976.7837">
    <stop  offset="0" style="stop-color:#C1DDF7"/>
    <stop  offset="0.5123" style="stop-color:#84B4FE"/>
    <stop  offset="1" style="stop-color:#214A81"/>
  </linearGradient>
  <path class="st14" d="M494.2,4776.2c-25.7,8.5-51.7,17.1-77.8,25.8h-53c-12-43.9-10.2-93.2,19.1-144.9c9.3,9.1,14.4,15.9,14.4,15.9
    L494.2,4776.2z"/>
  <linearGradient id="SVGID_15_" gradientUnits="userSpaceOnUse" x1="1073.3011" y1="4888.0869" x2="1354.6235" y2="4673.645">
    <stop  offset="0" style="stop-color:#C1DDF7"/>
    <stop  offset="0.5123" style="stop-color:#84B4FE"/>
    <stop  offset="1" style="stop-color:#214A81"/>
  </linearGradient>
  <path class="st15" d="M1366,4688.6V4802h-358.3c2.8-2.3,5.5-4.5,8.3-6.8c2.8-2.2,5.6-4.5,8.4-6.8c0,0,0,0,0,0
    c1.4-1.1,2.8-2.2,4.3-3.4c1.2-0.9,2.4-1.9,3.6-2.8c1.2-0.9,2.4-1.9,3.7-2.8c1.2-0.9,2.4-1.9,3.7-2.8c1.2-0.9,2.5-1.9,3.7-2.8
    c34.7-25.9,72-49.9,111.3-69.4c47.5-23.5,82.8-53.8,109.1-84.6c0.5,0.4,0.8,0.6,0.8,0.6L1366,4688.6z"/>
  <linearGradient id="SVGID_16_" gradientUnits="userSpaceOnUse" x1="1220.835" y1="3785.9756" x2="1379.3763" y2="3274.6794">
    <stop  offset="0" style="stop-color:#C1DDF7"/>
    <stop  offset="0.5123" style="stop-color:#84B4FE"/>
    <stop  offset="1" style="stop-color:#214A81"/>
  </linearGradient>
  <path class="st16" d="M1365.5,3422.1v188c-58.6-38.5-119.1-39.4-172.6-24.9c12.4-14.2,23.1-22.2,23.1-22.2L1365.5,3422.1z"/>
  <linearGradient id="SVGID_17_" gradientUnits="userSpaceOnUse" x1="1058.3577" y1="3931.9756" x2="1835.2106" y2="4074.6628">
    <stop  offset="0" style="stop-color:#C1DDF7"/>
    <stop  offset="0.5123" style="stop-color:#84B4FE"/>
    <stop  offset="1" style="stop-color:#214A81"/>
  </linearGradient>
  <path class="st17" d="M1365.5,3887.8v215.8c-51.2-97.8-97.3-185.6-132.1-252C1284.5,3854.6,1328.2,3868.1,1365.5,3887.8z"/>
</g>
</svg>
