<?xml version="1.0" encoding="utf-8"?>
<!-- Generator: Adobe Illustrator 22.1.0, SVG Export Plug-In . SVG Version: 6.00 Build 0)  -->
<svg version="1.1" xmlns="http://www.w3.org/2000/svg" xmlns:xlink="http://www.w3.org/1999/xlink" x="0px" y="0px"
	 viewBox="0 0 1636.2 297.7" style="enable-background:new 0 0 1636.2 297.7;" xml:space="preserve">
<style type="text/css">
	.st0{fill:#FFA617;}
	.st1{fill:#FFFFFF;}
	.st2{fill:none;stroke:#000000;stroke-miterlimit:10;}
</style>
<g id="Capa_1">
</g>
<g id="Capa_2">
	<g>
		<polygon class="st0" points="180.8,13.5 0,35.9 240.2,81.8 397.6,35 		"/>
		<polygon class="st1" points="14.8,81.8 252.8,166.4 380,81.8 241.1,139.4 		"/>
		<path class="st2" d="M28.4,124.1"/>
		<polygon class="st1" points="28.4,124.1 234.3,238.6 362.2,129.3 250.6,205.9 		"/>
		<polygon class="st1" points="232.5,281.6 348.1,166.8 233.9,297.7 42.3,167.3 		"/>
	</g>
	<g>
		<path class="st1" d="M579.8,4.5c0-2.4,2.1-4.5,4.5-4.5h6.2c2.4,0,4.5,2.1,4.5,4.5v233.8c0,2.8-1.4,4.5-4.5,4.5h-6.9
			c-2.4,0-3.8-2.1-3.8-4.5V4.5z"/>
		<path class="st1" d="M706.1,100.6c36.4,0,62.8,26.7,62.8,63.5c0,5.6,0,13.5-5.2,13.5H653c1.4,29.8,22.9,54.8,54.1,54.8
			c18.4,0,32.6-7.3,40.9-12.8c3.1-2.1,4.5-2.4,6.2,0l3.5,4.9c1,1.4,0.7,3.5-1.4,5.6c-6.9,6.9-28.8,16.3-50.3,16.3
			c-42.3,0-68.3-32.6-68.3-73.2C637.8,133.6,663.8,100.6,706.1,100.6z M753.6,165.1c0-27.1-16.3-50.6-47.5-50.6
			c-30.5,0-51,22.2-52.7,50.6H753.6z"/>
		<path class="st1" d="M857,153.3c16,0,31.2,4.9,35,6.2c0-30.5-3.1-45.8-30.5-45.8c-22.9,0-38.5,8.3-41.6,9.4
			c-2.8,1-4.5-0.3-5.2-2.8l-1.7-4.2c-1-3.1,0.3-4.5,2.1-5.2c1-0.7,18.7-10.4,47.5-10.4c42.3,0,44.1,25.3,44.1,60.7v77
			c0,2.4-2.1,4.5-4.5,4.5h-4.2c-2.4,0-3.5-1.4-4.2-3.8l-1.4-12.5c-9,8.3-26,19.8-48.2,19.8c-25.7,0-45.4-17.7-45.4-46.1
			C798.7,173.4,820.6,153.3,857,153.3z M845.9,232.8c21.2,0,39.5-12.8,46.1-21.5v-38.2c-4.5-2.1-18.4-7.3-35-7.3
			c-26.4,0-44.1,13.5-44.1,34C812.9,219.9,826.8,232.8,845.9,232.8z"/>
		<path class="st1" d="M957.9,108.6c0-2.4,2.1-4.5,4.5-4.5h4.2c2.1,0,3.8,1.4,4.2,3.8l1.4,14.2c3.5-4.9,17.3-21.5,43.4-21.5
			c11.1,0,18.7,3.1,21.5,4.2c3.1,1,4.9,3.5,3.8,6.2l-2.8,6.9c-1,2.4-3.1,2.8-5.5,1.7c-1.7-0.7-8.7-4.2-18-4.2
			c-27.1,0-40.2,21.9-41.3,23.9v98.9c0,2.8-1.4,4.5-4.5,4.5h-6.9c-2.4,0-3.8-2.1-3.8-4.5V108.6z"/>
		<path class="st1" d="M1070.3,108.6c0-2.4,2.1-4.5,4.9-4.5h3.5c2.4,0,3.8,1.4,4.2,3.5l1.4,14.9c4.5-4.9,23.6-21.9,51.3-21.9
			c38.9,0,55.8,24.6,55.8,63.5v74.2c0,2.4-2.1,4.5-4.5,4.5h-6.2c-2.4,0-4.5-2.1-4.5-4.5v-74.2c0-31.9-14.9-48.6-41.3-48.6
			c-28.4,0-48.2,22.2-49.6,23.9v98.9c0,2.8-1.4,4.5-4.5,4.5h-6.6c-2.4,0-3.8-2.1-3.8-4.5V108.6z"/>
		<path class="st0" d="M1234.7,100.5c0-2.1,1.7-4,4-4h47.9c24.9,0,44.1,16.7,44.1,38.7c0,16.1-13.2,28.6-23,33.2
			c11.1,3.6,27.2,14.8,27.2,34.1c0,23.4-20.1,40.3-45.6,40.3h-50.6c-2.3,0-4-1.9-4-4V100.5z M1284,158c10.7,0,18-8.4,18-18.8
			s-7.3-17.8-18-17.8h-22.4V158H1284z M1286.9,218.2c10.4,0,18.8-8.2,18.8-19c0-10.4-10.4-18.2-21.3-18.2h-22.8v37.2H1286.9z"/>
		<path class="st0" d="M1428.2,94.4c41.8,0,75.2,33.6,75.2,75.4c0,41.8-33.4,75-75.2,75s-75-33.2-75-75
			C1353.2,128.1,1386.4,94.4,1428.2,94.4z M1428.2,217.7c26.3,0,48.1-21.5,48.1-47.9c0-26.3-21.7-48.3-48.1-48.3
			s-47.9,21.9-47.9,48.3C1380.4,196.2,1401.9,217.7,1428.2,217.7z"/>
		<path class="st0" d="M1559.4,167.8l-41.8-65.4c-1.7-2.7,0-5.9,3.6-5.9h24.2c1.7,0,2.7,1,3.3,1.9l26.8,44.3h0.2l27.2-44.3
			c0.4-0.8,1.7-1.9,3.3-1.9h24.2c3.6,0,5.2,3.1,3.6,5.9l-42,65.4l43.5,69.2c1.7,2.9,0,5.9-3.6,5.9h-22.6c-1.7,0-3.1-1-3.6-1.9
			l-29.9-47.9h-0.6l-29.5,47.9c-0.6,0.8-1.9,1.9-3.6,1.9h-22.6c-3.8,0-5.4-3.1-3.8-5.9L1559.4,167.8z"/>
	</g>
</g>
</svg>
