<svg height="511pt" viewBox="-43 0 511 511.81861" width="511pt" xmlns="http://www.w3.org/2000/svg"><path d="m349.078125 357.996094c-29.011719 67.757812 19.371094 145.238281 19.371094 145.238281h-193.621094v-64.253906c.035156-7.542969-5.503906-13.953125-12.96875-15.019531l-105.898437-15.191407c-4.261719-.585937-8.066407-2.960937-10.460938-6.53125-2.394531-3.570312-3.152344-7.992187-2.085938-12.15625l3.925782-15.871093c1.054687-4.148438.3125-8.546876-2.046875-12.117188l-11.945313-17.835938c-2.402344-3.550781-3.148437-7.96875-2.050781-12.117187l7.597656-30.378906c.265625-1.203125.410157-2.433594.425781-3.667969v-2.304688c.003907-4.027343-1.59375-7.894531-4.445312-10.746093-2.847656-2.847657-6.714844-4.445313-10.746094-4.441407-5.160156-.023437-9.957031-2.660156-12.75-7-2.789062-4.339843-3.195312-9.800781-1.074218-14.503906l38.65625-65.621094c.714843-1.503906 1.148437-3.121093 1.28125-4.78125 0 0-1.28125-72.703124 18.089843-111.445312 12.03125-23.890625 47.445313-65.191406 133.886719-68.691406h.171875c13.40625-.515625 26.828125-.203125 40.191406.9375 116.226563 9.730468 183.980469 77.484375 174.25 203.351562 0 58.023438-48.382812 96.765625-67.753906 145.148438zm0 0" fill="#a4c2f7"/><path d="m323.480469 357.996094c-29.015625 67.757812 19.371093 145.238281 19.371093 145.238281h-168.023437v-64.253906c.035156-7.542969-5.503906-13.953125-12.96875-15.019531l-105.898437-15.191407c-4.261719-.585937-8.066407-2.960937-10.460938-6.53125-2.394531-3.570312-3.152344-7.992187-2.085938-12.15625l3.925782-15.871093c1.054687-4.148438.3125-8.546876-2.046875-12.117188l-11.945313-17.835938c-2.402344-3.550781-3.148437-7.96875-2.050781-12.117187l7.597656-30.378906c.265625-1.203125.410157-2.433594.425781-3.667969v-2.304688c.003907-4.027343-1.59375-7.894531-4.445312-10.746093-2.847656-2.847657-6.714844-4.445313-10.746094-4.441407-5.160156-.023437-9.957031-2.660156-12.75-7-2.789062-4.339843-3.195312-9.800781-1.074218-14.503906l38.65625-65.621094c.714843-1.503906 1.148437-3.121093 1.28125-4.78125 0 0-1.28125-72.703124 18.089843-111.445312 12.03125-23.890625 47.445313-65.191406 133.886719-68.691406h.171875c4.78125.253906 9.558594.511718 14.59375.9375 116.222656 9.730468 183.976563 77.484375 174.25 203.351562 0 58.023438-48.382813 96.765625-67.753906 145.148438zm0 0" fill="#e3e7f2"/><path d="m200.429688 136.300781h15.015624c1.175782-3.933593 2.746094-7.734375 4.695313-11.347656l-19.847656-19.859375 24.132812-24.128906 19.855469 19.847656c3.613281-1.953125 7.421875-3.527344 11.359375-4.703125v-28.074219h34.132813v28.074219c3.933593 1.171875 7.734374 2.746094 11.347656 4.695313l19.859375-19.851563 24.128906 24.132813-19.847656 19.867187c1.953125 3.613281 3.527343 7.414063 4.703125 11.347656h28.074218v34.132813h-28.074218c-1.171875 3.933594-2.746094 7.738281-4.695313 11.351562l19.851563 19.855469-24.132813 24.132813-19.867187-19.847657c-3.613282 1.949219-7.414063 3.519531-11.347656 4.691407v28.085937h-34.132813v-28.074219c-3.933594-1.171875-7.738281-2.746094-11.351563-4.695312l-19.855468 19.847656-24.132813-24.132812 19.847657-19.855469c-1.953126-3.613281-3.527344-7.421875-4.703126-11.359375h-28.074218v-34.132813zm0 0" fill="#e3e7f2"/><path d="m298.304688 153.367188c0 14.140624-11.460938 25.601562-25.597657 25.601562-14.140625 0-25.601562-11.460938-25.601562-25.601562 0-14.136719 11.460937-25.597657 25.601562-25.597657 14.136719 0 25.597657 11.460938 25.597657 25.597657zm0 0" fill="#e3e7f2"/><path d="m103.652344 109.992188h11.265625c.875-2.957032 2.058593-5.816407 3.523437-8.53125l-14.882812-14.890626 18.105468-18.082031 14.882813 14.90625c2.714844-1.464843 5.578125-2.644531 8.535156-3.523437v-21.078125h25.597657v21.050781c2.960937.878906 5.820312 2.058594 8.535156 3.527344l14.882812-14.882813 18.105469 18.097657-14.890625 14.890624c1.460938 2.71875 2.640625 5.578126 3.515625 8.535157h21.0625v25.597656h-21.085937c-.878907 2.957031-2.054688 5.816406-3.515626 8.535156l14.890626 14.882813-18.109376 18.105468-14.890624-14.921874c-2.714844 1.457031-5.574219 2.636718-8.53125 3.515624v21.058594h-25.601563v-21.050781c-2.957031-.878906-5.816406-2.058594-8.53125-3.515625l-14.851563 14.882812-18.097656-18.109374 14.882813-14.882813c-1.464844-2.714844-2.648438-5.574219-3.523438-8.53125h-21.0625v-25.601563h9.789063zm0 0" fill="#e3e7f2"/><path d="m177.0625 122.792969c0 10.605469-8.59375 19.199219-19.199219 19.199219-10.601562 0-19.199219-8.59375-19.199219-19.199219 0-10.601563 8.597657-19.199219 19.199219-19.199219 10.605469 0 19.199219 8.597656 19.199219 19.199219zm0 0" fill="#e3e7f2"/><path d="m206.050781 246.167969h11.265625c.875-2.957031 2.058594-5.816407 3.523438-8.53125l-14.882813-14.890625 18.109375-18.082032 14.890625 14.890626c2.71875-1.460938 5.578125-2.640626 8.53125-3.515626v-21.070312h25.601563v21.058594c2.957031.878906 5.816406 2.058594 8.535156 3.515625l14.878906-14.890625 18.109375 18.101562-14.890625 14.890625c1.460938 2.714844 2.636719 5.574219 3.515625 8.53125h21.058594v25.601563h-21.09375c-.875 2.957031-2.054687 5.816406-3.515625 8.535156l14.890625 14.890625-18.105469 18.097656-14.890625-14.917969c-2.71875 1.460938-5.578125 2.640626-8.535156 3.515626v21.0625h-25.601563v-21.050782c-2.953124-.878906-5.8125-2.058594-8.53125-3.515625l-14.847656 14.878907-18.101562-18.097657 14.882812-14.890625c-1.464844-2.714844-2.644531-5.574218-3.523437-8.535156h-21.058594v-25.597656h9.785156zm0 0" fill="#e3e7f2"/><path d="m279.464844 258.96875c0 10.605469-8.597656 19.199219-19.199219 19.199219-10.605469 0-19.203125-8.59375-19.203125-19.199219s8.597656-19.199219 19.203125-19.199219c10.601563 0 19.199219 8.59375 19.199219 19.199219zm0 0" fill="#e3e7f2"/><path d="m39.320312 295.789062v2.304688c-.015624 1.234375-.160156 2.464844-.425781 3.667969l-7.597656 30.378906c-1.097656 4.148437-.351563 8.566406 2.050781 12.117187l11.945313 17.835938c2.359375 3.570312 3.101562 7.96875 2.046875 12.117188l-3.925782 15.871093c-1.066406 4.164063-.308593 8.585938 2.085938 12.15625 2.394531 3.570313 6.199219 5.945313 10.460938 6.53125l105.898437 15.191407c7.464844 1.066406 13.003906 7.476562 12.96875 15.019531v64.253906h25.601563v-64.253906c.03125-7.542969-5.503907-13.953125-12.972657-15.019531l-105.898437-15.191407c-4.257813-.585937-8.0625-2.960937-10.457032-6.53125-2.398437-3.570312-3.15625-7.992187-2.085937-12.15625l3.925781-15.871093c1.054688-4.148438.3125-8.546876-2.046875-12.117188l-11.949219-17.835938c-2.398437-3.550781-3.148437-7.96875-2.046874-12.117187l7.59375-30.378906c.269531-1.203125.410156-2.433594.425781-3.667969v-2.304688c.003906-4.027343-1.59375-7.894531-4.441407-10.746093-2.851562-2.847657-6.714843-4.445313-10.746093-4.441407-5.160157-.023437-9.960938-2.660156-12.75-7-2.792969-4.339843-3.195313-9.800781-1.074219-14.503906l38.65625-65.621094c.710938-1.503906 1.144531-3.121093 1.28125-4.78125 0 0-1.28125-72.703124 18.089844-111.445312 11.945312-23.773438 47.128906-64.742188 132.625-68.605469-8.40625-.34375-16.539063-.402343-24.167969-.085937h-.171875c-86.441406 3.5-121.855469 44.800781-133.886719 68.691406-19.371093 38.742188-18.089843 111.445312-18.089843 111.445312-.132813 1.660157-.566407 3.277344-1.28125 4.78125l-38.65625 65.621094c-2.121094 4.703125-1.714844 10.164063 1.074218 14.503906 2.792969 4.339844 7.589844 6.976563 12.75 7 4.03125-.003906 7.898438 1.59375 10.746094 4.441407 2.851562 2.851562 4.449219 6.71875 4.445312 10.746093zm0 0" fill="#fff"/><path d="m368.457031 511.769531h-193.613281v-17.066406h193.613281zm0 0" fill="#fff"/><g fill="#428dff"><path d="m294.132812 497.175781c-.769531.816407-1.378906 1.773438-1.792968 2.816407-.4375 1.027343-.667969 2.128906-.679688 3.242187-.023437 3.46875 2.058594 6.601563 5.257813 7.929687 3.203125 1.332032 6.890625.589844 9.332031-1.871093l1.023438-1.277344c.324218-.476563.582031-.992187.769531-1.539063.246093-.480468.417969-1 .511719-1.535156.09375-.5625.152343-1.132812.171874-1.707031-.035156-2.257813-.917968-4.421875-2.476562-6.058594-.816406-.769531-1.769531-1.378906-2.816406-1.792969-3.183594-1.285156-6.824219-.582031-9.300782 1.792969zm0 0"/><path d="m243.316406 1.023438c-32.972656-2.738282-143.546875-5.640626-182.613281 72.449218-19.320313 38.65625-19.070313 107.015625-18.976563 114.746094-.078124.472656-.203124.9375-.375 1.382812l-38.402343 65.210938c-.152344.257812-.292969.523438-.417969.792969-3.332031 7.339843-2.710938 15.867187 1.652344 22.640625 4.363281 6.777344 11.871094 10.871094 19.929687 10.871094 3.660157 0 6.628907 2.96875 6.628907 6.628906v2.332031c.003906.539063-.0625 1.078125-.195313 1.601563l-7.59375 30.40625c-1.621094 6.476562-.433594 13.335937 3.265625 18.890624l11.949219 17.878907c1.03125 1.558593 1.363281 3.476562.914062 5.289062l-3.96875 15.890625c-1.628906 6.507813-.421875 13.398438 3.320313 18.964844 3.738281 5.566406 9.664062 9.285156 16.304687 10.238281l105.875 15.171875c3.257813.484375 5.675781 3.273438 5.691407 6.570313v64.253906c0 4.714844 3.820312 8.535156 8.53125 8.535156h91.222656c4.710937 0 8.535156-3.820312 8.535156-8.535156 0-4.710937-3.824219-8.53125-8.535156-8.53125h-82.679688v-55.757813c-.046875-11.773437-8.695312-21.746093-20.34375-23.457031l-105.8125-15.128906c-1.859375-.269531-3.515625-1.3125-4.5625-2.867187-1.046875-1.558594-1.386718-3.488282-.933594-5.308594l3.96875-15.890625c1.617188-6.480469.429688-13.339844-3.269531-18.902344l-11.945312-17.875c-1.035157-1.558594-1.367188-3.476563-.914063-5.292969l7.605469-30.402344c.464844-1.878906.699219-3.808593.699219-5.742187v-2.332031c-.015625-13.082032-10.617188-23.683594-23.699219-23.695313-2.1875-.003906-4.238281-1.085937-5.472656-2.894531-1.238281-1.808594-1.503907-4.109375-.714844-6.152344l38.402344-65.21875c.152343-.261718.292969-.535156.417969-.8125 1.066406-2.347656 1.742187-4.855468 2.003906-7.421875.03125-.335937.046875-.671875.042968-1.007812 0-.707031-1.039062-71.003907 17.167969-107.433594 8.628907-17.339844 46.21875-73.027344 165.882813-63.078125 116.222656 9.683594 175.339844 78.625 166.398437 194.789062 0 34.191407-18.039062 61.148438-37.136719 89.695313-11.75 16.304687-21.78125 33.777344-29.933593 52.144531-23.554688 54.957032 0 114.347656 12.796875 140.042969h-19.703125c-4.710938 0-8.53125 3.820313-8.53125 8.53125 0 4.714844 3.820312 8.535156 8.53125 8.535156h34.132812c3.101563-.007812 5.953125-1.691406 7.453125-4.40625 1.5-2.710937 1.410156-6.023437-.234375-8.652343-.449219-.730469-45.71875-74.390626-18.667969-137.511719 7.722657-17.332031 17.222657-33.820313 28.339844-49.195313 19.675782-29.398437 40.019532-59.800781 39.992188-98.535156 9.609375-124.570312-56.746094-202.007812-182.023438-212.445312zm0 0"/><path d="m272.707031 187.503906c18.851563 0 34.132813-15.285156 34.132813-34.136718 0-18.851563-15.28125-34.132813-34.132813-34.132813-18.851562 0-34.132812 15.28125-34.132812 34.132813 0 18.851562 15.28125 34.136718 34.132812 34.136718zm0-51.203125c9.425781 0 17.066407 7.640625 17.066407 17.066407 0 9.425781-7.640626 17.066406-17.066407 17.066406s-17.066406-7.640625-17.066406-17.066406c0-9.425782 7.640625-17.066407 17.066406-17.066407zm0 0"/><path d="m187.371094 178.96875h22.050781c.144531.359375.300781.691406.445313 1.042969l-15.601563 15.597656c-3.328125 3.332031-3.328125 8.734375 0 12.066406l24.132813 24.132813c3.332031 3.328125 8.734374 3.328125 12.066406 0l15.589844-15.59375c.34375.148437.703124.273437 1.050781.410156v22.078125c0 4.710937 3.820312 8.53125 8.535156 8.53125h34.132813c4.710937 0 8.53125-3.820313 8.53125-8.53125v-22.078125c.351562-.136719.710937-.261719 1.050781-.410156l15.589843 15.59375c3.332032 3.328125 8.734376 3.328125 12.066407 0l24.132812-24.132813c3.332031-3.332031 3.332031-8.734375 0-12.066406l-15.589843-15.597656c.144531-.34375.28125-.691407.417968-1.042969h22.066406c4.714844 0 8.535157-3.820312 8.535157-8.535156v-34.132813c0-4.710937-3.820313-8.53125-8.535157-8.53125h-22.074218c-.136719-.351562-.265625-.710937-.410156-1.050781l15.589843-15.589844c3.332031-3.332031 3.332031-8.734375 0-12.066406l-24.132812-24.132812c-3.386719-3.199219-8.679688-3.199219-12.066407 0l-15.597656 15.589843-1.042968-.417969v-22.066406c0-4.710937-3.820313-8.53125-8.53125-8.53125h-34.132813c-4.714844 0-8.535156 3.820313-8.535156 8.53125v22.050782l-1.039063.441406-15.601562-15.597656c-3.332032-3.332032-8.734375-3.332032-12.066406 0l-24.132813 24.132812c-3.328125 3.332031-3.328125 8.734375 0 12.066406l15.59375 15.589844c-.148437.339844-.273437.699219-.410156 1.050781h-22.078125c-4.710938 0-8.53125 3.820313-8.53125 8.53125v34.132813c0 4.714844 3.820312 8.535156 8.53125 8.535156zm28.050781-34.132812c1.035156-.015626 2.0625-.222657 3.019531-.613282.308594-.121094.574219-.292968.855469-.4375.613281-.3125 1.183594-.699218 1.707031-1.152344.265625-.238281.519532-.492187.757813-.757812.425781-.5.792969-1.046875 1.09375-1.628906.1875-.324219.355469-.664063.503906-1.007813.050781-.15625.167969-.28125.21875-.445312 1-3.375 2.34375-6.640625 4.011719-9.746094.078125-.132813.070312-.296875.136718-.441406.257813-.574219.449219-1.179688.5625-1.800781.128907-.457032.21875-.921876.273438-1.390626.007812-.597656-.050781-1.191406-.171875-1.777343-.058594-1.0625-.425781-2.082031-1.054687-2.941407-.246094-.472656-.53125-.921874-.855469-1.339843-.117188-.136719-.160157-.308594-.296875-.445313l-13.816406-13.816406 12.066406-12.0625 13.789062 13.789062.078125.050782c2.304688 2.308594 5.742188 3.066406 8.804688 1.9375.257812-.09375.496093-.179688.742187-.292969.25-.109375.394532-.125.574219-.230469 3.101563-1.664062 6.367187-3.007812 9.742187-4.007812.144532-.050782.238282-.164063.386719-.214844.550781-.226562 1.078125-.511719 1.570313-.851562.445312-.246094.871094-.535157 1.269531-.855469.378906-.382813.71875-.800781 1.015625-1.253907.347656-.417968.652344-.871093.914062-1.347656.191407-.472656.339844-.960937.441407-1.460937.183593-.566407.304687-1.152344.359375-1.746094 0-.15625.085937-.285156.085937-.4375v-19.539063h17.066407v19.539063c0 .152344.078124.28125.085937.4375.058594.578125.175781 1.152344.359375 1.703125.101562.503906.25.996094.441406 1.46875.261719.476562.5625.929688.90625 1.347656.300782.449219.644532.871094 1.023438 1.257813.398437.320312.824218.605469 1.269531.851562.492187.339844 1.019531.625 1.570313.851563.144531.054687.242187.164062.386718.214844 3.375 1 6.640625 2.34375 9.742188 4.011718.171875.09375.375.136719.554687.210938.277344.125.5625.230468.855469.316406.777344.269531 1.589844.429688 2.414062.46875.128907 0 .246094.050781.382813.050781s.25-.066406.375-.074219c2.179687-.042968 4.25-.96875 5.734375-2.5625l13.65625-13.652343 12.066406 12.066406-13.816406 13.816406c-.136719.136719-.179688.308594-.300781.441407-.324219.421874-.609375.871093-.851563 1.339843-.628906.859375-.996094 1.882813-1.058594 2.945313-.121093.585937-.175781 1.179687-.171874 1.773437.054687.472657.148437.9375.273437 1.394531.117187.617188.304687 1.222657.566406 1.800782.066407.144531.058594.304687.132813.441406 1.667968 3.101562 3.011718 6.367188 4.011718 9.746094.050782.160156.171876.289062.222657.441406.144531.347656.3125.683594.503906 1.007812.300781.582032.667969 1.128907 1.089844 1.628907.238281.269531.492187.523437.761719.761719.519531.449218 1.09375.835937 1.707031 1.152343.289062.144531.554687.316407.851562.433594.960938.390625 1.984375.601563 3.023438.613281h19.464843v17.070313h-19.542968c-.144532 0-.265625.074219-.410156.082031-.628907.050781-1.253907.175781-1.851563.378906-.464844.09375-.921875.234375-1.363281.40625-.507813.277344-.984375.597656-1.425782.964844-.425781.285156-.820312.609375-1.1875.964844-.320312.414062-.605468.851562-.851562 1.3125-.335938.488281-.625 1.003906-.855469 1.546875-.050781.136719-.160156.238281-.210937.382812-1 3.378907-2.347656 6.644531-4.011719 9.746094-.082031.183594-.152344.371094-.214844.5625-.121093.261719-.226562.535156-.316406.8125-.269531.777344-.425781 1.589844-.46875 2.414063 0 .128906-.050781.253906-.050781.382812 0 .121094.070312.222656.070312.34375.027344.96875.226563 1.925781.578125 2.832031.449219 1.109375 1.128907 2.109375 1.996094 2.933594l13.65625 13.65625-12.066406 12.0625-13.816407-13.8125c-.136718-.136719-.308593-.171875-.445312-.300781-.417969-.34375-.875-.644532-1.355469-.894532-1.4375-.796874-3.050781-1.21875-4.695312-1.21875-.472657.050782-.945313.144532-1.40625.269532-.617188.121094-1.21875.3125-1.792969.566406-.144531.066406-.304688.058594-.441406.136719-3.105469 1.664062-6.371094 3.007812-9.746094 4.007812-.144531.050781-.238281.164063-.382812.214844-.550782.226563-1.074219.511719-1.5625.851563-.453126.242187-.882813.527343-1.28125.855468-.378907.382813-.71875.800782-1.015626 1.253906-.726562.777344-1.199218 1.761719-1.355468 2.816407-.179688.554687-.300782 1.125-.359375 1.707031 0 .152344-.085938.28125-.085938.433594v19.609375h-17.066406v-19.539063c0-.15625-.074219-.28125-.085937-.4375-.058594-.578125-.175782-1.152344-.355469-1.707031-.160157-1.050781-.632813-2.027344-1.359375-2.804687-.292969-.453126-.636719-.871094-1.015625-1.257813-.394531-.324219-.824219-.609375-1.277344-.851563-.488281-.339843-1.011719-.628906-1.5625-.851562-.144531-.054688-.238281-.164062-.382813-.214844-3.378906-1-6.644531-2.34375-9.746093-4.011718-.136719-.074219-.300781-.066407-.445313-.136719-.574218-.257813-1.179687-.449219-1.800781-.5625-.457031-.128907-.925781-.21875-1.398437-.273438-.574219-.007812-1.144532.046875-1.707032.164063-.492187.046875-.980468.140625-1.457031.28125-.519531.207031-1.015625.464844-1.488281.765625-.484375.261719-.945313.566406-1.371094.914062-.136719.121094-.308594.164063-.4375.289063l-13.8125 13.816406-12.066406-12.066406 13.789062-13.789063.050782-.078125c.753906-.769531 1.355468-1.675781 1.773437-2.667968.832031-1.96875.878906-4.179688.128906-6.179688-.09375-.257812-.179687-.496094-.289062-.734375-.113281-.238281-.128907-.402344-.230469-.578125-1.667969-3.105469-3.011719-6.371094-4.011719-9.746094-.050781-.144531-.160156-.238281-.214843-.382812-.222657-.550782-.511719-1.074219-.851563-1.5625-.246094-.453125-.53125-.882813-.851563-1.28125-.382812-.371094-.796874-.710938-1.238281-1.007813-.429687-.347656-.886719-.65625-1.375-.921875-.460937-.191406-.9375-.339844-1.425781-.441406-.582031-.183594-1.183594-.304688-1.789062-.359375-.148438 0-.273438-.085937-.421876-.085937h-19.539062v-17.03125zm0 0"/><path d="m177.132812 115.957031c3.332032-3.332031 3.332032-8.730469 0-12.066406-10.96875-10.476563-28.234374-10.476563-39.203124 0-7.925782 7.9375-10.292969 19.863281-5.996094 30.226563 4.292968 10.359374 14.40625 17.113281 25.625 17.109374 4.710937 0 8.53125-3.820312 8.53125-8.53125 0-4.714843-3.820313-8.535156-8.53125-8.535156-4.316406.003906-8.203125-2.597656-9.855469-6.582031-1.648437-3.984375-.734375-8.570313 2.320313-11.621094 4.214843-4.039062 10.863281-4.039062 15.078124 0 3.328126 3.308594 8.703126 3.308594 12.03125 0zm0 0"/><path d="m144.707031 196.035156h17.066407c4.710937 0 8.53125-3.820312 8.53125-8.53125 0-4.714844-3.820313-8.535156-8.53125-8.535156h-8.535157v-12.519531c0-.160157-.074219-.289063-.085937-.441407-.054688-.582031-.171875-1.152343-.347656-1.707031-.105469-.511719-.257813-1.007812-.460938-1.484375-.253906-.476562-.550781-.921875-.898438-1.332031-.300781-.457031-.644531-.882813-1.03125-1.273437-.394531-.320313-.816406-.605469-1.261718-.851563-.492188-.34375-1.023438-.632813-1.578125-.855469-.136719-.050781-.238281-.167968-.386719-.210937-2.390625-.714844-4.703125-1.667969-6.902344-2.84375-.148437-.054688-.296875-.101563-.453125-.144531-.566406-.246094-1.15625-.429688-1.765625-.546876-1.027344-.335937-2.132812-.375-3.183594-.109374-.484374.050781-.964843.144531-1.433593.28125-.527344.203124-1.03125.464843-1.5.777343-.480469.25-.9375.550781-1.355469.894531-.136719.121094-.308594.164063-.4375.292969l-8.855469 8.847657-6.035156-6.035157 8.832031-8.828125c1.628906-1.636718 2.53125-3.863281 2.5-6.171875-.023437-.925781-.199218-1.839843-.519531-2.703125-.085937-.242187-.171875-.453125-.273437-.683594-.066407-.203124-.148438-.402343-.238282-.597656-1.175781-2.199218-2.128906-4.511718-2.84375-6.902344 0-.148437-.160156-.25-.210937-.386718-.222657-.554688-.511719-1.085938-.855469-1.578125-.242188-.449219-.527344-.875-.851562-1.269531-.390626-.378907-.8125-.722657-1.261719-1.023438-.421875-.34375-.875-.648438-1.351563-.90625-.460937-.191406-.941406-.339844-1.433594-.445312-.582031-.183594-1.183593-.300782-1.789062-.355469-.148438 0-.265625-.085938-.417969-.085938h-12.511719v-8.535156h12.527344c1.035156-.011719 2.0625-.222656 3.019532-.613281.308593-.121094.574218-.289063.855468-.433594.613282-.316406 1.183594-.703125 1.707032-1.152344.269531-.238281.523437-.492187.757812-.761718.429688-.496094.796875-1.042969 1.09375-1.628907.1875-.324219.355469-.660156.503906-1.007812.058594-.160157.167969-.289063.21875-.453125.714844-2.390625 1.667969-4.703125 2.84375-6.902344.054688-.148438.105469-.296875.144532-.453125.246093-.558594.429687-1.148437.546874-1.746094.132813-.476562.230469-.960937.28125-1.453125 0-.570312-.054687-1.144531-.164062-1.707031-.046875-.5-.144531-.992187-.289062-1.476563-.457032-1.011718-1.03125-1.972656-1.707032-2.855468-.109375-.128906-.152344-.300782-.28125-.429688l-8.832031-8.863281 6.035156-6.035156 8.832031 8.832031c1.632813 1.628906 3.859376 2.53125 6.167969 2.5.925781-.023438 1.839844-.199219 2.703125-.519531.242188-.085938.453125-.171875.683594-.273438.203125-.066406.402344-.148437.597656-.238281 2.199219-1.175781 4.511719-2.128906 6.902344-2.84375.148438 0 .25-.160156.386719-.210938.554687-.222656 1.085937-.511718 1.578125-.855468.445312-.246094.867187-.53125 1.261718-.851563.386719-.390625.730469-.816406 1.03125-1.273437.359376-.390625.671876-.820313.941407-1.277344.203125-.480469.355469-.976562.460937-1.484375.175782-.558594.292969-1.128906.347656-1.707031 0-.15625.085938-.28125.085938-.445313v-12.578125h8.535156v12.519532c0 .160156.074219.289062.085938.441406.054687.582031.171875 1.152344.347656 1.707031.105469.511719.257812 1.007813.460938 1.484375.253906.476562.550781.921875.894531 1.332031.300781.457031.648437.882813 1.035156 1.273438.394531.320312.816406.605469 1.261719.851562.492187.34375 1.023437.632813 1.578125.855469.136719.050781.238281.167969.386719.210938 2.390624.714843 4.703124 1.667968 6.902343 2.84375 1.277344.6875 2.703125 1.050781 4.15625 1.046874 3.984375.019532 7.449219-2.726562 8.347657-6.605468.898437-3.882813-1.007813-7.871094-4.59375-9.605469-1.152344-.625-2.558594-1.015625-3.796876-1.5625v-15.324219c0-4.714844-3.820312-8.535156-8.535156-8.535156h-25.640625c-4.714843 0-8.535156 3.820312-8.535156 8.535156v12.5l-8.839844-8.839844c-3.332031-3.332031-8.734375-3.332031-12.066406 0l-18.097656 18.097657c-3.332031 3.332031-3.332031 8.734375 0 12.066406l8.839843 8.839844h-12.5c-4.714843 0-8.535156 3.820312-8.535156 8.535156v25.597656c0 4.714844 3.820313 8.535157 8.535156 8.535157h12.5l-8.839843 8.839843c-3.332031 3.332031-3.332031 8.734375 0 12.066407l18.097656 18.097656c3.332031 3.332031 8.734375 3.332031 12.066406 0l8.839844-8.839844v12.503906c0 4.710938 3.820313 8.53125 8.535156 8.53125zm0 0"/><path d="m249.238281 260.035156c0-4.710937-3.820312-8.53125-8.53125-8.53125-4.714843 0-8.535156 3.820313-8.535156 8.53125.019531 15.308594 12.425781 27.714844 27.734375 27.734375 4.710938 0 8.53125-3.820312 8.53125-8.535156 0-4.710937-3.820312-8.53125-8.53125-8.53125-5.886719-.011719-10.65625-4.78125-10.667969-10.667969zm0 0"/><path d="m247.105469 332.570312h25.601562c4.710938 0 8.53125-3.820312 8.53125-8.535156v-12.5l8.839844 8.839844c3.332031 3.332031 8.734375 3.332031 12.066406 0l18.101563-18.101562c3.332031-3.332032 3.332031-8.730469 0-12.0625l-8.839844-8.84375h12.5c4.710938 0 8.53125-3.820313 8.53125-8.53125v-17.066407c0-4.714843-3.820312-8.535156-8.53125-8.535156-4.714844 0-8.535156 3.820313-8.535156 8.535156v8.53125h-12.515625c-.15625 0-.28125.078125-.4375.085938-.601563.054687-1.195313.175781-1.773438.359375-.488281.109375-.96875.257812-1.433593.445312-.488282.261719-.945313.570313-1.375.917969-.441407.296875-.851563.632813-1.226563 1.007813-.328125.398437-.613281.828124-.855469 1.28125-.34375.484374-.628906 1.011718-.851562 1.5625-.050782.144531-.171875.246093-.214844.390624-.714844 2.390626-1.664062 4.703126-2.839844 6.902344-.105468.179688-.148437.394532-.230468.582032-.085938.1875-.199219.488281-.292969.742187-.289063.824219-.457031 1.6875-.492188 2.558594v.273437c0 .136719.074219.257813.085938.402344.050781 2.164062.972656 4.214844 2.558593 5.691406l8.738282 8.738282-6.035156 6.03125-8.855469-8.855469c-.128907-.128907-.300781-.171875-.4375-.289063-.882813-.679687-1.839844-1.25-2.855469-1.707031-1.050781-.257813-2.121094-.40625-3.203125-.445313-.476563.050782-.953125.140626-1.414063.273438-.609374.113281-1.203124.296875-1.765624.546875-.15625.039063-.304688.089844-.453126.144531-2.199218 1.175782-4.515624 2.128906-6.90625 2.839844-.144531.042969-.246093.164062-.382812.214844-.554688.222656-1.085938.507812-1.578125.855468-.445313.246094-.867187.53125-1.261719.851563-.386718.386719-.734375.8125-1.035156 1.269531-.34375.414063-.644531.859375-.894531 1.332032-.203125.480468-.355469.976562-.460938 1.484374-.175781.558594-.292969 1.128907-.347656 1.707032 0 .15625-.085937.28125-.085937.445312v12.5625h-8.601563v-12.519531c0-.164063-.078125-.289063-.085937-.445313-.058594-.578124-.175782-1.152343-.351563-1.707031-.085937-.527343-.226563-1.042969-.417969-1.542969-.25-.472656-.550781-.921874-.894531-1.332031-.300781-.457031-.648437-.882812-1.035156-1.269531-.394531-.324219-.816407-.609375-1.261719-.855469-.492188-.34375-1.019531-.628906-1.578125-.851562-.136719-.050781-.238281-.171875-.382813-.214844-2.390624-.714844-4.703124-1.664063-6.90625-2.839844-.144531-.058593-.296874-.105469-.449218-.144531-2.03125-.820312-4.273438-.953125-6.382813-.378906-.527343.207031-1.027343.464844-1.503906.769531-.476563.257813-.933594.5625-1.355469.90625-.136718.117187-.308594.160156-.4375.289063l-8.898437 8.90625-6.035157-6.03125 8.832032-8.832032c1.632812-1.636718 2.53125-3.859375 2.503906-6.167968-.023438-.925782-.199219-1.839844-.523438-2.707032-.085937-.238281-.167968-.453125-.273437-.683594-.066406-.203124-.144531-.402343-.238281-.597656-1.175782-2.199218-2.128906-4.511718-2.839844-6.902344 0-.144531-.164062-.246093-.214844-.382812-.46875-1.007812-1.039062-1.960938-1.707031-2.851562-.804687-.71875-1.675781-1.367188-2.601563-1.925782-.464843-.1875-.945312-.335937-1.433593-.445312-.578125-.183594-1.179688-.304688-1.785157-.359375-.144531 0-.273437-.085938-.425781-.085938h-12.519531v-17.066406c0-4.710937-3.820312-8.53125-8.53125-8.53125-4.714844 0-8.535156 3.820313-8.535156 8.53125v25.601563c0 4.710937 3.820312 8.53125 8.535156 8.53125h12.5l-8.839844 8.84375c-3.332031 3.332031-3.332031 8.730468 0 12.0625l18.097656 18.101562c3.335938 3.332031 8.734376 3.332031 12.066407 0l8.84375-8.839844v12.5c0 4.714844 3.820312 8.535156 8.53125 8.535156zm0 0"/></g></svg>