<svg height="512pt" viewBox="0 0 512 512.00632" width="512pt" xmlns="http://www.w3.org/2000/svg"><path d="m58.285156 8.535156h351.316406c9.425782 0 17.066407 7.640625 17.066407 17.066406v460.800782c0 9.425781-7.640625 17.066406-17.066407 17.066406h-351.316406c-9.425781 0-17.066406-7.640625-17.066406-17.066406v-460.800782c0-9.425781 7.640625-17.066406 17.066406-17.066406zm0 0" fill="#a4c2f7"/><path d="m58.285156 8.535156h327.167969c9.425781 0 17.066406 7.640625 17.066406 17.066406v460.800782c0 9.425781-7.640625 17.066406-17.066406 17.066406h-327.167969c-9.425781 0-17.066406-7.640625-17.066406-17.066406v-460.800782c0-9.425781 7.640625-17.066406 17.066406-17.066406zm0 0" fill="#d4e1f4"/><path d="m25.601562 68.269531h34.136719c9.425781 0 17.066407 7.640625 17.066407 17.066407 0 9.425781-7.640626 17.066406-17.066407 17.066406h-34.136719c-9.425781 0-17.066406-7.640625-17.066406-17.066406 0-9.425782 7.640625-17.066407 17.066406-17.066407zm0 0" fill="#a4c2f7"/><path d="m25.601562 136.535156h34.136719c9.425781 0 17.066407 7.640625 17.066407 17.066406 0 9.425782-7.640626 17.066407-17.066407 17.066407h-34.136719c-9.425781 0-17.066406-7.640625-17.066406-17.066407 0-9.425781 7.640625-17.066406 17.066406-17.066406zm0 0" fill="#a4c2f7"/><path d="m25.601562 204.804688h34.136719c9.425781 0 17.066407 7.640624 17.066407 17.066406 0 9.425781-7.640626 17.066406-17.066407 17.066406h-34.136719c-9.425781 0-17.066406-7.640625-17.066406-17.066406 0-9.425782 7.640625-17.066406 17.066406-17.066406zm0 0" fill="#a4c2f7"/><path d="m25.601562 273.070312h34.136719c9.425781 0 17.066407 7.640626 17.066407 17.066407s-7.640626 17.066406-17.066407 17.066406h-34.136719c-9.425781 0-17.066406-7.640625-17.066406-17.066406s7.640625-17.066407 17.066406-17.066407zm0 0" fill="#a4c2f7"/><path d="m25.601562 341.335938h34.136719c9.425781 0 17.066407 7.640624 17.066407 17.066406 0 9.425781-7.640626 17.066406-17.066407 17.066406h-34.136719c-9.425781 0-17.066406-7.640625-17.066406-17.066406 0-9.425782 7.640625-17.066406 17.066406-17.066406zm0 0" fill="#a4c2f7"/><path d="m25.601562 409.601562h34.136719c9.425781 0 17.066407 7.644532 17.066407 17.066407 0 9.425781-7.640626 17.070312-17.066407 17.070312h-34.136719c-9.425781 0-17.066406-7.644531-17.066406-17.070312 0-9.421875 7.640625-17.066407 17.066406-17.066407zm0 0" fill="#a4c2f7"/><path d="m498.433594 95.832031-18.089844 18.089844c3.222656 3.195313 5.035156 7.539063 5.035156 12.074219s-1.8125 8.882812-5.035156 12.078125l-5.972656 6.058593c-3.199219 3.203126-7.546875 5.003907-12.074219 5.003907-4.53125 0-8.875-1.800781-12.074219-5.003907l-106.839844 106.835938-1.789062 1.535156c-.121094-8.804687-4.851562-16.902344-12.460938-21.332031-1.730468-.945313-3.605468-1.609375-5.546874-1.964844-2.019532-.425781-4.078126-.625-6.144532-.597656.160156-4.660156-.992187-9.273437-3.328125-13.308594v-.085937c-3.347656-5.023438-8.519531-8.542969-14.417969-9.8125-2.007812-.539063-4.070312-.855469-6.144531-.941406.460938-.636719.976563-1.238282 1.535157-1.792969l2.816406-2.8125 104.019531-104.023438c-6.597656-6.695312-6.597656-17.453125 0-24.148437l6.058594-6.058594c3.203125-3.207031 7.546875-5.007812 12.074219-5.007812 4.53125 0 8.875 1.800781 12.078124 5.007812l18.089844-18.089844c6.292969-6.296875 16.382813-6.671875 23.125-.855468.363282.257812.703125.546874 1.023438.855468l18.089844 18.089844 5.972656 6.058594c3.234375 3.183594 5.058594 7.535156 5.058594 12.074218 0 4.539063-1.824219 8.890626-5.058594 12.074219zm0 0" fill="#a4c2f7"/><path d="m485.378906 125.957031c.003906 4.546875-1.808594 8.910157-5.035156 12.117188l-5.972656 6.058593c-3.199219 3.203126-7.546875 5.003907-12.074219 5.003907-4.53125 0-8.875-1.800781-12.074219-5.003907l-48.300781-48.300781c-6.597656-6.695312-6.597656-17.453125 0-24.148437l6.058594-6.058594c6.316406-6.359375 16.492187-6.695312 23.210937-.769531.351563.210937.667969.46875.941406.769531l48.210938 48.296875c3.210938 3.183594 5.023438 7.511719 5.035156 12.035156zm0 0" fill="#a4c2f7"/><path d="m498.433594 95.832031-18.089844 18.089844-16.980469-17.066406-31.230469-31.230469 18.089844-18.089844c6.292969-6.296875 16.382813-6.671875 23.125-.855468.363282.257812.703125.546874 1.023438.855468l18.089844 18.089844 5.972656 6.058594c3.234375 3.183594 5.058594 7.535156 5.058594 12.074218 0 4.539063-1.824219 8.890626-5.058594 12.074219zm0 0" fill="#a4c2f7"/><path d="m341.59375 252.503906c-.769531.511719-1.453125.9375-2.21875 1.367188l-52.054688 27.988281c.507813-6.292969-1.695312-12.503906-6.058593-17.066406-1.335938-1.351563-2.859375-2.5-4.523438-3.414063-2.132812-1.132812-4.441406-1.910156-6.824219-2.304687-1.917968-.328125-3.863281-.441407-5.804687-.339844l3.414063-6.402344 24.574218-45.652343c.433594-.769532.917969-1.511719 1.453125-2.21875 2.074219.085937 4.136719.402343 6.144531.941406 5.898438 1.269531 11.070313 4.789062 14.417969 9.8125v.085937c2.335938 4.035157 3.488281 8.648438 3.328125 13.308594 2.066406-.027344 4.125.171875 6.144532.597656 10.628906 2.730469 18.046874 12.324219 18.007812 23.296875zm0 0" fill="#a4c2f7"/><path d="m433.15625 127.234375-104.023438 103.9375-2.816406 2.816406-1.789062 1.535157c-.097656-2.132813-.414063-4.246094-.941406-6.316407-1.332032-5.644531-4.707032-10.597656-9.472657-13.90625v-.085937c-4.140625-2.484375-8.910156-3.726563-13.738281-3.585938.050781-2.097656-.179688-4.191406-.679688-6.226562-.339843-1.925782-.941406-3.792969-1.792968-5.546875l104.019531-104.023438c-3.328125-3.328125 37.890625 37.972657 31.234375 31.402344zm0 0" fill="#e3e7f2"/><path d="m468.3125 109.058594c-.027344 4.542968-1.835938 8.894531-5.035156 12.117187l-5.972656 6.058594c-6.332032 6.214844-16.351563 6.582031-23.125.855469l-32.257813-32.257813c-6.597656-6.695312-6.597656-17.453125 0-24.148437l6.058594-6.058594c6.316406-6.359375 16.492187-6.695312 23.210937-.769531l32.085938 32.085937c3.199218 3.226563 5.007812 7.574219 5.035156 12.117188zm0 0" fill="#d4e1f4"/><path d="m481.367188 78.851562-18.003907 18.003907-31.230469-31.230469 18.089844-18.089844c6.292969-6.296875 16.382813-6.671875 23.125-.855468l2.046875 2.050781 5.972657 5.972656c3.234374 3.183594 5.058593 7.535156 5.058593 12.074219 0 4.539062-1.824219 8.886718-5.058593 12.074218zm0 0" fill="#e3e7f2"/><path d="m324.527344 235.523438c-.769532.511718-1.453125 1.023437-2.21875 1.449218l-45.570313 24.40625-6.484375 3.5c.101563-1.941406-.011718-3.886718-.339844-5.804687-.4375-2.359375-1.242187-4.632813-2.390624-6.742188l24.574218-45.652343c.433594-.769532.917969-1.511719 1.453125-2.21875 2.074219.085937 4.136719.402343 6.144531.941406.5 2.035156.730469 4.128906.679688 6.226562 4.828125-.140625 9.597656 1.101563 13.738281 3.585938v.085937c4.765625 3.308594 8.140625 8.261719 9.472657 13.90625.527343 2.070313.84375 4.183594.941406 6.316407zm0 0" fill="#e3e7f2"/><path d="m287.320312 281.859375-16.726562 9.046875c-4.429688 2.402344-9.917969 1.605469-13.480469-1.964844v-.085937c-3.617187-3.539063-4.417969-9.058594-1.964843-13.480469l8.960937-16.640625c6.324219-.679687 12.617187 1.535156 17.121094 6.027344 4.507812 4.488281 6.746093 10.769531 6.089843 17.097656zm0 0" fill="#a4c2f7"/><path d="m25.601562 409.601562c-9.425781 0-17.066406 7.644532-17.066406 17.066407 0 9.425781 7.640625 17.070312 17.066406 17.070312h15.617188v42.664063c.027344 9.414062 7.652344 17.039062 17.066406 17.066406h25.601563c-9.414063-.027344-17.039063-7.652344-17.066407-17.066406v-42.664063h-15.617187c-9.425781 0-17.066406-7.644531-17.066406-17.070312 0-9.421875 7.640625-17.066407 17.066406-17.066407h15.617187v-34.132812h-15.617187c-9.425781 0-17.066406-7.640625-17.066406-17.066406 0-9.425782 7.640625-17.066406 17.066406-17.066406h15.617187v-34.132813h-15.617187c-9.425781 0-17.066406-7.640625-17.066406-17.066406s7.640625-17.066407 17.066406-17.066407h15.617187v-34.132812h-15.617187c-9.425781 0-17.066406-7.640625-17.066406-17.066406 0-9.425782 7.640625-17.066406 17.066406-17.066406h15.617187v-34.136719h-15.617187c-9.425781 0-17.066406-7.640625-17.066406-17.066407 0-9.425781 7.640625-17.066406 17.066406-17.066406h15.617187v-34.132812h-15.617187c-9.425781 0-17.066406-7.640625-17.066406-17.066406 0-9.425782 7.640625-17.066407 17.066406-17.066407h15.617187v-42.667969c.027344-9.414062 7.652344-17.035156 17.066407-17.066406h-25.601563c-9.414062.03125-17.039062 7.652344-17.066406 17.066406v42.667969h-15.617188c-9.425781 0-17.066406 7.640625-17.066406 17.066407 0 9.425781 7.640625 17.066406 17.066406 17.066406h15.617188v34.132812h-15.617188c-9.425781 0-17.066406 7.640625-17.066406 17.066406 0 9.425782 7.640625 17.066407 17.066406 17.066407h15.617188v34.136719h-15.617188c-9.425781 0-17.066406 7.640624-17.066406 17.066406 0 9.425781 7.640625 17.066406 17.066406 17.066406h15.617188v34.132812h-15.617188c-9.425781 0-17.066406 7.640626-17.066406 17.066407s7.640625 17.066406 17.066406 17.066406h15.617188v34.132813h-15.617188c-9.425781 0-17.066406 7.640624-17.066406 17.066406 0 9.425781 7.640625 17.066406 17.066406 17.066406h15.617188v34.132812zm0 0" fill="#fff"/><path d="m408.777344 512.003906h-348.214844v-17.066406h348.214844zm0 0" fill="#fff"/><g fill="#428dff"><path d="m374.617188 494.9375c-4.714844 0-8.535157 3.820312-8.535157 8.53125 0 4.714844 3.820313 8.535156 8.535157 8.535156h34.132812c14.367188.21875 26.199219-11.234375 26.453125-25.601562v-273.066406c0-4.710938-3.820313-8.53125-8.535156-8.53125-4.710938 0-8.53125 3.820312-8.53125 8.53125v273.066406c-.246094 4.945312-4.441407 8.761718-9.386719 8.535156zm0 0"/><path d="m340.484375 512.003906c2.257813-.035156 4.421875-.917968 6.058594-2.476562l1.023437-1.277344c.324219-.476562.585938-.992188.777344-1.539062.238281-.484376.410156-1 .503906-1.535157.09375-.5625.148438-1.132812.167969-1.707031-.03125-2.257812-.914063-4.421875-2.472656-6.058594-3.398438-3.21875-8.722657-3.21875-12.117188 0-.769531.820313-1.378906 1.773438-1.792969 2.816406-.4375 1.027344-.667968 2.128907-.683593 3.242188-.023438 2.269531.871093 4.457031 2.472656 6.058594 1.605469 1.605468 3.792969 2.5 6.0625 2.476562zm0 0"/><path d="m25.601562 401.070312c-14.136718 0-25.59765575 11.460938-25.59765575 25.597657 0 14.140625 11.46093775 25.601562 25.59765575 25.601562h8.535157v34.132813c.253906 14.367187 12.085937 25.820312 26.453125 25.601562h245.761718c4.710938 0 8.53125-3.820312 8.53125-8.535156 0-4.710938-3.820312-8.53125-8.53125-8.53125h-186.882812c0-4.714844-3.820312-8.535156-8.53125-8.535156-4.714844 0-8.535156 3.820312-8.535156 8.535156h-41.8125c-4.945313.226562-9.144532-3.589844-9.386719-8.535156v-34.132813h8.535156c14.136719 0 25.597657-11.460937 25.597657-25.601562 0-14.136719-11.460938-25.597657-25.597657-25.597657h-8.535156v-17.066406h8.535156c14.136719 0 25.597657-11.460937 25.597657-25.601562 0-14.136719-11.460938-25.597656-25.597657-25.597656h-8.535156v-17.066407h8.535156c14.136719 0 25.597657-11.464843 25.597657-25.601562s-11.460938-25.601563-25.597657-25.601563h-8.535156v-17.066406h8.535156c14.136719 0 25.597657-11.460938 25.597657-25.597656 0-14.140625-11.460938-25.601563-25.597657-25.601563h-8.535156v-17.066406h8.535156c14.136719 0 25.597657-11.460937 25.597657-25.601563 0-14.136718-11.460938-25.597656-25.597657-25.597656h-8.535156v-17.066406h8.535156c14.136719 0 25.597657-11.460938 25.597657-25.601562 0-14.136719-11.460938-25.597657-25.597657-25.597657h-8.535156v-34.136719c.242187-4.941406 4.441406-8.757812 9.386719-8.53125h41.8125c0 4.710938 3.820312 8.53125 8.535156 8.53125 4.710938 0 8.53125-3.820312 8.53125-8.53125h289.28125c4.945312-.226562 9.140625 3.589844 9.386719 8.53125 0 4.714844 3.820312 8.535157 8.53125 8.535157 4.714843 0 8.535156-3.820313 8.535156-8.535157-.246094-14.367187-12.085937-25.820312-26.453125-25.59765575h-348.160156c-14.371094-.22265625-26.207032 11.23046875-26.453125 25.59765575v34.136719h-8.535157c-14.136718 0-25.59765575 11.460938-25.59765575 25.597657 0 14.140624 11.46093775 25.601562 25.59765575 25.601562h8.535157v17.066406h-8.535157c-14.136718 0-25.59765575 11.460938-25.59765575 25.597656 0 14.140626 11.46093775 25.601563 25.59765575 25.601563h8.535157v17.066406h-8.535157c-14.136718 0-25.59765575 11.460938-25.59765575 25.601563 0 14.136718 11.46093775 25.597656 25.59765575 25.597656h8.535157v17.066406h-8.535157c-14.136718 0-25.59765575 11.464844-25.59765575 25.601563s11.46093775 25.601562 25.59765575 25.601562h8.535157v17.066407h-8.535157c-14.136718 0-25.59765575 11.460937-25.59765575 25.597656 0 14.140625 11.46093775 25.601562 25.59765575 25.601562h8.535157v17.066406zm-8.53125-315.734374c0-4.710938 3.820313-8.53125 8.53125-8.53125h34.136719c4.710938 0 8.53125 3.820312 8.53125 8.53125 0 4.714843-3.820312 8.535156-8.53125 8.535156h-34.136719c-4.710937 0-8.53125-3.820313-8.53125-8.535156zm0 68.265624c0-4.710937 3.820313-8.53125 8.53125-8.53125h34.136719c4.710938 0 8.53125 3.820313 8.53125 8.53125 0 4.714844-3.820312 8.535157-8.53125 8.535157h-34.136719c-4.710937 0-8.53125-3.820313-8.53125-8.535157zm0 68.269532c0-4.714844 3.820313-8.535156 8.53125-8.535156h34.136719c4.710938 0 8.53125 3.820312 8.53125 8.535156 0 4.710937-3.820312 8.53125-8.53125 8.53125h-34.136719c-4.710937 0-8.53125-3.820313-8.53125-8.53125zm0 68.265625c0-4.714844 3.820313-8.535157 8.53125-8.535157h34.136719c4.710938 0 8.53125 3.820313 8.53125 8.535157 0 4.710937-3.820312 8.53125-8.53125 8.53125h-34.136719c-4.710937 0-8.53125-3.820313-8.53125-8.53125zm0 68.265625c0-4.710938 3.820313-8.53125 8.53125-8.53125h34.136719c4.710938 0 8.53125 3.820312 8.53125 8.53125 0 4.714844-3.820312 8.535156-8.53125 8.535156h-34.136719c-4.710937 0-8.53125-3.820312-8.53125-8.535156zm51.199219 68.265625c0 4.714843-3.820312 8.535156-8.53125 8.535156h-34.136719c-4.710937 0-8.53125-3.820313-8.53125-8.535156 0-4.710938 3.820313-8.53125 8.53125-8.53125h34.136719c4.710938 0 8.53125 3.820312 8.53125 8.53125zm0 0"/><path d="m119.46875 108.964844c0-4.710938-3.820312-8.53125-8.53125-8.53125-4.714844 0-8.535156 3.820312-8.535156 8.53125v18.382812c0 4.710938 3.820312 8.53125 8.535156 8.53125 4.710938 0 8.53125-3.820312 8.53125-8.53125zm0 0"/><path d="m119.46875 53.832031c0-4.714843-3.820312-8.535156-8.53125-8.535156-4.714844 0-8.535156 3.820313-8.535156 8.535156v18.371094c0 4.714844 3.820312 8.535156 8.535156 8.535156 4.710938 0 8.53125-3.820312 8.53125-8.535156zm0 0"/><path d="m119.46875 274.382812c0-4.710937-3.820312-8.53125-8.53125-8.53125-4.714844 0-8.535156 3.820313-8.535156 8.53125v18.382813c0 4.710937 3.820312 8.53125 8.535156 8.53125 4.710938 0 8.53125-3.820313 8.53125-8.53125zm0 0"/><path d="m110.9375 431.269531c-4.714844 0-8.535156 3.820313-8.535156 8.53125v18.375c0 4.710938 3.820312 8.53125 8.535156 8.53125 4.710938 0 8.53125-3.820312 8.53125-8.53125v-18.375c0-4.710937-3.820312-8.53125-8.53125-8.53125zm0 0"/><path d="m119.46875 164.109375c0-4.714844-3.820312-8.535156-8.53125-8.535156-4.714844 0-8.535156 3.820312-8.535156 8.535156v18.378906c0 4.714844 3.820312 8.535157 8.535156 8.535157 4.710938 0 8.53125-3.820313 8.53125-8.535157zm0 0"/><path d="m119.46875 384.660156c0-4.710937-3.820312-8.535156-8.53125-8.535156-4.714844 0-8.535156 3.824219-8.535156 8.535156v18.382813c0 4.710937 3.820312 8.53125 8.535156 8.53125 4.710938 0 8.53125-3.820313 8.53125-8.53125zm0 0"/><path d="m119.46875 329.527344c0-4.714844-3.820312-8.535156-8.53125-8.535156-4.714844 0-8.535156 3.820312-8.535156 8.535156v18.378906c0 4.714844 3.820312 8.535156 8.535156 8.535156 4.710938 0 8.53125-3.820312 8.53125-8.535156zm0 0"/><path d="m119.46875 219.242188c0-4.714844-3.820312-8.535157-8.53125-8.535157-4.714844 0-8.535156 3.820313-8.535156 8.535157v18.378906c0 4.714844 3.820312 8.535156 8.535156 8.535156 4.710938 0 8.53125-3.820312 8.53125-8.535156zm0 0"/><path d="m366.9375 76.804688c0-4.714844-3.820312-8.535157-8.535156-8.535157h-213.332032c-4.714843 0-8.535156 3.820313-8.535156 8.535157 0 4.710937 3.820313 8.53125 8.535156 8.53125h213.332032c4.714844 0 8.535156-3.820313 8.535156-8.53125zm0 0"/><path d="m358.402344 110.9375c0-4.714844-3.820313-8.535156-8.53125-8.535156h-204.800782c-4.714843 0-8.535156 3.820312-8.535156 8.535156 0 4.710938 3.820313 8.53125 8.535156 8.53125h204.800782c4.710937 0 8.53125-3.820312 8.53125-8.53125zm0 0"/><path d="m324.269531 145.070312c0-4.714843-3.820312-8.535156-8.53125-8.535156h-170.667969c-4.714843 0-8.535156 3.820313-8.535156 8.535156 0 4.710938 3.820313 8.53125 8.535156 8.53125h170.667969c4.710938 0 8.53125-3.820312 8.53125-8.53125zm0 0"/><path d="m290.136719 179.203125c0-4.710937-3.820313-8.535156-8.535157-8.535156h-136.53125c-4.714843 0-8.535156 3.824219-8.535156 8.535156 0 4.714844 3.820313 8.535156 8.535156 8.535156h136.53125c4.714844 0 8.535157-3.820312 8.535157-8.535156zm0 0"/><path d="m264.535156 213.335938c0-4.710938-3.820312-8.53125-8.53125-8.53125h-110.933594c-4.714843 0-8.535156 3.820312-8.535156 8.53125 0 4.714843 3.820313 8.535156 8.535156 8.535156h110.933594c4.710938 0 8.53125-3.820313 8.53125-8.535156zm0 0"/><path d="m238.9375 238.9375h-93.867188c-4.714843 0-8.535156 3.820312-8.535156 8.53125 0 4.714844 3.820313 8.535156 8.535156 8.535156h93.867188c4.710938 0 8.53125-3.820312 8.53125-8.535156 0-4.710938-3.820312-8.53125-8.53125-8.53125zm0 0"/><path d="m392.535156 290.136719c4.714844 0 8.535156-3.820313 8.535156-8.535157 0-4.710937-3.820312-8.53125-8.535156-8.53125h-51.199218c-4.710938 0-8.53125 3.820313-8.53125 8.53125 0 4.714844 3.820312 8.535157 8.53125 8.535157zm0 0"/><path d="m145.070312 290.136719h76.800782c4.710937 0 8.53125-3.820313 8.53125-8.535157 0-4.710937-3.820313-8.53125-8.53125-8.53125h-76.800782c-4.714843 0-8.535156 3.820313-8.535156 8.53125 0 4.714844 3.820313 8.535157 8.535156 8.535157zm0 0"/><path d="m290.136719 315.738281c0 4.710938 3.820312 8.53125 8.53125 8.53125h93.867187c4.714844 0 8.535156-3.820312 8.535156-8.53125 0-4.714843-3.820312-8.535156-8.535156-8.535156h-93.867187c-4.710938 0-8.53125 3.820313-8.53125 8.535156zm0 0"/><path d="m145.070312 324.269531h85.332032c4.714844 0 8.535156-3.820312 8.535156-8.53125 0-4.714843-3.820312-8.535156-8.535156-8.535156h-85.332032c-4.714843 0-8.535156 3.820313-8.535156 8.535156 0 4.710938 3.820313 8.53125 8.535156 8.53125zm0 0"/><path d="m136.535156 349.871094c0 4.710937 3.820313 8.53125 8.535156 8.53125h247.464844c4.714844 0 8.535156-3.820313 8.535156-8.53125 0-4.714844-3.820312-8.535156-8.535156-8.535156h-247.464844c-4.714843 0-8.535156 3.820312-8.535156 8.535156zm0 0"/><path d="m145.070312 392.535156h247.464844c4.714844 0 8.535156-3.820312 8.535156-8.53125 0-4.714844-3.820312-8.535156-8.535156-8.535156h-247.464844c-4.714843 0-8.535156 3.820312-8.535156 8.535156 0 4.710938 3.820313 8.53125 8.535156 8.53125zm0 0"/><path d="m145.070312 426.667969h247.464844c4.714844 0 8.535156-3.820313 8.535156-8.53125 0-4.714844-3.820312-8.535157-8.535156-8.535157h-247.464844c-4.714843 0-8.535156 3.820313-8.535156 8.535157 0 4.710937 3.820313 8.53125 8.535156 8.53125zm0 0"/><path d="m145.070312 460.804688h247.464844c4.714844 0 8.535156-3.820313 8.535156-8.535157 0-4.710937-3.820312-8.53125-8.535156-8.53125h-247.464844c-4.714843 0-8.535156 3.820313-8.535156 8.53125 0 4.714844 3.820313 8.535157 8.535156 8.535157zm0 0"/><path d="m480.371094 41.519531c-10.132813-9.664062-26.066406-9.664062-36.199219 0l-13.097656 13.097657c-9.820313-4.5-21.394531-2.507813-29.140625 5.015624l-6.035156 6.035157c-7.675782 7.667969-9.683594 19.347656-5.007813 29.140625l-101.835937 101.820312c-.34375.347656-.546876.808594-.855469 1.175782-1.253907.949218-2.214844 2.238281-2.765625 3.714843-.238282.382813-.585938.679688-.800782 1.082031l-37.035156 68.761719c-4.210937 7.773438-2.816406 17.390625 3.433594 23.640625 6.253906 6.253906 15.867188 7.65625 23.644531 3.445313l15.714844-8.464844c.136719-.050781.25-.148437.378906-.207031l52.640625-28.347656c.367188-.195313.648438-.527344 1.007813-.742188 1.523437-.554688 2.851562-1.539062 3.820312-2.839844.359375-.316406.855469-.511718 1.152344-.855468l101.839844-101.851563c9.816406 4.5 21.390625 2.511719 29.140625-5.011719l6.03125-6.03125c7.671875-7.671875 9.675781-19.34375 5-29.132812l13.101562-13.097656c4.800782-4.800782 7.5-11.316407 7.5-18.105469 0-6.789063-2.699218-13.300781-7.5-18.101563zm-78.449219 66.371094 12.066406 12.074219-18.097656 18.097656c-2.21875 2.144531-3.109375 5.316406-2.328125 8.300781s3.113281 5.3125 6.09375 6.09375c2.984375.78125 6.15625-.109375 8.300781-2.328125l18.097657-18.097656 12.074218 12.066406-92.226562 92.277344c-2.632813-5.1875-6.757813-9.46875-11.84375-12.296875l49.765625-49.773437c2.21875-2.140626 3.109375-5.316407 2.328125-8.296876-.78125-2.984374-3.113282-5.316406-6.097656-6.097656-2.980469-.777344-6.15625.109375-8.296876 2.328125l-49.765624 49.765625c-2.824219-5.085937-7.105469-9.207031-12.296876-11.835937zm-103.890625 105.8125c6.871094 1.464844 11.554688 7.851563 10.878906 14.847656v.050781c.054688.503907.15625 1.003907.308594 1.484376.058594.617187.179688 1.222656.363281 1.8125.203125.351562.433594.691406.683594 1.011718.3125.613282.695313 1.1875 1.144531 1.707032.390625.324218.8125.609374 1.253906.855468.449219.375.933594.699219 1.449219.972656.636719.207032 1.296875.34375 1.964844.402344.4375.125.886719.21875 1.339844.28125h.136719c6.980468-.65625 13.339843 4.027344 14.789062 10.886719l-38.640625 20.789063c-2.8125-7.644532-8.832031-13.667969-16.46875-16.488282zm-31.445312 69.734375c-1.148438.613281-2.5625.390625-3.464844-.546875-.910156-.898437-1.117188-2.289063-.503906-3.414063l6.355468-11.792968c4.832032.765625 8.625 4.554687 9.386719 9.386718zm207.75-151.40625-6.03125 6.03125c-3.375 3.234375-8.695313 3.234375-12.066407 0l-48.273437-48.273438c-3.332032-3.332031-3.332032-8.730468 0-12.0625l6.03125-6.035156c3.332031-3.324218 8.726562-3.324218 12.058594 0l48.273437 48.273438c3.335937 3.328125 3.335937 8.730468.007813 12.066406zm18.101562-42.242188-12.066406 12.078126-36.207032-36.207032 12.074219-12.074218c3.378907-3.21875 8.6875-3.21875 12.066407 0l18.097656 18.097656 6.035156 6.03125c1.601562 1.601562 2.5 3.773437 2.5 6.039062s-.898438 4.4375-2.5 6.035156zm0 0"/></g></svg>