<svg height="512.00003pt" viewBox="0 0 512.00003 512.00003" width="512.00003pt" xmlns="http://www.w3.org/2000/svg"><path d="m119.464844 110.933594h221.867187v51.199218h-221.867187zm0 0" fill="#a4c2f7"/><path d="m119.464844 110.933594h170.667968v51.199218h-170.667968zm0 0" fill="#d4e1f4"/><path d="m162.132812 110.933594h-17.066406c-9.425781 0-17.066406-7.640625-17.066406-17.066406 0-11.324219 1.511719-22.59375 4.488281-33.519532l21.113281-51.8125c-31.6875 0-58.660156 44.976563-70.453124 81.320313-4.195313 12.867187-6.339844 26.316406-6.347657 39.851562v20.402344c.007813 7.714844 3.074219 15.105469 8.53125 20.558594 5.460938 5.453125 8.53125 12.855469 8.535157 20.574219v2.558593c.234374 4.867188-1.71875 9.582031-5.324219 12.859375-2.03125 1.621094-3.210938 4.078125-3.210938 6.671875v17.066407c.03125 9.414062 7.652344 17.039062 17.066407 17.066406h17.066406c9.414062-.027344 17.039062-7.652344 17.070312-17.066406v-17.066407c-.003906-2.589843-1.1875-5.039062-3.210937-6.65625-3.605469-3.273437-5.558594-7.992187-5.324219-12.859375v-14.617187c0-9.425781 7.640625-17.066407 17.066406-17.066407h17.066406zm0 0" fill="#e3e7f2"/><path d="m324.265625 102.398438h170.667969c4.710937 0 8.53125 3.820312 8.53125 8.535156v51.199218c0 4.714844-3.820313 8.535157-8.53125 8.535157h-170.667969c-4.710937 0-8.53125-3.820313-8.53125-8.535157v-51.199218c0-4.714844 3.820313-8.535156 8.53125-8.535156zm0 0" fill="#a4c2f7"/><path d="m324.265625 102.398438h145.066406c4.714844 0 8.535157 3.820312 8.535157 8.535156v51.199218c0 4.714844-3.820313 8.535157-8.535157 8.535157h-145.066406c-4.710937 0-8.53125-3.820313-8.53125-8.535157v-51.199218c0-4.714844 3.820313-8.535156 8.53125-8.535156zm0 0" fill="#e3e7f2"/><path d="m102.398438 452.265625v-136.53125c-25.597657 0-25.597657-34.132813-25.597657-34.132813h85.332031s0 34.132813-25.597656 34.132813v136.53125zm0 0" fill="#a4c2f7"/><path d="m17.066406 435.199219h477.867188c4.710937 0 8.53125 3.820312 8.53125 8.535156v51.199219c0 4.710937-3.820313 8.53125-8.53125 8.53125h-477.867188c-4.710937 0-8.53125-3.820313-8.53125-8.53125v-51.199219c0-4.714844 3.820313-8.535156 8.53125-8.535156zm0 0" fill="#a4c2f7"/><path d="m17.066406 435.199219h452.265625c4.714844 0 8.535157 3.820312 8.535157 8.535156v51.199219c0 4.710937-3.820313 8.53125-8.535157 8.53125h-452.265625c-4.710937 0-8.53125-3.820313-8.53125-8.53125v-51.199219c0-4.714844 3.820313-8.535156 8.53125-8.535156zm0 0" fill="#e3e7f2"/><g fill="#fff"><path d="m17.066406 503.464844h25.601563c-4.714844 0-8.535157-3.820313-8.535157-8.53125v-51.199219c0-4.714844 3.820313-8.535156 8.535157-8.535156h-25.601563c-4.710937 0-8.53125 3.820312-8.53125 8.535156v51.199219c0 4.710937 3.820313 8.53125 8.53125 8.53125zm0 0"/><path d="m85.332031 170.667969c5.460938 5.453125 8.53125 12.855469 8.535157 20.574219v2.558593c.234374 4.867188-1.722657 9.585938-5.332032 12.859375-2.027344 1.621094-3.207031 4.078125-3.203125 6.671875v17.066407c.03125 9.414062 7.652344 17.039062 17.066407 17.066406h17.066406c1.445312-.015625 2.878906-.222656 4.269531-.613282-7.511719-1.9375-12.769531-8.695312-12.800781-16.453124v-17.066407c0-2.589843 1.179687-5.035156 3.199218-6.65625 3.613282-3.269531 5.570313-7.988281 5.332032-12.859375v-2.558594c.003906-7.722656-3.066406-15.132812-8.53125-20.589843-5.460938-5.457031-8.53125-12.855469-8.535156-20.574219v-20.386719c.015624-13.527343 2.15625-26.964843 6.351562-39.824219 7.566406-24.894531 20.855469-47.667968 38.808594-66.5l6.042968-14.847656c-31.6875 0-58.660156 44.976563-70.453124 81.320313-4.195313 12.867187-6.339844 26.316406-6.347657 39.851562v20.402344c.007813 7.714844 3.074219 15.105469 8.53125 20.558594zm0 0"/><path d="m110.917969 315.734375v119.464844h-17.070313v-119.464844zm0 0"/></g><path d="m79.292969 176.71875c3.835937 3.851562 6 9.066406 6.023437 14.503906v2.5625c.1875 2.277344-.59375 4.535156-2.152344 6.210938-4.035156 3.25-6.375 8.15625-6.363281 13.335937v17.066407c0 14.140624 11.460938 25.601562 25.597657 25.601562h17.066406c14.140625 0 25.601562-11.460938 25.601562-25.601562v-17.066407c.003906-5.175781-2.347656-10.070312-6.390625-13.300781-1.550781-1.679688-2.328125-3.933594-2.140625-6.214844v-14.617187c0-4.710938 3.820313-8.53125 8.53125-8.53125h164.488282c3.027343 5.265625 8.636718 8.519531 14.710937 8.53125h170.667969c9.425781 0 17.066406-7.640625 17.066406-17.066407v-51.199218c0-9.425782-7.640625-17.066406-17.066406-17.066406h-170.667969c-6.070313.019531-11.667969 3.269531-14.691406 8.53125h-164.507813c-4.710937 0-8.53125-3.820313-8.53125-8.53125-.003906-10.398438 1.363282-20.75 4.058594-30.789063l20.90625-51.328125c1.074219-2.628906.765625-5.621094-.820312-7.980469-1.585938-2.355469-4.238282-3.769531-7.078126-3.769531-39.671874 0-68.0625 54.816406-78.566406 87.21875-4.476562 13.71875-6.757812 28.058594-6.769531 42.488281v20.394531c.03125 9.867188 3.90625 19.332032 10.804687 26.386719.070313.078125.144532.15625.222657.230469zm279.105469-65.785156v25.601562c0 4.710938 3.820312 8.53125 8.535156 8.53125 4.710937 0 8.53125-3.820312 8.53125-8.53125v-25.601562h25.601562v25.601562c0 4.710938 3.820313 8.53125 8.535156 8.53125 4.710938 0 8.53125-3.820312 8.53125-8.53125v-25.601562h25.601563v25.601562c0 4.710938 3.820313 8.53125 8.53125 8.53125 4.714844 0 8.535156-3.820312 8.535156-8.53125v-25.601562h34.132813v51.199218h-170.667969v-51.199218zm-51.199219 42.667968h-136.53125v-34.136718h136.53125zm-221.867188-23.894531c.027344-12.636719 2.042969-25.1875 5.976563-37.195312 9.828125-30.269531 28.226562-60.84375 48.039062-71.484375l-14.761718 36.09375c-.136719.316406-.246094.640625-.332032.972656-3.175781 11.660156-4.789062 23.6875-4.789062 35.773438 0 14.136718 11.464844 25.597656 25.601562 25.597656h8.535156v34.136718h-8.535156c-14.136718 0-25.601562 11.460938-25.601562 25.597657v14.617187c-.269532 7.464844 2.871094 14.648438 8.535156 19.515625v17.066407c0 4.714843-3.820312 8.535156-8.535156 8.535156h-17.066406c-4.710938 0-8.53125-3.820313-8.53125-8.535156v-17.066407c5.660156-4.871093 8.796874-12.050781 8.53125-19.515625v-2.558594c-.027344-9.867187-3.902344-19.332031-10.800782-26.386718-.074218-.089844-.15625-.171875-.238281-.253906-3.839844-3.855469-6.003906-9.066407-6.027344-14.507813zm0 0" fill="#428dff"/><path d="m102.398438 392.535156c3.46875.019532 6.601562-2.0625 7.933593-5.261718 1.328125-3.203126.589844-6.890626-1.875-9.332032l-1.277343-1.023437c-.476563-.324219-.992188-.582031-1.535157-.769531-.484375-.246094-1.003906-.417969-1.539062-.511719-.5625-.09375-1.132813-.152344-1.707031-.171875-2.257813.035156-4.421876.917968-6.058594 2.476562-.769532.816406-1.378906 1.773438-1.789063 2.816406-1.289062 3.183594-.585937 6.824219 1.789063 9.300782.816406.769531 1.773437 1.378906 2.816406 1.792968 1.027344.4375 2.128906.667969 3.242188.683594zm0 0" fill="#428dff"/><path d="m17.066406 512h477.867188c9.425781 0 17.066406-7.640625 17.066406-17.066406v-51.199219c0-9.425781-7.640625-17.066406-17.066406-17.066406h-349.867188v-103.441407c20.011719-5.1875 25.601563-28.5625 25.601563-41.625 0-4.714843-3.820313-8.535156-8.535157-8.535156h-85.332031c-4.714843 0-8.535156 3.820313-8.535156 8.535156 0 13.054688 5.617187 36.367188 25.601563 41.582032v26.683594c0 4.710937 3.820312 8.53125 8.53125 8.53125 4.714843 0 8.535156-3.820313 8.535156-8.53125v-34.132813c0-4.714844-3.820313-8.535156-8.535156-8.535156-10.453126 0-14.503907-9.609375-16.074219-17.066407h66.285156c-1.578125 7.457032-5.621094 17.066407-16.074219 17.066407-4.714844 0-8.535156 3.820312-8.535156 8.535156v110.933594h-17.066406v-8.535157c0-4.710937-3.820313-8.53125-8.535156-8.53125-4.710938 0-8.53125 3.820313-8.53125 8.53125v8.535157h-76.800782c-9.425781 0-17.066406 7.640625-17.066406 17.066406v51.199219c0 9.425781 7.640625 17.066406 17.066406 17.066406zm47.386719-17.066406c6.824219-7.5 23.269531-17.066406 63.546875-17.066406 26.894531-1.050782 53.613281 4.828124 77.585938 17.066406zm430.480469 0h-44.851563c6.167969-7.867188 9.574219-17.542969 9.695313-27.539063.058594-8.707031-3.097656-17.132812-8.859375-23.660156h44.015625zm-93.867188-51.199219c26.453125 0 41.660156 8.625 41.660156 23.660156-.25 7.058594-3.007812 13.796875-7.773437 19.003907-4.15625 5.085937-10.261719 8.183593-16.820313 8.535156h-16.46875c-17.289062 0-49.578124-3.097656-71.535156-23.894532-10.703125-10.542968-22.675781-19.714843-35.644531-27.304687zm-384 0h187.734375c57.503907 0 79.804688 7.796875 113.601563 39.738281 4.617187 4.347656 9.683594 8.1875 15.113281 11.460938h-99.34375c-9.027344-9.242188-39.484375-34.132813-106.171875-34.132813-61.441406 0-78.617188 21.675781-83.449219 34.132813h-27.484375zm0 0" fill="#428dff"/></svg>