<?xml version="1.0" encoding="utf-8"?>
<!-- Generator: Adobe Illustrator 22.1.0, SVG Export Plug-In . SVG Version: 6.00 Build 0)  -->
<svg version="1.1" xmlns="http://www.w3.org/2000/svg" xmlns:xlink="http://www.w3.org/1999/xlink" x="0px" y="0px"
	 viewBox="0 0 931.6 463.3" style="enable-background:new 0 0 931.6 463.3;" xml:space="preserve">
<style type="text/css">
	.st0{display:none;}
	.st1{fill:#FFA617;}
	.st2{fill:none;stroke:#333331;stroke-width:3;stroke-linecap:round;stroke-linejoin:round;stroke-miterlimit:10;}
	.st3{fill:#FFFFFF;stroke:#333331;stroke-width:3;stroke-linecap:round;stroke-linejoin:round;stroke-miterlimit:10;}
	.st4{fill:#333331;}
	.st5{fill:#FFC13A;}
	.st6{font-family:'Montserrat-Black';}
	.st7{font-size:28.5556px;}
	.st8{fill:#FFC13A;stroke:#333331;stroke-width:3;stroke-linecap:round;stroke-linejoin:round;stroke-miterlimit:10;}
	.st9{fill:#FFFFFF;}
</style>
<g id="Background" class="st0">
</g>
<g id="Objects">
	<g id="XMLID_194_">
		<path id="XMLID_11_" class="st1" d="M545.8,287L493,314.1c-5.9,3-8.2,10.3-5.2,16.2l0.7,1.3l4.3,8.4l29.4,57.1l4.3,8.4l0.7,1.3
			c3,5.9,10.3,8.2,16.2,5.2l52.8-27.2c5.9-3,8.2-10.3,5.2-16.2l-0.7-1.3l-4.3-8.4L567,301.8l-4.3-8.4l-0.7-1.3
			C558.9,286.2,551.7,283.9,545.8,287z"/>
		<path id="XMLID_9_" class="st2" d="M541.4,278.6l-52.8,27.2c-5.9,3-8.2,10.3-5.2,16.2l43.7,84.8c3,5.9,10.3,8.2,16.2,5.2
			l52.8-27.2c5.9-3,8.2-10.3,5.2-16.2l-43.7-84.8C554.6,277.9,547.4,275.5,541.4,278.6z"/>
		
			<rect id="XMLID_10_" x="500.6" y="308.5" transform="matrix(0.8891 -0.4578 0.4578 0.8891 -97.8972 286.5864)" class="st3" width="83.5" height="73.6"/>
		<circle id="XMLID_12_" class="st3" cx="563.1" cy="388.1" r="5"/>
		<circle id="XMLID_13_" class="st4" cx="539.9" cy="291.2" r="3"/>
		<path id="XMLID_15_" class="st4" d="M531.4,299.8L509.7,311c-1.8,0.9-4,0.2-4.9-1.6l0,0c-0.9-1.8-0.2-4,1.6-4.9l21.7-11.2
			c1.8-0.9,4-0.2,4.9,1.6v0C533.9,296.7,533.2,298.9,531.4,299.8z"/>
		<text id="XMLID_25_" transform="matrix(0.8891 -0.4578 0.4578 0.8891 529.2476 361.6572)" class="st5 st6 st7">A+</text>
		
			<rect id="XMLID_26_" x="565.8" y="294.5" transform="matrix(0.8891 -0.4578 0.4578 0.8891 -73.871 293.2653)" class="st8" width="4.7" height="9.2"/>
		
			<rect id="XMLID_27_" x="572.6" y="307.6" transform="matrix(0.8891 -0.4578 0.4578 0.8891 -79.1237 297.8095)" class="st8" width="4.7" height="9.2"/>
		
			<rect id="XMLID_28_" x="510.5" y="379.6" transform="matrix(0.8891 -0.4578 0.4578 0.8891 -118.9827 277.3635)" class="st8" width="4.7" height="9.2"/>
		<path id="XMLID_29_" class="st8" d="M316.1,420.1l-8.8-1.5c-8.1-1.4-13.5-9.1-12.1-17.2l1-6c0.6-3.8,3.4-6.8,7.1-7.9l3.7-1.1
			c6.6-1.9,13.6-1.4,19.8,1.5l5.8,2.7c4.9,2.3,7.1,8,4.9,13l-2.7,6.4C331.6,417.2,323.9,421.4,316.1,420.1z"/>
		<line id="XMLID_30_" class="st2" x1="296.1" y1="395.3" x2="287.8" y2="393.9"/>
		<path id="XMLID_33_" class="st8" d="M368.5,429.1l8.8,1.5c8.1,1.4,15.8-4,17.2-12.1l1-6c0.6-3.8-0.9-7.6-4-9.8l-3.2-2.3
			c-5.6-4-12.4-5.8-19.2-5.2l-6.3,0.6c-5.4,0.5-9.4,5.2-9,10.6l0.5,6.9C354.9,421.2,360.7,427.7,368.5,429.1z"/>
		<line id="XMLID_32_" class="st2" x1="395.6" y1="412.4" x2="403.9" y2="413.8"/>
		<path id="XMLID_31_" class="st2" d="M337.9,397.2c0,0,10-6.6,16.7,2.9"/>
		<path id="XMLID_36_" class="st9" d="M355.6,406.3l0.1,1.2c11.7,0.3,22.4-2.3,29.5-7.1c-2.7-1.6-5.7-2.7-8.8-3.2
			c-2.3-0.4-4.7-0.5-7-0.3l-6.3,0.6C358.6,398,355.3,401.8,355.6,406.3z"/>
		<path id="XMLID_48_" class="st9" d="M335.3,404.1l0.5-1.2c1.8-4.1,0-8.8-4.1-10.7c0,0,0,0,0,0l-5.8-2.7
			c-5.2-2.5-11.1-3.1-16.8-1.9C314.5,394.6,324,400.6,335.3,404.1z"/>
		<circle id="XMLID_38_" class="st3" cx="239.7" cy="277.2" r="51"/>
		<path id="XMLID_43_" class="st3" d="M294.2,272h-18c-2.6-17.8-17.9-31.5-36.4-31.5c-20.3,0-36.8,16.5-36.8,36.8
			s16.5,36.8,36.8,36.8c18.5,0,33.9-13.7,36.4-31.5h18c2.9,0,5.3-2.4,5.3-5.3S297.1,272,294.2,272z"/>
		<circle id="XMLID_39_" class="st8" cx="239.7" cy="277.2" r="29.2"/>
		<path id="XMLID_46_" class="st9" d="M258.3,257.1c-5-4.6-11.6-7.3-18.6-7.3c-15.1,0-27.4,12.3-27.4,27.4c0,7,2.6,13.6,7.3,18.6
			c-0.9-3-1.4-6.1-1.4-9.2c0-17.1,13.9-31,31-31C252.3,255.7,255.4,256.2,258.3,257.1z"/>
		<path id="XMLID_44_" class="st3" d="M714.8,298.6L492,211.5c-6.9-2.7-10.4-10.5-7.7-17.5l54.4-139.1l247.9,96.9l-54.4,139.1
			C729.5,297.9,721.7,301.3,714.8,298.6z"/>
		<polygon id="XMLID_45_" class="st8" points="786.6,151.8 538.7,54.9 536.9,26 807.6,131.7 		"/>
		<path id="XMLID_47_" class="st3" d="M799.4,113L555.6,17.7c-7.5-2.9-15.9,0.8-18.8,8.2v0l270.7,105.8h0
			C810.5,124.3,806.8,115.9,799.4,113z"/>
		<polygon id="XMLID_51_" class="st3" points="547.7,48.4 547.1,40 790.5,135.1 784.5,140.9 		"/>
		<polygon id="XMLID_50_" class="st3" points="547.7,48.4 547.1,40 790.5,135.1 784.5,140.9 		"/>
		
			<rect id="XMLID_52_" x="579.6" y="212.6" transform="matrix(0.9314 0.3639 -0.3639 0.9314 125.3049 -207.6595)" class="st8" width="68.3" height="32.1"/>
		<line id="XMLID_53_" class="st3" x1="579.7" y1="221.9" x2="600.5" y2="230"/>
		<line id="XMLID_54_" class="st3" x1="622.5" y1="238.6" x2="643.3" y2="246.7"/>
		
			<rect id="XMLID_55_" x="522" y="153.1" transform="matrix(0.9314 0.3639 -0.3639 0.9314 94.3942 -181.4392)" class="st8" width="13.4" height="13.4"/>
		
			<rect id="XMLID_56_" x="543.2" y="161.3" transform="matrix(0.9314 0.3639 -0.3639 0.9314 98.8616 -188.585)" class="st8" width="13.4" height="13.4"/>
		<polygon id="XMLID_58_" class="st8" points="652,200.8 567.2,167.7 562.4,180.1 647.2,213.2 659.6,218.1 664.5,205.7 		"/>
		
			<rect id="XMLID_62_" x="670.3" y="211" transform="matrix(0.9314 0.3639 -0.3639 0.9314 125.6661 -231.4599)" class="st8" width="13.4" height="13.4"/>
		
			<rect id="XMLID_63_" x="691.5" y="219.3" transform="matrix(0.9314 0.3639 -0.3639 0.9314 130.1335 -238.6058)" class="st8" width="13.4" height="13.4"/>
		<polygon id="XMLID_61_" class="st8" points="553.5,140.3 532.3,132 527.5,144.4 548.7,152.7 561.1,157.6 566,145.1 		"/>
		
			<rect id="XMLID_72_" x="571.8" y="150.5" transform="matrix(0.9314 0.3639 -0.3639 0.9314 96.8838 -199.7603)" class="st8" width="13.4" height="13.4"/>
		
			<rect id="XMLID_71_" x="593" y="158.8" transform="matrix(0.9314 0.3639 -0.3639 0.9314 101.3512 -206.9061)" class="st8" width="13.4" height="13.4"/>
		
			<rect id="XMLID_70_" x="614.2" y="167.1" transform="matrix(0.9314 0.3639 -0.3639 0.9314 105.8186 -214.0519)" class="st8" width="13.4" height="13.4"/>
		
			<rect id="XMLID_67_" x="677.8" y="191.9" transform="matrix(0.9314 0.3639 -0.3639 0.9314 119.2209 -235.4894)" class="st8" width="13.4" height="13.4"/>
		
			<rect id="XMLID_66_" x="699" y="200.2" transform="matrix(0.9314 0.3639 -0.3639 0.9314 123.6883 -242.6352)" class="st8" width="13.4" height="13.4"/>
		<polygon id="XMLID_57_" class="st8" points="723.1,206.5 718.2,219 710.7,238.1 723.2,243 730.7,223.8 735.6,211.4 		"/>
		
			<rect id="XMLID_84_" x="536.9" y="114.8" transform="matrix(0.9314 0.3639 -0.3639 0.9314 81.5037 -189.4981)" class="st8" width="13.4" height="13.4"/>
		
			<rect id="XMLID_83_" x="558.1" y="123.1" transform="matrix(0.9314 0.3639 -0.3639 0.9314 85.9711 -196.6439)" class="st8" width="13.4" height="13.4"/>
		
			<rect id="XMLID_82_" x="579.3" y="131.4" transform="matrix(0.9314 0.3639 -0.3639 0.9314 90.4385 -203.7897)" class="st8" width="13.4" height="13.4"/>
		
			<rect id="XMLID_81_" x="600.5" y="139.7" transform="matrix(0.9314 0.3639 -0.3639 0.9314 94.9059 -210.9355)" class="st8" width="13.4" height="13.4"/>
		
			<rect id="XMLID_80_" x="621.7" y="148" transform="matrix(0.9314 0.3639 -0.3639 0.9314 99.3734 -218.0814)" class="st8" width="13.4" height="13.4"/>
		
			<rect id="XMLID_79_" x="642.9" y="156.2" transform="matrix(0.9314 0.3639 -0.3639 0.9314 103.8408 -225.2272)" class="st8" width="13.4" height="13.4"/>
		<polygon id="XMLID_59_" class="st8" points="667,162.5 659.5,181.7 650.8,178.3 638.3,173.4 633.4,185.8 645.9,190.7 654.6,194.1 
			667.1,199 672,186.5 679.4,167.4 		"/>
		
			<rect id="XMLID_77_" x="685.3" y="172.8" transform="matrix(0.9314 0.3639 -0.3639 0.9314 112.7756 -239.5188)" class="st8" width="13.4" height="13.4"/>
		
			<rect id="XMLID_76_" x="706.5" y="181.1" transform="matrix(0.9314 0.3639 -0.3639 0.9314 117.243 -246.6647)" class="st8" width="13.4" height="13.4"/>
		
			<rect id="XMLID_75_" x="727.7" y="189.4" transform="matrix(0.9314 0.3639 -0.3639 0.9314 121.7105 -253.8105)" class="st8" width="13.4" height="13.4"/>
		<polygon id="XMLID_60_" class="st8" points="568.5,102 547.3,93.7 542.4,106.2 563.6,114.5 576.1,119.4 580.9,106.9 		"/>
		
			<rect id="XMLID_92_" x="586.8" y="112.3" transform="matrix(0.9314 0.3639 -0.3639 0.9314 83.9933 -207.8192)" class="st8" width="13.4" height="13.4"/>
		
			<rect id="XMLID_91_" x="608" y="120.6" transform="matrix(0.9314 0.3639 -0.3639 0.9314 88.4607 -214.965)" class="st8" width="13.4" height="13.4"/>
		
			<rect id="XMLID_90_" x="629.2" y="128.8" transform="matrix(0.9314 0.3639 -0.3639 0.9314 92.9281 -222.1108)" class="st8" width="13.4" height="13.4"/>
		
			<rect id="XMLID_89_" x="650.3" y="137.1" transform="matrix(0.9314 0.3639 -0.3639 0.9314 97.3955 -229.2566)" class="st8" width="13.4" height="13.4"/>
		
			<rect id="XMLID_88_" x="671.5" y="145.4" transform="matrix(0.9314 0.3639 -0.3639 0.9314 101.8629 -236.4025)" class="st8" width="13.4" height="13.4"/>
		
			<rect id="XMLID_87_" x="692.7" y="153.7" transform="matrix(0.9314 0.3639 -0.3639 0.9314 106.3304 -243.5483)" class="st8" width="13.4" height="13.4"/>
		
			<rect id="XMLID_86_" x="713.9" y="162" transform="matrix(0.9314 0.3639 -0.3639 0.9314 110.7978 -250.6941)" class="st8" width="13.4" height="13.4"/>
		
			<rect id="XMLID_85_" x="735.1" y="170.2" transform="matrix(0.9314 0.3639 -0.3639 0.9314 115.2652 -257.8399)" class="st8" width="13.4" height="13.4"/>
		
			<rect id="XMLID_104_" x="551.8" y="76.6" transform="matrix(0.9314 0.3639 -0.3639 0.9314 68.6132 -197.5569)" class="st8" width="13.4" height="13.4"/>
		
			<rect id="XMLID_103_" x="573" y="84.9" transform="matrix(0.9314 0.3639 -0.3639 0.9314 73.0806 -204.7028)" class="st8" width="13.4" height="13.4"/>
		
			<rect id="XMLID_102_" x="594.2" y="93.2" transform="matrix(0.9314 0.3639 -0.3639 0.9314 77.548 -211.8486)" class="st8" width="13.4" height="13.4"/>
		
			<rect id="XMLID_101_" x="615.4" y="101.4" transform="matrix(0.9314 0.3639 -0.3639 0.9314 82.0154 -218.9944)" class="st8" width="13.4" height="13.4"/>
		
			<rect id="XMLID_100_" x="636.6" y="109.7" transform="matrix(0.9314 0.3639 -0.3639 0.9314 86.4828 -226.1402)" class="st8" width="13.4" height="13.4"/>
		
			<rect id="XMLID_99_" x="657.8" y="118" transform="matrix(0.9314 0.3639 -0.3639 0.9314 90.9503 -233.2861)" class="st8" width="13.4" height="13.4"/>
		
			<rect id="XMLID_98_" x="679" y="126.3" transform="matrix(0.9314 0.3639 -0.3639 0.9314 95.4177 -240.4319)" class="st8" width="13.4" height="13.4"/>
		
			<rect id="XMLID_97_" x="700.2" y="134.6" transform="matrix(0.9314 0.3639 -0.3639 0.9314 99.8851 -247.5777)" class="st8" width="13.4" height="13.4"/>
		
			<rect id="XMLID_96_" x="721.4" y="142.9" transform="matrix(0.9314 0.3639 -0.3639 0.9314 104.3525 -254.7235)" class="st8" width="13.4" height="13.4"/>
		
			<rect id="XMLID_95_" x="742.6" y="151.1" transform="matrix(0.9314 0.3639 -0.3639 0.9314 108.82 -261.8694)" class="st8" width="13.4" height="13.4"/>
		<path id="XMLID_118_" class="st1" d="M319.9,67.8l-5.1,3.5l86.3-28.9c-1.1-0.7-2.5-0.9-3.8-0.5L319.9,67.8z"/>
		
			<rect id="XMLID_108_" x="319.1" y="54.3" transform="matrix(0.9481 -0.3179 0.3179 0.9481 -0.7399 116.2505)" class="st2" width="73.3" height="12.3"/>
		<path id="XMLID_109_" class="st8" d="M396.7,40.2l-8.1,2.7l3.9,11.6l8.1-2.7c3.2-1.1,4.9-4.6,3.9-7.8v0
			C403.4,40.9,400,39.1,396.7,40.2z"/>
		<polygon id="XMLID_110_" class="st2" points="300.5,78.9 323,77.9 319.1,66.2 		"/>
		<line id="XMLID_112_" class="st2" x1="311.1" y1="71.7" x2="313.4" y2="78.3"/>
		
			<rect id="XMLID_68_" x="264" y="91.4" transform="matrix(0.9481 -0.3179 0.3179 0.9481 -26.282 118.9413)" class="st3" width="174.5" height="97.2"/>
		
			<rect id="XMLID_78_" x="279.3" y="103.6" transform="matrix(0.9481 -0.3179 0.3179 0.9481 -27.1889 121.5607)" class="st1" width="159.2" height="81.1"/>
		<line id="XMLID_69_" class="st2" x1="280.8" y1="112.4" x2="311.7" y2="204.5"/>
		<line id="XMLID_74_" class="st2" x1="404.4" y1="70.9" x2="435.3" y2="163.1"/>
		<line id="XMLID_93_" class="st2" x1="284.1" y1="122" x2="407.7" y2="80.6"/>
		<line id="XMLID_94_" class="st2" x1="308.5" y1="194.8" x2="432.1" y2="153.4"/>
		<line id="XMLID_106_" class="st2" x1="323.2" y1="173" x2="303.4" y2="179.7"/>
		<line id="XMLID_107_" class="st2" x1="318.5" y1="158.9" x2="298.6" y2="165.5"/>
		<line id="XMLID_113_" class="st2" x1="313.7" y1="144.7" x2="293.9" y2="151.4"/>
		<line id="XMLID_114_" class="st2" x1="309" y1="130.5" x2="289.1" y2="137.2"/>
		<circle id="XMLID_115_" class="st2" cx="282.7" cy="163" r="7.5"/>
		
			<rect id="XMLID_116_" x="433.8" y="101" transform="matrix(0.9481 -0.3179 0.3179 0.9481 -12.4965 145.0817)" class="st8" width="9" height="19.6"/>
		
			<rect id="XMLID_119_" x="343.1" y="227.4" transform="matrix(0.9746 0.2239 -0.2239 0.9746 76.3725 -80.5959)" class="st3" width="101" height="138.2"/>
		
			<rect id="XMLID_121_" x="373.1" y="248" transform="matrix(0.9746 0.2239 -0.2239 0.9746 67.6573 -79.3633)" class="st3" width="21.5" height="21.5"/>
		<line id="XMLID_123_" class="st2" x1="367.2" y1="284" x2="423" y2="296.8"/>
		<line id="XMLID_124_" class="st2" x1="364.3" y1="296.6" x2="420.1" y2="309.4"/>
		<line id="XMLID_125_" class="st2" x1="361.4" y1="309.2" x2="417.2" y2="322"/>
		<line id="XMLID_126_" class="st2" x1="358.5" y1="321.8" x2="414.3" y2="334.6"/>
		<line id="XMLID_127_" class="st2" x1="355.6" y1="334.4" x2="411.5" y2="347.2"/>
		
			<rect id="XMLID_147_" x="776.9" y="260.7" transform="matrix(0.892 0.452 -0.452 0.892 240.3638 -341.9742)" class="st3" width="118.1" height="142.7"/>
		
			<rect id="XMLID_134_" x="769.2" y="249.7" transform="matrix(0.892 0.452 -0.452 0.892 237.758 -338.9023)" class="st3" width="118.1" height="157.1"/>
		
			<rect id="XMLID_153_" x="746.2" y="274.3" transform="matrix(0.452 -0.892 0.892 0.452 160.6093 912.3587)" class="st1" width="153.3" height="102.3"/>
		
			<rect id="XMLID_146_" x="824.8" y="324.2" transform="matrix(0.892 0.452 -0.452 0.892 244.99 -350.0678)" class="st3" width="60.9" height="27.1"/>
		<polygon id="XMLID_148_" class="st3" points="897.2,298.8 890.4,290.3 879.5,289.9 890.8,267.5 908.5,276.5 		"/>
		
			<rect id="XMLID_149_" x="774.7" y="226.6" transform="matrix(0.892 0.452 -0.452 0.892 222.435 -320.8384)" class="st8" width="16.1" height="157.1"/>
		
			<rect id="XMLID_151_" x="647.3" y="320.1" transform="matrix(0.9436 0.3311 -0.3311 0.9436 155.947 -196.3969)" class="st8" width="14.1" height="78.6"/>
		<path id="XMLID_152_" class="st8" d="M672.7,307.3L672.7,307.3c-2.2-0.8-4.7,0.4-5.5,2.6l-3.9,11.1l8.1,2.8l3.9-11.1
			C676.1,310.5,674.9,308,672.7,307.3z"/>
		<path id="XMLID_155_" class="st8" d="M634.7,394.2l0.9,11c0.2,2.4,3.1,3.4,4.8,1.7l7.6-8L634.7,394.2z"/>
		
			<rect id="XMLID_154_" x="637.4" y="378.3" transform="matrix(0.9436 0.3311 -0.3311 0.9436 164.744 -191.5192)" class="st3" width="14.1" height="18.7"/>
		<polyline id="XMLID_156_" class="st2" points="658.3,327 678.2,334 666.8,366.5 		"/>
		<path id="XMLID_158_" class="st3" d="M136.5,252.5l-62.9,20.4c-5,1.6-10.3-1.1-12-6.1L35.9,187c-1.6-5,1.1-10.3,6.1-12l62.9-20.4
			c5-1.6,10.3,1.1,12,6.1l25.8,79.8C144.3,245.6,141.5,250.9,136.5,252.5z"/>
		
			<rect id="XMLID_159_" x="48" y="176.3" transform="matrix(0.9514 -0.3078 0.3078 0.9514 -52.946 33.4974)" class="st3" width="63.4" height="16.6"/>
		
			<rect id="XMLID_166_" x="56.1" y="181.2" transform="matrix(0.9514 -0.3078 0.3078 0.9514 -53.0934 34.5747)" class="st1" width="53.9" height="8.8"/>
		
			<rect id="XMLID_160_" x="55.4" y="208.4" transform="matrix(0.9514 -0.3078 0.3078 0.9514 -61.9766 29.6847)" class="st8" width="15.3" height="5.8"/>
		
			<rect id="XMLID_162_" x="78.3" y="201" transform="matrix(0.9514 -0.3078 0.3078 0.9514 -58.5909 36.3603)" class="st8" width="15.3" height="5.8"/>
		
			<rect id="XMLID_163_" x="101.1" y="193.6" transform="matrix(0.9514 -0.3078 0.3078 0.9514 -55.2053 43.036)" class="st8" width="15.3" height="5.8"/>
		
			<rect id="XMLID_167_" x="61.2" y="225.1" transform="matrix(0.9514 -0.3078 0.3078 0.9514 -67.1664 32.3168)" class="st3" width="15.3" height="7.9"/>
		
			<rect id="XMLID_165_" x="84" y="217.7" transform="matrix(0.9514 -0.3078 0.3078 0.9514 -63.7807 38.9925)" class="st3" width="15.3" height="7.9"/>
		
			<rect id="XMLID_164_" x="106.9" y="210.3" transform="matrix(0.9514 -0.3078 0.3078 0.9514 -60.3951 45.6681)" class="st8" width="15.3" height="7.9"/>
		
			<rect id="XMLID_170_" x="65.6" y="238.6" transform="matrix(0.9514 -0.3078 0.3078 0.9514 -71.1268 34.3254)" class="st3" width="15.3" height="7.9"/>
		
			<rect id="XMLID_169_" x="88.4" y="231.2" transform="matrix(0.9514 -0.3078 0.3078 0.9514 -67.7412 41.0011)" class="st3" width="15.3" height="7.9"/>
		
			<rect id="XMLID_168_" x="111.3" y="223.9" transform="matrix(0.9514 -0.3078 0.3078 0.9514 -64.3555 47.6767)" class="st8" width="15.3" height="7.9"/>
		
			<rect id="XMLID_173_" x="70" y="252.2" transform="matrix(0.9514 -0.3078 0.3078 0.9514 -75.0873 36.334)" class="st3" width="15.3" height="7.9"/>
		
			<rect id="XMLID_172_" x="92.8" y="244.8" transform="matrix(0.9514 -0.3078 0.3078 0.9514 -71.7016 43.0097)" class="st3" width="15.3" height="7.9"/>
		
			<rect id="XMLID_171_" x="115.7" y="237.4" transform="matrix(0.9514 -0.3078 0.3078 0.9514 -68.3159 49.6853)" class="st8" width="15.3" height="7.9"/>
		<polygon id="XMLID_5_" class="st3" points="186,139.8 161,188.5 196.4,206.7 203.2,193.4 216.4,200.2 234.6,164.8 		"/>
		<polygon id="XMLID_6_" class="st3" points="196.4,206.7 216.4,200.2 203.2,193.4 		"/>
		<line id="XMLID_4_" class="st3" x1="181.2" y1="149" x2="193.1" y2="155.1"/>
		<line id="XMLID_7_" class="st3" x1="202.8" y1="160.1" x2="229.9" y2="174"/>
		<circle id="XMLID_19_" class="st3" cx="173.7" cy="78.3" r="34.4"/>
		<path id="XMLID_20_" class="st8" d="M212.4,59.1l58.7-29c2.7-1.3,5.8-1.3,8.5,0l0,0c4.6,2.2,6.8,7.7,4.8,12.5v0
			c-1.1,2.8-3.5,4.9-6.3,5.7l-62.9,18.2L212.4,59.1z"/>
		<path id="XMLID_22_" class="st3" d="M205.9,65.9c0.8,2,1.3,4,1.7,6.1l8.5-3.3l-4.6-11.8l-8.5,3.3C204.1,62,205.1,63.9,205.9,65.9z
			"/>
		<circle id="XMLID_21_" class="st3" cx="173.7" cy="78.3" r="25.5"/>
		<path id="XMLID_174_" class="st1" d="M185.9,92.1c4.4-1.7,8.1-4.7,10.8-8.5c1.1-4.6,0.7-9.4-1-13.8c-4.7-12.1-18.4-18.2-30.5-13.5
			c-4.4,1.7-8.1,4.7-10.8,8.5c-1.1,4.6-0.7,9.4,1,13.8C160.1,90.8,173.8,96.8,185.9,92.1z"/>
		<line id="XMLID_23_" class="st8" x1="278.2" y1="48.3" x2="271.2" y2="30.1"/>
		<path id="XMLID_37_" class="st8" d="M100.9,69l-31.3-8.1c-4.8-1.2-9.7,1.6-11,6.5l-2.8,10.9l48.7,12.6l2.8-10.9
			C108.6,75.2,105.7,70.2,100.9,69z"/>
		<path id="XMLID_141_" class="st8" d="M100.5,44c0.7-1,1.2-2.1,1.5-3.3c1.4-5.4-1.9-11-7.3-12.4c-5.4-1.4-11,1.9-12.4,7.3
			c-0.1,0.3-0.1,0.6-0.2,0.9c0,0.1,0,0.2,0,0.2c-1.2,8,4,23.1-2.2,26.7l5.2,1.3l0.1,0l5.2,1.3C87.1,60.7,96.6,51.4,100.5,44z"/>
		
			<rect id="XMLID_175_" x="57.2" y="84.5" transform="matrix(0.968 0.2509 -0.2509 0.968 24.4464 -17.1514)" class="st3" width="44.5" height="5.6"/>
		<line id="XMLID_179_" class="st2" x1="57.4" y1="72.3" x2="74.3" y2="76.7"/>
	</g>
</g>
</svg>
