<?xml version="1.0" encoding="utf-8"?>
<!-- Generator: Adobe Illustrator 22.1.0, SVG Export Plug-In . SVG Version: 6.00 Build 0)  -->
<svg version="1.1" id="Capa_1" xmlns="http://www.w3.org/2000/svg" xmlns:xlink="http://www.w3.org/1999/xlink" x="0px" y="0px"
	 viewBox="0 0 512 512" style="enable-background:new 0 0 512 512;" xml:space="preserve">
<style type="text/css">
	.st0{fill:#FFD474;}
	.st1{fill:#214A81;}
</style>
<path class="st0" d="M223,351l112-96l-112-96V351z"/>
<g>
	<path class="st1" d="M255,511C113.6,511-1,396.4-1,255S113.6-1,255-1s256,114.6,256,256C510.8,396.3,396.3,510.8,255,511z M255,31
		C131.3,31,31,131.3,31,255c0,123.7,100.3,224,224,224s224-100.3,224-224C478.9,131.3,378.7,31.1,255,31z"/>
	<path class="st1" d="M223,367c-8.8,0-16-7.2-16-16V159c0-8.8,7.2-16,16-16c3.8,0,7.5,1.4,10.4,3.9l112,96
		c6.7,5.8,7.5,15.9,1.7,22.6c-0.5,0.6-1.1,1.2-1.7,1.7l-112,96C230.5,365.6,226.8,367,223,367z M239,193.8v122.4l71.4-61.2
		L239,193.8z"/>
</g>
</svg>
