<?xml version="1.0" encoding="utf-8"?>
<!-- Generator: Adobe Illustrator 22.1.0, SVG Export Plug-In . SVG Version: 6.00 Build 0)  -->
<svg version="1.1" xmlns="http://www.w3.org/2000/svg" xmlns:xlink="http://www.w3.org/1999/xlink" x="0px" y="0px"
	 viewBox="0 0 799.9 799.9" style="enable-background:new 0 0 799.9 799.9;" xml:space="preserve">
<style type="text/css">
	.st0{fill:#EBF5FF;}
	.st1{fill:#84B4FE;}
	.st2{fill:#214A81;}
	.st3{fill:#C1DDF7;}
	.st4{fill:#FFD474;}
</style>
<g id="Background">
</g>
<g id="Objects">
	<g>
		<path class="st0" d="M424.2,588.3c0-13.6-11.1-24.7-24.7-24.7c-13.6,0-24.7,11.1-24.7,24.7c0,0-3.2,58.4,24.7,89.5
			C427.4,646.7,424.2,588.3,424.2,588.3z"/>
		<g>
			<path class="st1" d="M313.3,454.5c0,0-92.5,44.8-55.8,176.9c0,0,19.6-66.4,82.3-83.6L313.3,454.5z"/>
			<path class="st1" d="M486.6,454.5c0,0,92.5,44.8,55.8,176.9c0,0-19.6-66.4-82.3-83.6L486.6,454.5z"/>
			<path class="st2" d="M430,575.4h-62.9c-2.5,0-4.6-1.7-5.2-4.1l-3.5-15.2c-0.8-3.3,1.8-6.5,5.2-6.5h69.8c3.4,0,5.9,3.2,5.2,6.5
				l-3.5,15.2C434.6,573.7,432.5,575.4,430,575.4z"/>
			<path class="st3" d="M307.8,418.9c0,0,9.6,88.6,39.5,144.7c0,0,47.4-22.8,103.5,0c0,0,34.2-47.4,41.2-151.8
				c4-60.1-0.8-128.8-20.7-188H332.2C313.7,272,300.5,336.8,307.8,418.9z"/>
			<path class="st2" d="M388.8,127.9c-14,15.8-38,47.6-56.6,96h139.1c-12.7-37.9-31.7-71.8-58.4-97.2
				C406,120.2,395.1,120.7,388.8,127.9z"/>
			<path class="st1" d="M397.5,414.6c0,0-42.7,97,0,212.3C397.5,626.8,444.9,530.6,397.5,414.6z"/>
			<circle class="st2" cx="401.5" cy="324.6" r="53.7"/>
			
				<ellipse transform="matrix(0.2287 -0.9735 0.9735 0.2287 -6.3256 641.1977)" class="st4" cx="401.5" cy="324.6" rx="37.3" ry="37.3"/>
		</g>
	</g>
</g>
</svg>
